CoelacanthGross.sfdir
StartChar: ampersand
Encoding: 38 38 146
Width: 676
Flags: HW
LayerCount: 2
Fore
SplineSet
186.5 330.400390625 m 1
 155.398274005 313.733957119 137 278.205436675 137 260 c 3
 137 142.911830508 185.312470588 85 285 85 c 3
 319.756579176 85 340.114661605 112.03442546 356.5 124.400390625 c 1
 285 300 221.608330189 315.998653337 186.5 330.400390625 c 1
160.5 561.400390625 m 1
 129.004438416 561.400390625 133 541 133 544 c 3
 133 473.487482244 193.679076305 446.854847301 233.5 414.400390625 c 1
 252.9846 432.984829221 262.5 446.192609923 262.5 467.400390625 c 3
 262.5 483.478751281 242.369489362 561.400390625 160.5 561.400390625 c 1
671.5 442.599609375 m 1
 615.928350308 442.599609375 594.677622317 406.735164397 559 357 c 0
 511.999054725 291.479946021 484.189559643 269.306658352 450.5 196.400390625 c 1
 493.461734315 83.1064227662 535.582063142 65.0276270032 562.861987023 65.0276270032 c 3
 609.295674455 65.0276270032 619.331355172 88.8807864154 633 129 c 1
 673 113 l 1
 647.254183333 44.6106373832 631.402675 1 520 1 c 3
 476.36744507 1 411.87012987 20.2610056816 386 74 c 1
 360 40 315.323327549 -5 199 -5 c 3
 65.9999505882 -5 17 104.852415254 17 172 c 3
 17 262.31533652 80.7601724138 331.181132906 153.5 354.400390625 c 1
 113.95446988 385.194187489 81 437.306300793 81 506 c 3
 81 588.857120567 156 619.27268697 231 646 c 1
 324.146020725 613.741188676 362.5 562.163167433 362.5 479.400390625 c 3
 362.5 478.663767818 292.486472727 414.127785362 276.5 394.400390625 c 1
 348.32884097 366.503806551 392.392349057 311.393103847 424 244 c 1
 453.561696453 295.99489403 506.694095991 390.56972689 510 406 c 0
 519.336608204 449.578523179 476.314759746 477.228236607 456.5 485.599609375 c 1
 472 528 l 1
 524.435653543 506.483 615.574929134 487.655 678 489 c 1
 671.5 442.599609375 l 1
EndSplineSet
Position2: "cpsp-1" dx=0 dy=0 dh=50 dv=100
Substitution2: "pcap-1" ampersand.pcap
Substitution2: "smcp-1" ampersand.smcp
EndChar
StartChar: quotesingle
Encoding: 39 39 79
Width: 200
VWidth: 1159
Flags: HW
LayerCount: 2
Fore
SplineSet
32 705.700195312 m 1
 168 705.700195312 l 1
 166.670571428 567.768195312 135.427714286 622.368195313 132 439.700195312 c 1
 68 439.700195312 l 1
 64.4136285714 622.122195313 33.5292285714 568.080195312 32 705.700195312 c 1
EndSplineSet
Position2: "Extra space for context kern-1" dx=35 dy=0 dh=70 dv=0 [ddx={} ddy={} ddh={} ddv={}]
Position2: "cpsp-1" dx=0 dy=0 dh=7 dv=14
EndChar
StartChar: asterisk
Encoding: 42 42 162
Width: 362
Flags: HW
LayerCount: 2
Fore
SplineSet
190.009765625 509.029296875 m 1
 160.244774415 448.614646574 191.122341666 426.803059136 156.764982561 371.264536536 c 1
 110.764982561 363.264536536 61.7958984375 405.9296875 49.9833984375 443.340820312 c 1
 86.8095703125 496.5859375 112.850189665 482.95644724 154.1953125 526.59765625 c 1
 89.3232726988 528.007773437 78.3465816096 508.155765183 16.1421305664 513.581321837 c 1
 -7.8578694336 559.581321837 23.5458984375 618.568359375 48.0703125 638.3359375 c 1
 110.811523438 622.077148438 101.755574908 593.628929282 159.577148438 567.590820312 c 1
 145.529904837 626.133317223 116.184600157 625.149825922 108.459890255 693.980318873 c 1
 138.459890255 725.980318873 205.477539062 723.225585938 239.936523438 699.212890625 c 1
 240.163085938 629.576171875 213.533715962 627.996395264 203.53515625 572.254882812 c 1
 253.517533197 605.289395309 247.245987813 633.4213835 306.18178841 659.950979352 c 1
 338.18178841 645.950979352 367.8359375 594.484375 350.852539062 539.2578125 c 1
 285.685546875 543.379882812 276.897282641 530.314010211 221.724609375 533.038085938 c 1
 268.747657623 492.724985228 292.5946445 511.228825523 337.969079664 461.097944706 c 1
 333.969079664 421.097944706 283.942382812 384.506835938 235.671875 382.821289062 c 1
 192.083007812 439.639648438 219.124654529 459.128706983 190.009765625 509.029296875 c 1
EndSplineSet
EndChar
StartChar: comma
Encoding: 44 44 46
Width: 200
VWidth: 1159
Flags: HW
LayerCount: 2
Fore
SplineSet
17 -168 m 1
 3 -134 l 1
 37 -128 110.699402838 -88.1560338418 88 -36 c 0
 75 -5 43.5301223747 16.0388209029 16 30 c 0
 9 32.3333333333 5 42.1666666667 5 50 c 3
 5 58.1428571429 9.11433397628 64.0571669881 17 67 c 0
 43 81 61.4645481291 105.442849936 78 129 c 0
 81.1111111111 136 89.5555555556 143 98 143 c 3
 106 143 115.189988138 135.889013671 118 128 c 0
 129.289473684 105 155.569170049 83.4769433169 181 67 c 0
 188 64 194 58 194 50 c 1
 194 47 217 -74 17 -168 c 1
EndSplineSet
Position2: "Extra space for context kern-1" dx=78 dy=0 dh=156 dv=0
Position2: "cpsp-1" dx=0 dy=0 dh=7 dv=14
EndChar
StartChar: period
Encoding: 46 46 48
Width: 200
VWidth: 1159
Flags: HW
LayerCount: 2
Fore
SplineSet
183.25 28.599609375 m 0
 155.529930321 13.677952258 131.770243877 -5.31332869989 117.25 -33.7998046875 c 0
 114.296361541 -40.7998046875 106.911750284 -45 98.0498046875 -45 c 3
 90.0503627232 -45 80.7162853423 -40.7998046875 78.0498046875 -33.7998046875 c 0
 63.5666974815 -5.31332869989 42.4999657107 13.677952258 14.849609375 28.599609375 c 0
 7.849609375 30.9002598377 5.0498046875 40.0996529708 5.0498046875 47 c 3
 5.0498046875 55.8619455963 7.849609375 63.2465568535 14.849609375 66.2001953125 c 0
 42.4999657107 80.912464899 63.5666974815 102.312530003 78.0498046875 130.400390625 c 0
 80.7162853423 137.400390625 90.0503627232 143 98.0498046875 143 c 3
 106.911750284 143 114.296361541 137.400390625 117.25 130.400390625 c 0
 131.770243877 102.312530003 155.529930321 80.912464899 183.25 66.2001953125 c 0
 190.25 63.2465568535 194.450195312 55.8619455963 194.450195312 47 c 3
 194.450195312 40.0996529708 190.25 30.9002598377 183.25 28.599609375 c 0
EndSplineSet
Position2: "Extra space for context kern-1" dx=78 dy=0 dh=156 dv=0
Position2: "cpsp-1" dx=0 dy=0 dh=7 dv=14
EndChar
StartChar: zero
Encoding: 48 48 1229
Width: 502
Flags: HW
LayerCount: 2
Fore
SplineSet
234 341 m 3
 199.584960938 341 188 291.559570312 188 260 c 3
 188 150.537109375 214.63671875 51 284 51 c 3
 315.587890625 51 327 90.98828125 327 135 c 3
 327 250.4375 305.633789062 341 234 341 c 3
260 388 m 3
 366.235384616 388 453 300.396658459 453 194 c 3
 453 90.6567749887 371.837998822 7 261 7 c 3
 149.949283379 7 61 91.3497106516 61 194 c 3
 61 297.899665537 152.655712995 388 260 388 c 3
EndSplineSet
Substitution2: "'zero' Slashed Zero lookup 22-1" zero.alt
Substitution2: "dnom-1" zero.denom
Substitution2: "numr-1" zero.numerator
Substitution2: "lnum-1" zero.proportionallining
Substitution2: "tnum-1" zero.tabulartext
EndChar
StartChar: one
Encoding: 49 49 64
Width: 371
VWidth: 1159
Flags: HW
LayerCount: 2
Fore
SplineSet
76 386 m 1
 139.27860881 381.885484376 247.517338102 382.83778125 315 396 c 1
 315 374 l 1
 263.307349398 361.538709677 264.374735715 343.989602554 259 320 c 0
 257.094726562 311.496 245 246.299 245 200 c 3
 245 149.261 256.921100253 74.0358900061 259 69 c 0
 271.438202247 37.9837398374 326.561797753 31.1803399852 321 34 c 1
 321 6 l 1
 233.866833448 12.4775390625 153.407952096 13.2900390625 66 6 c 1
 63 32 l 1
 48.3225806452 33.4717948718 102.202008704 39.32697108 127 73 c 0
 133.83147141 82.2764099962 147 102.4492 147 200 c 3
 147 292.507168635 138.638762369 312.628363024 136 318 c 0
 124.428571429 341.555555556 132.148857143 359.818111111 74 364 c 1
 76 386 l 1
EndSplineSet
Substitution2: "dnom-1" one.denom
Substitution2: "numr-1" one.numerator
Substitution2: "tnum-1" one.tabulartext
Substitution2: "lnum-1" one.proportionallining
EndChar
StartChar: two
Encoding: 50 50 65
Width: 445
VWidth: 1159
Flags: HW
LayerCount: 2
Fore
SplineSet
58 367 m 1
 84.217030084 414.314453125 122.99376166 458 190 458 c 3
 265.449275362 458 327 405 327 335 c 3
 327 248.063197026 181.057971014 128.323420074 168 109 c 1
 339 114 l 2
 390.496532409 113.952458298 413.697802198 132.652173913 418 147 c 1
 439 129 l 1
 439 129 373.484237074 31.4614325069 366 -22 c 1
 332.743169399 10 259.387180975 3.15985756639 187 4 c 0
 97 5 38 1 33 1 c 1
 27 18 l 1
 39.4120171674 72.338762215 215 157.070153853 215 315 c 3
 215 354.4625 180.395604396 376 148 376 c 3
 113.376344086 376 93.0537634409 365.384615385 78 353 c 1
 58 367 l 1
EndSplineSet
Substitution2: "dnom-1" two.denom
Substitution2: "numr-1" two.numerator
Substitution2: "tnum-1" two.tabulartext
Substitution2: "lnum-1" two.proportionallining
EndChar
StartChar: three
Encoding: 51 51 491
Width: 395
Flags: HW
LayerCount: 2
Fore
SplineSet
81 -199 m 1
 193.557655039 -140.550729499 226 -113.36139527 226 -13 c 3
 226 61.9999999999 177.769230769 111.945945947 138 131 c 1
 134.444444445 131 108.666666666 119.2 90 120 c 1
 78 151 l 1
 131.289473684 167.327868852 213 219.032786885 213 317 c 3
 213 363.661971831 177.43548387 368 164 368 c 3
 123.794097751 368 116.296296296 356.725 87 347 c 1
 77 369 l 1
 89.2351784634 409.626064421 169.8050256 448 204 448 c 3
 267.827272727 448 323 404.636363636 323 342 c 3
 323 270.530232559 223.118811881 189.627906977 219 186 c 1
 271.479338843 172.235761227 346 106.21686747 346 14 c 3
 346 -135.233333333 143.144144144 -220.941666667 93 -228 c 1
 81 -199 l 1
EndSplineSet
Substitution2: "dnom-1" three.denom
Substitution2: "numr-1" three.numerator
Substitution2: "tnum-1" three.tabulartext
Substitution2: "lnum-1" three.proportionallining
EndChar
StartChar: four
Encoding: 52 52 266
Width: 463
Flags: HW
LayerCount: 2
Fore
SplineSet
236 68.5 m 1
 236 130.945043103 249.6328125 199.788395322 232 242 c 1
 232 242 137.286953125 124.894455482 70 68.5 c 1
 236 68.5 l 1
347 413.5 m 1
 347.390008224 390.370117188 349.873765067 371.428133552 348 346.5 c 0
 340 240.06986532 339.01953125 188.683516479 332 68 c 1
 362.128433463 64.128964334 404.917847736 75.044946449 438 109.5 c 1
 438 109.5 454.3203125 102.83984375 459 100.5 c 1
 459 100.5 436.29624721 34.9245903201 420 -7 c 1
 390.381138393 3.79077148438 356.938536352 2.06811523438 332 2 c 1
 330 -29 332 -143 364 -169 c 1
 297.96 -195.880136986 260.706666667 -223.332191781 237 -252.5 c 1
 237 -252.5 210.029730903 -232.428351151 206 -223.5 c 1
 243.147058824 -195.334047109 232.25 -58 234 0 c 1
 88.6535615779 0 45.8804780876 1.17647058823 2 -20 c 1
 2 -20 -16.2053571429 -0.36254882813 -22 5 c 1
 -6.64338781575 21.1907942697 300.864772938 374.149911707 322.5 429.299804688 c 1
 347 413.5 l 1
EndSplineSet
Substitution2: "dnom-1" four.denom
Substitution2: "numr-1" four.numerator
Substitution2: "tnum-1" four.tabulartext
Substitution2: "lnum-1" four.proportionallining
EndChar
StartChar: five
Encoding: 53 53 254
Width: 362
Flags: HW
LayerCount: 2
Fore
SplineSet
95 393.5 m 1
 164.029580966 395.450195312 255.460635717 395.425009147 272 398.5 c 0
 292.824932392 402.759765625 303.625469501 428.610351562 313 448.5 c 1
 313 448.5 335.540364583 437.672712054 341 435.5 c 1
 308.726472077 386.856283426 293.762976153 278.730806193 278 280.5 c 0
 245.159940733 283.372070312 188.713954741 277.5 122 277.5 c 1
 122 277.5 120.877441406 243.431963075 120 216.5 c 1
 204.923076923 224.961538462 316 180.410595414 316 48.5 c 3
 316 -96.6894086516 152.909090909 -207.931688805 40 -217 c 1
 40 -217 40.509765625 -185.129211426 37 -178 c 1
 110.24137931 -181.355450237 214 -104.870658694 214 8 c 3
 214 57.0624133695 178.465714286 121.967741935 63 111 c 1
 75.16 176.507246377 90.34 290.163643973 95 393.5 c 1
EndSplineSet
Substitution2: "dnom-1" five.denom
Substitution2: "numr-1" five.numerator
Substitution2: "tnum-1" five.tabulartext
Substitution2: "lnum-1" five.proportionallining
EndChar
StartChar: six
Encoding: 54 54 69
Width: 487
Flags: HW
LayerCount: 2
Fore
SplineSet
376 625 m 1
 376 625 384.19921875 611.919921876 392 601 c 1
 259.993006993 525.282926829 194 431.496175915 194 274 c 3
 194 159.709743008 240.049183955 48 305 48 c 3
 331.301720163 48 340 67.7567940764 340 106 c 3
 340 220.865759719 306.973759232 303 254 303 c 3
 251.004836906 303 249 303 247 303 c 1
 240 340 l 1
 252.203006897 350.588109091 282.606882112 358 320 358 c 3
 381.824962963 358 442 271.518430209 442 178 c 3
 442 72.2079953984 340.024180882 -4 260 -4 c 3
 128.855799569 -4 74 136.379382885 74 214 c 3
 74 406.173375152 199.664132867 567.697668293 376 625 c 1
EndSplineSet
Substitution2: "dnom-1" six.denom
Substitution2: "numr-1" six.numerator
Substitution2: "tnum-1" six.tabulartext
Substitution2: "lnum-1" six.proportionallining
EndChar
StartChar: seven
Encoding: 55 55 70
Width: 420
Flags: HW
LayerCount: 2
Fore
SplineSet
95 429 m 1
 96.2666666667 406.656432748 120.211440407 398.635422708 128 398 c 0
 248.801325893 388.14453125 423.909090909 394 438 402 c 1
 438 402 442.759765624 387.80078125 449 380 c 1
 396 352 184 -74 188 -166 c 1
 188 -166 115.359375 -172.439453124 67 -174 c 1
 161.887057035 -28.169072165 221.6294607 67.2477029269 311 247 c 0
 317.195873294 259.461852258 306.994352321 277.161057996 292 280 c 0
 237.904154549 290.2421875 209.62153036 295.875916253 149 288 c 0
 74.7309096047 278.35100017 64.443858168 266.018181818 43 226 c 1
 43 226 23.48046875 234.880859376 11 238 c 1
 17.5217391304 251.450704225 63.0853579187 385.470007062 71 429 c 1
 95 429 l 1
EndSplineSet
Substitution2: "dnom-1" seven.denom
Substitution2: "numr-1" seven.numerator
Substitution2: "tnum-1" seven.tabulartext
Substitution2: "lnum-1" seven.proportionallining
EndChar
StartChar: greater
Encoding: 62 62 162
Width: 463
VWidth: 0
Flags: HW
LayerCount: 2
Fore
SplineSet
62 339.2 m 1
 116 412 l 1
 412 201 l 1
 70 -7 l 1
 52 24 l 1
 297 170.2 l 1
 62 339.2 l 1
EndSplineSet
Position2: "'case' vertical ajustments for all-caps-1" dx=0 dy=90 dh=0 dv=0
EndChar
StartChar: question
Encoding: 63 63 423
Width: 378
Flags: HW
LayerCount: 2
Fore
SplineSet
38 492.399804687 m 1
 41.9014688845 519.328017973 43.4736611293 542.380497476 43.4736611293 562.114468497 c 1
 43.4736611293 655.29013738 25.7406411468 675.684553005 25.7406411468 692.231460073 c 1
 25.7406411468 703.12914134 33.3515144789 697.658857614 54 699.6 c 1
 85.0365217391 636.480851064 91.4109432179 637.6 122 637.6 c 3
 206.092625698 637.6 301 560.899201803 301 444.800195313 c 3
 301 290.164765934 222.256616056 270.738628361 212 265.800195313 c 0
 158.621363636 239.800195312 131.212772727 230.737856973 126 191 c 1
 126 191 112.788 189.799804688 108 189.799804688 c 1
 101.553247403 226.531212661 95.7431640625 257.860439135 95.7431640625 287.9140625 c 3
 95.7431640625 339.904752178 103.657762667 402.800195313 156 402.800195313 c 3
 175.781641313 402.800195313 271 345.295890228 271 426.800195313 c 3
 271 470.05994862 211.666078562 489.970221086 74.7650980508 489.970221086 c 3
 63.9831662508 489.970221086 51.8320474111 490.744867372 38 492.399804687 c 1
EndSplineSet
Refer: 405 46 N 1 0 0 1 18 0 2
Position2: "cpsp-1" dx=0 dy=0 dh=50 dv=100
Substitution2: "smcp-1" question.smcp
Substitution2: "pcap-1" question.pcap
EndChar
StartChar: A
Encoding: 65 65 1243
Width: 748
Flags: HMW
HStem: -10 37<496.198 537.465 661.751 711.047> 245 42<258 448.657> 692 20G<369 416.5>
VStem: 371 43<632.023 712>
DStem2: 117 80 175 87 0.391141 0.920331<-3.53261 211.909 245.659 524.174> 428 642 486 236 0.354654 -0.934998<388.302 400.179 571.058 597.203>
AnchorPoint: "Bottom" 374 -15 basechar 0
AnchorPoint: "Ogonek" 559 27 basechar 0
AnchorPoint: "Top" 388 699 basechar 0
LayerCount: 2
Fore
SplineSet
258.936523438 262.078125 m 1
 291.470162493 254.346272182 386.978999734 256.550904366 429.59375 257.98046875 c 1
 404.08984375 328.172851562 382.747070312 385.323242188 343 452 c 1
 313.836914062 390.020507812 285.318359375 324.142578125 258.936523438 262.078125 c 1
422 -8.9794921875 m 1
 422 -8.9794921875 417.200195312 4.56640625 414 25 c 1
 456.329101562 33.712890625 492.754882812 64.7041015625 480.563476562 100.247070312 c 0
 465.80859375 143.262695312 461.770507812 159.688476562 447 198 c 1
 393.582101112 209.730189602 301.043734872 211.771705607 237 204 c 1
 223.108398438 170.885742188 207.052734375 137.04296875 203.0546875 118.518554688 c 0
 195.220703125 82.2158203125 221.1953125 39.015625 296 27 c 1
 293.5 -11.1337890625 l 1
 249.64453125 -4.138671875 175 0 111 0 c 3
 78 0 47.248046875 -1.3310546875 25 -3.9111328125 c 1
 25 -3.9111328125 23 19.150390625 22 31 c 1
 91.64453125 44.2490234375 113.047851562 97.96875 117.467773438 107.530273438 c 0
 210.196289062 308.107421875 282.659179688 462.831054688 345 636 c 0
 354 661 361 695 361.456054688 711 c 1
 418.65625 711 l 1
 419.897460938 683.991210938 425.697265625 659.284179688 430 644 c 0
 462.37109375 529 544.73828125 323.356445312 648.416992188 80.8017578125 c 0
 665.818359375 40.0908203125 711.481445312 30.4072265625 726 29 c 1
 726 29 724 13.541015625 722 -5.0830078125 c 1
 688.33984375 -1.6083984375 644 0 600 0 c 3
 529 0 456.455078125 -2.54296875 422 -8.9794921875 c 1
EndSplineSet
Position2: "cpsp-1" dx=0 dy=0 dh=50 dv=100
Substitution2: "c2pc-1" a.pcap
Substitution2: "c2sc-1" a.smcp
EndChar
StartChar: B
Encoding: 66 66 1250
Width: 610
Flags: HMW
HStem: -4 38<27 101.426 203.57 393.69> 349 30<193 332.635> 653 41<29 96.219 205.972 338.268>
VStem: 111 80<45.6349 349 379 533.879> 398 90<447.929 586.24> 469 90<100.26 258.491>
AnchorPoint: "Bottom" 292 -15 basechar 0
AnchorPoint: "Top" 259 699 basechar 0
LayerCount: 2
Fore
SplineSet
308 380 m 0
 343.801757812 388.729492188 377 431.5 377 483 c 3
 377 578.01953125 338.10546875 635 304 635 c 3
 300.016601562 635 288.572265625 636.798828125 283 634 c 0
 278.51171875 632.205078125 273.206054688 616.616210938 272 588 c 0
 268.727539062 514.65234375 266 378 266 378 c 1
 300.788085938 378 303.799804688 379.045898438 308 380 c 0
284 342 m 0
 262 342 l 1
 264 257.557617188 266.020507812 174.907226562 268 124 c 0
 269.413085938 88.1591796875 272.825195312 51.037109375 296 48 c 0
 300.35546875 47.4296875 320.444335938 47 332 47 c 3
 387.4921875 47 419 89.1943359375 419 171 c 3
 419 255 380.044921875 342 284 342 c 0
20 45 m 1
 47.859375 45 121 47.1064453125 121 89 c 0
 121 93.54296875 127 182.59375 127 288 c 3
 127 445.454101562 113.21484375 596.299804688 111 588 c 0
 109.318359375 581.84375 102.635742188 616.21875 82 625 c 0
 73.7802734375 628.498046875 23.375 637.599609375 15 639 c 1
 25 692 l 1
 35.76171875 692 80.8388671875 681 138 681 c 3
 194.90625 681 254.202148438 691 308 691 c 3
 474.862304688 691 519 578.954101562 519 521 c 3
 519 451.80859375 474.08203125 408.838867188 375 369.735351562 c 1
 479.192382812 354.497070312 575 263.481445312 575 177 c 3
 575 67.7998046875 473 -5 314 -5 c 3
 256.01953125 -5 202.934570312 0.3681640625 142 1 c 0
 79.279296875 1 31.44140625 -3 24 -3 c 1
 20 45 l 1
EndSplineSet
Position2: "cpsp-1" dx=0 dy=0 dh=50 dv=100
Substitution2: "c2pc-1" b.pcap
Substitution2: "c2sc-1" b.smcp
EndChar
StartChar: C
Encoding: 67 67 28
Width: 743
Flags: HW
AnchorPoint: "Bottom" 416 -15 basechar 0
AnchorPoint: "Top" 426 699 basechar 0
LayerCount: 2
Fore
SplineSet
36 341 m 3
 36 506.34781903 155.999826531 693 440 693 c 3
 505.974125 693 544.914065362 684.141902502 606 665 c 0
 648.960635461 651.537845409 637.89989011 684.7 663 686 c 1
 697 670 l 1
 657.972972973 608.386679848 659 570.39110188 659 547.799804688 c 0
 659 507.799804688 681 493.799804688 617 493.799804688 c 1
 607.506849315 504.122893919 592.534591673 539.351062807 554 577.799804688 c 0
 512.561324534 619.146160459 469.497395051 637 412 637 c 3
 307.847091837 637 218 550.798001048 218 381 c 3
 218 176.471094017 337.711804178 50 459 50 c 3
 539.77242623 50 592 144.615384615 669 214 c 1
 699 201 l 1
 688.758695652 141.075 679.655434783 107.925 666 48 c 1
 602.458846154 15.892888 513.798597285 -10 431 -10 c 3
 210.999530026 -10 36 136.495589744 36 341 c 3
EndSplineSet
Position2: "cpsp-1" dx=0 dy=0 dh=50 dv=100
Substitution2: "c2pc-1" c.pcap
Substitution2: "c2sc-1" c.smcp
EndChar
StartChar: D
Encoding: 68 68 1260
Width: 815
Flags: HW
HStem: -10 38<28.6316 94.6884> -7 44<172.868 476.195> 647 41<26 95.5059> 659 37<201.563 448.412>
VStem: 107.188 82.2977<49.5582 525.672> 668 94<221.047 461.211>
AnchorPoint: "Bottom" 370 -15 basechar 0
AnchorPoint: "Top" 370 699 basechar 0
LayerCount: 2
Fore
SplineSet
358 63 m 1
 522.485351562 63 615 178.801757812 615 334 c 3
 615 529.317382812 515.311523438 646 325 646 c 3
 327.25390625 646 317.44140625 644.778320312 313.5 643.900390625 c 0
 287 638 272.5 582.900390625 272.5 582.900390625 c 0
 266.5 473.182617188 268.788085938 350.090820312 268.788085938 236.322265625 c 3
 268.788085938 202.770507812 269.891601562 167.463867188 275 132 c 0
 275 114 293.390625 83.0224609375 319 73 c 0
 332.538085938 67.7021484375 342.411132812 63 358 63 c 1
25 689 m 29
 74.97265625 685 104.02734375 677 154 677 c 23
 240.965820312 677 289.0390625 697 376 697 c 3
 581.40234375 697 779 569.276367188 779 354 c 3
 779 69.1337890625 544.733398438 -1 352 -1 c 3
 278 -1 234.8984375 12 161 12 c 3
 75.4169921875 12 59.6953125 4 25 -4 c 13
 24 48 l 1
 40.5 54.3427734375 116.787109375 54.1845703125 119 95 c 1
 126.37890625 139.013671875 128.948242188 179.122070312 128.948242188 223.1171875 c 3
 128.948242188 376.385742188 119.443359375 536.891601562 108 598 c 1
 104.971679688 622.125 60.5 633.3046875 23 631 c 13
 25 689 l 29
EndSplineSet
Position2: "cpsp-1" dx=0 dy=0 dh=50 dv=100
Substitution2: "c2pc-1" d.pcap
Substitution2: "c2sc-1" d.smcp
EndChar
StartChar: E
Encoding: 69 69 1264
Width: 661
Flags: HW
AnchorPoint: "Bottom" 310 -15 basechar 0
AnchorPoint: "Ogonek" 549 15 basechar 0
AnchorPoint: "Top" 313 699 basechar 0
LayerCount: 2
Fore
SplineSet
33 683 m 1
 178.041992188 675.711914062 227.176757812 672.938476562 311.912109375 672.938476562 c 3
 475.7265625 672.938476562 543.950195312 681.373046875 577 689 c 1
 590.150390625 677.61328125 594.794921875 672.633789062 594.794921875 664.500976562 c 3
 594.794921875 649.040039062 582.204101562 622.23046875 575 520 c 1
 533 514 l 1
 531 530 525.48828125 574.818359375 509 587 c 0
 476.73828125 610.8359375 422.797851562 621.568359375 372.26953125 621.568359375 c 3
 345.68359375 621.568359375 320.041992188 618.596679688 299 613 c 0
 291.671875 611.05078125 282.443359375 570.305664062 282 567 c 0
 274 507.409179688 267 434.249023438 265 378 c 1
 301.83984375 382 417.9453125 381.927734375 426 384 c 0
 465.37890625 394.1328125 483.5 458.700195312 494 473 c 1
 538 459 l 1
 529.80078125 422.314453125 526.486328125 385.90625 526.486328125 349.5078125 c 3
 526.486328125 310.4375 530.305664062 271.377929688 536 232 c 1
 488 214 l 1
 466.5 276.700195312 469.96484375 302.641601562 426 320 c 0
 400.671875 330 318.53515625 328 265 330 c 1
 263 255.415039062 271.999023438 175.748046875 288 125 c 0
 292.137695312 111.876953125 309.684570312 81.880859375 311 81 c 0
 331.672851562 67.1591796875 351.379882812 64.060546875 374.392578125 64.060546875 c 1
 396.389648438 64.060546875 444.673828125 76.3955078125 471 93 c 0
 527.865234375 128.866210938 545.666992188 150.8828125 597 199 c 1
 630 191 l 1
 605.768554688 100.682617188 601.922851562 76.7529296875 589 6 c 1
 379.470703125 4.9091796875 358.283203125 12.1396484375 286.466796875 12.1396484375 c 3
 192.909179688 12.1396484375 157.36328125 7.10546875 39 -12 c 1
 25 26 l 1
 82.375 43.908203125 127 73.9248046875 127 109 c 1
 130.595703125 178.479492188 132.575195312 184.825195312 132.575195312 271.65625 c 3
 132.575195312 406.297851562 129.083984375 495.1328125 123 588 c 0
 121 618.52734375 99.31640625 618.536132812 23 645 c 1
 33 683 l 1
EndSplineSet
Position2: "cpsp-1" dx=0 dy=0 dh=50 dv=100
Substitution2: "c2pc-1" e.pcap
Substitution2: "c2sc-1" e.smcp
EndChar
StartChar: F
Encoding: 70 70 31
Width: 566
Flags: HW
HStem: -9 35<33 79.5176> 332 39<186 389.616> 654 31<17 81.7781> 680 20G<514.477 525.182>
VStem: 104.705 81.2945<84.0664 332 371 638.375> 451 36<246.75 303.707 394.284 440.094> 499 31<534 596.775>
AnchorPoint: "Bottom" 171 -15 basechar 0
AnchorPoint: "Top" 309 699 basechar 0
LayerCount: 2
Fore
SplineSet
409 -7 m 1
 344 -3 294 -1 244 -1 c 0
 181 -1 117 -4 19 -7 c 1
 14 40 l 1
 63 42 110 81 110 114 c 1
 112 132 113 169 113 215 c 3
 113 340 107 531 104 585 c 0
 102 623 78 623 9 650 c 1
 13 688 l 1
 70 683 135 681 199 681 c 3
 368 681 531 695 539 710 c 1
 549 699 554 698 554 671 c 1
 554 638 547 591 544 472 c 1
 506 466 l 1
 490 472 476 561 445 590 c 0
 404 628 342 634 287 625 c 0
 263 621 259 587 258 576 c 0
 250 503 252 433 252 365 c 1
 279 369 334 364 341 365 c 0
 386 375 399 428 413 471 c 1
 460 466 l 1
 454 429 451 393 451 356 c 0
 451 303 457 249 470 195 c 1
 419 183 l 1
 394 269 393 274 341 301 c 0
 322 311 290 309 250 311 c 1
 256 216 251 131 277 99 c 0
 281 93 322 43 411 43 c 1
 409 -7 l 1
EndSplineSet
Position2: "cpsp-1" dx=0 dy=0 dh=50 dv=100
Substitution2: "c2pc-1" f.pcap
Substitution2: "c2sc-1" f.smcp
EndChar
StartChar: G
Encoding: 71 71 1275
Width: 809
Flags: HW
AnchorPoint: "Bottom" 416 -15 basechar 0
AnchorPoint: "Top" 439 699 basechar 0
LayerCount: 2
Fore
SplineSet
33 355 m 3
 33 630.940429688 328 714 456 714 c 3
 528.1328125 714 585.299804688 698.98046875 633.578125 698.98046875 c 0
 647.397460938 698.98046875 651.4453125 703.321289062 656 713 c 1
 684 707 l 1
 700 532 l 1
 663 522 l 1
 577 614 490.904296875 662 410 662 c 3
 250.551757812 662 206 491.635742188 206 373 c 3
 206 189.849609375 362.645507812 40 513 40 c 3
 537.998046875 40 551.556640625 43.666015625 558 60 c 0
 565.314453125 78.54296875 571 117.23046875 571 122 c 0
 571 143.405273438 575 178.892578125 575 211 c 0
 575 265.109375 526 289 482 307 c 0
 479.13671875 308.171875 474 310 474 310 c 1
 476 350 l 1
 589.247070312 339.666992188 713.596679688 342 768 346 c 1
 771 322 l 1
 746.974609375 312.599609375 727.71875 299.107421875 725 265 c 0
 721 214.8125 717.416015625 171.951171875 715 133 c 0
 713.053710938 101.625 722.896484375 86.931640625 743 54 c 1
 735 36 l 1
 656 22.857421875 492 -10 438 -10 c 3
 237 -10 33 118.58203125 33 355 c 3
EndSplineSet
Position2: "cpsp-1" dx=0 dy=0 dh=50 dv=100
Substitution2: "c2pc-1" g.pcap
Substitution2: "c2sc-1" g.smcp
EndChar
StartChar: H
Encoding: 72 72 33
Width: 831
VWidth: 1159
Flags: HW
AnchorPoint: "Bottom" 419 -15 basechar 0
AnchorPoint: "Top" 427 699 basechar 0
LayerCount: 2
Fore
SplineSet
8 690 m 5
 72.802734375 684 130.288085938 681 193 681 c 5
 239.427734375 681 289.020507812 683 346 686 c 5
 347 636 l 5
 318.150390625 636 268.201692082 626.005383897 266 619 c 4
 255 584 249 462 248 362 c 5
 714.190429688 348 369.32421875 369 590 362 c 5
 588 427 590 533 574 598 c 4
 567.048385474 626.240934014 502.247070312 647 489 644 c 5
 490 690 l 5
 547.041992188 684 593.521484375 680 640 680 c 5
 694.404296875 680 749.85546875 685 821 697 c 5
 824 650 l 5
 774.666992188 650.727272727 753.970243127 636.806580326 750 611 c 4
 734 507 731 306 731 171 c 7
 731 121 735.821780866 73.9658979747 750 59 c 4
 768 40 805.125 32 822 35 c 5
 822 35 825 17 819 -11 c 5
 771.41015625 -4 722.762695312 0 672 0 c 5
 618.450195312 0 562.799804688 -3 504 -16 c 5
 504 -16 501 8 496 32 c 5
 523.703125 34 576.085775724 50.9634039468 578 68 c 4
 588 157 590 213 590 306 c 5
 457.211914062 316 530.770507812 314 248 306 c 5
 248 228 247.935660949 135.991527573 256 75 c 4
 260.36328125 42 342.181640625 39 352 39 c 5
 352 39 351 15 350 -13 c 5
 279.010742188 -4 218.461914062 1 160 1 c 5
 109.276367188 1 60.6669921875 -2 11 -11 c 5
 11 -11 10 12 8 44 c 5
 20.2568359375 42 84.5479196087 52.0271156953 86 68 c 4
 98 200 97 356 97 494 c 7
 97 543 92.6530718055 598.427201244 82 614 c 4
 69.6865234375 632 17.07421875 642 7 638 c 5
 8 690 l 5
EndSplineSet
Position2: "cpsp-1" dx=0 dy=0 dh=50 dv=100
Substitution2: "c2pc-1" h.pcap
Substitution2: "c2sc-1" h.smcp
EndChar
StartChar: I
Encoding: 73 73 1280
Width: 395
Flags: HW
AnchorPoint: "Bottom" 195 -15 basechar 0
AnchorPoint: "Ogonek" 262 9 basechar 0
AnchorPoint: "Top" 199 699 basechar 0
LayerCount: 2
Fore
SplineSet
44 690 m 1
 102.9375 681.55078125 149 681 196 681 c 3
 242 681 288.494140625 684.236328125 349 690 c 1
 351 646 l 1
 333 645 302 640 289 628 c 0
 274.822265625 615.464827658 270.518554688 438.400022907 270.518554688 332.649414062 c 3
 270.518554688 226.52934338 270.819335938 150.347487607 282 78 c 0
 286 51 339 36 357 35 c 1
 356 -8 l 1
 304.493164062 -3.0224609375 247 0 192 -0 c 3
 139 0 87.6328125 -2.833984375 45 -9 c 1
 38 34 l 1
 55 36 120 42 126 96 c 0
 133.094726562 157.660765943 134.915039062 269.374933053 134.915039062 348.857421875 c 3
 134.915039062 449.12631458 130.771484375 560.866797976 117 622 c 0
 114 636 56 645 40 647 c 1
 44 690 l 1
EndSplineSet
Position2: "cpsp-1" dx=0 dy=0 dh=50 dv=100
Substitution2: "c2pc-1" i.pcap
Substitution2: "c2sc-1" i.smcp
EndChar
StartChar: J
Encoding: 74 74 1284
Width: 394
Flags: HMW
AnchorPoint: "Bottom" 207 -138.8 basechar 0
AnchorPoint: "Top" 190 699 basechar 0
LayerCount: 2
Fore
SplineSet
106 598 m 0
 93.384765625 629.624023438 69 630 32 636 c 1
 36 692 l 1
 90.8076171875 687.704101562 134.452148438 685.84375 178.221679688 685.84375 c 3
 227.080078125 685.84375 287.114257812 687.534179688 341 692 c 1
 343 630 l 1
 321 627 286 623 282 602 c 0
 260.317382812 488.1640625 258 372.521484375 258 225 c 3
 258 66.111328125 279 2.5556640625 279 -50 c 3
 279 -98.3798828125 207.767578125 -149.063476562 121 -203 c 0
 84 -226 70.3330078125 -235.94140625 45 -251 c 1
 9 -206 l 1
 29.017578125 -196.138671875 45.9482421875 -186.529296875 62 -177 c 0
 67.306640625 -173.849609375 71.9560546875 -170.59375 76 -167 c 0
 140.138671875 -110 132 -3.3896484375 132 65 c 3
 132 101.8671875 120 562.905273438 106 598 c 0
EndSplineSet
Position2: "cpsp-1" dx=0 dy=0 dh=50 dv=100
Substitution2: "c2pc-1" j.pcap
Substitution2: "c2sc-1" j.smcp
EndChar
StartChar: K
Encoding: 75 75 1285
Width: 725
Flags: HW
AnchorPoint: "Bottom" 379 -15 basechar 0
AnchorPoint: "Top" 355 699 basechar 0
LayerCount: 2
Fore
SplineSet
384 685 m 1
 415.817382812 683.004882812 450.732421875 681.94921875 486.741210938 681.94921875 c 3
 532.625976562 681.94921875 580.921875 685.1015625 624 692 c 1
 637 643 l 1
 607 634 559.275390625 606.729492188 522 574 c 0
 440 502 390.673828125 440.165039062 338 372 c 1
 356 352 529.321289062 173.584960938 568 141 c 0
 626.479492188 91.734375 698 49 699 23 c 1
 693 -1 l 1
 665 1 626 4 598 4 c 3
 544.028320312 4 475.336914062 1 423 -4 c 1
 419 22 l 1
 431 27.3330078125 464 32 444 80 c 0
 434.841796875 101.98046875 314.568359375 225.674804688 252 296 c 1
 253 236.53125 258.592773438 165.639648438 263 122 c 0
 270.059570312 52.099609375 312.40234375 33 346 26 c 1
 342 -10 l 1
 279.924804688 -2.7998046875 216.399414062 1.8798828125 146.48828125 1.8798828125 c 3
 111.799804688 1.8798828125 75 -0.2001953125 35 -5 c 1
 32 37 l 1
 57 35 95.1201171875 48.8193359375 103 107 c 0
 114.130859375 189.184570312 119.513671875 279.130859375 119.513671875 367.184570312 c 3
 119.513671875 426.185546875 115.211914062 480.055664062 110 543 c 0
 103.5234375 621.211914062 84 638 32 650 c 1
 41 688 l 1
 76.66015625 683.541992188 114.108398438 681.66796875 151.662109375 681.66796875 c 3
 207.876953125 681.66796875 264.287109375 684.56640625 317 689 c 1
 320 649 l 1
 302.758789062 640 277.315429688 635.083984375 270 580 c 0
 260 504.701171875 252 432.98828125 252 355 c 1
 292.833007812 412.250976562 334.409179688 464.915039062 374 526 c 0
 386.68359375 545.569335938 410.115234375 588.598632812 417 607 c 0
 426.80078125 633.194335938 405.0703125 640.596679688 383 645 c 1
 384 685 l 1
EndSplineSet
Position2: "cpsp-1" dx=0 dy=0 dh=50 dv=100
Substitution2: "c2pc-1" k.pcap
Substitution2: "c2sc-1" k.smcp
EndChar
StartChar: L
Encoding: 76 76 1288
Width: 655
Flags: HW
AnchorPoint: "Bottom" 326 -15 basechar 0
AnchorPoint: "TopRight" 374.5 581 basechar 0
AnchorPoint: "Top" 183 699 basechar 0
LayerCount: 2
Fore
SplineSet
364 693 m 1
 368 635 l 1
 283.627929688 618.2109375 283.015625 611.146484375 277 519 c 0
 273.665039062 467.909179688 265.591796875 267.657226562 272 148 c 0
 272.58984375 136.984375 275.36328125 83.6982421875 341 79 c 0
 350.314453125 78.3330078125 396.723632812 80.0537109375 403 81 c 0
 512.862304688 97.56640625 550 127 580 206 c 1
 626 197 l 1
 631.053710938 143.977539062 602 93 586 -23 c 1
 560 -9 567.927734375 3.4814453125 512 0 c 0
 500.978515625 -0.6865234375 412 2 310 2 c 3
 95 2 60 -7 49 -7 c 1
 42 47 l 1
 81 52.6923828125 116 67.421875 116 97 c 0
 116 100.625 120 189.4375 120 300 c 3
 120 441.192382812 109.255859375 576.73046875 108 587 c 0
 104 619.700195312 75 640 38 628 c 1
 42 696 l 1
 82.373046875 686.141601562 127.59375 682.454101562 172.076171875 682.454101562 c 3
 241.03125 682.454101562 308.693359375 687.1640625 364 693 c 1
EndSplineSet
Position2: "cpsp-1" dx=0 dy=0 dh=50 dv=100
Substitution2: "c2pc-1" l.pcap
Substitution2: "c2sc-1" l.smcp
EndChar
StartChar: M
Encoding: 77 77 1293
Width: 1004
Flags: HW
AnchorPoint: "Bottom" 499 -15 basechar 0
AnchorPoint: "Top" 515 699 basechar 0
LayerCount: 2
Fore
SplineSet
961 1 m 1
 926.43359375 7.7802734375 887.954101562 11.51171875 846.930664062 11.51171875 c 3
 777.8046875 11.51171875 749.567382812 7.2822265625 698 -2 c 1
 692 50 l 1
 695 48 741 100 744 186 c 0
 755.7109375 284.328125 749.22265625 383.895507812 729 472 c 1
 664.005859375 376.8671875 604.92578125 275.6640625 562 164 c 0
 541.966796875 118.302734375 540 77 527 9 c 1
 471 9 l 1
 470 99 462.038085938 131.021484375 445 162 c 2
 269 482 l 1
 242 390.767578125 230.154296875 288.932617188 237 186 c 0
 245.34765625 60.482421875 288.256835938 59 329 48 c 1
 322 -10 l 1
 275.78125 -4.0029296875 220.93359375 0.2109375 163.666015625 0.2109375 c 3
 119.555664062 0.2109375 73.890625 -2.72265625 30 -10 c 1
 28 48 l 1
 107 50 144.327148438 101.891601562 149 170 c 2
 172 469 l 2
 174.390625 514.975585938 165 543 147 584 c 0
 127.458984375 617.75390625 104 627 31 635 c 1
 45 699 l 1
 132.977539062 687.692382812 217.311523438 677.619140625 319 685 c 0
 341.84765625 686.557617188 340.209960938 672.8671875 344 661 c 0
 390.176757812 530.185546875 446.249023438 404.201171875 543 298 c 1
 743 681 l 0
 748 690 757.079101562 694.796875 763 693 c 0
 828.327148438 682 893.8515625 686 957 691 c 1
 962 634 l 1
 904 629 871.619140625 605.940429688 871 517 c 0
 867.412109375 402.16015625 869.469726562 288.391601562 879 178 c 0
 885.904296875 74 926.80859375 48 962 63 c 1
 961 1 l 1
EndSplineSet
Position2: "cpsp-1" dx=0 dy=0 dh=50 dv=100
Substitution2: "c2pc-1" m.pcap
Substitution2: "c2sc-1" m.smcp
EndChar
StartChar: N
Encoding: 78 78 1296
Width: 906
Flags: HW
AnchorPoint: "Bottom" 469 -15 basechar 0
AnchorPoint: "Top" 465 699 basechar 0
LayerCount: 2
Fore
SplineSet
52 690 m 1
 109.909479749 686.5 187.339665686 678.431966515 248 683 c 0
 263.04296875 684.1328125 264.823683289 679.73571406 271 672 c 0
 401.984815618 507.944118924 546.453362256 366.475079572 715 243 c 1
 724.629882812 304.198314525 728 365.397750289 728 429 c 3
 728 476.649375 728 523.78083343 728 573 c 0
 728 640.581632653 655 645.489795918 635 647 c 1
 639 692 l 1
 694.51953125 685.562106045 741.298828125 683.263671875 785.271484375 683.263671875 c 3
 814.165039062 683.263671875 841.846679688 684.370117188 870 686 c 1
 875 642 l 1
 851 636 815.898749468 636.620077051 809 583 c 0
 787.333007812 414.594726562 783 235.303710938 783 55 c 0
 783 36.01171875 788 2.98828125 793 -16 c 1
 746 -26 l 1
 739.801757812 0.569272050234 702.322863222 29.4281856098 677 57 c 0
 535.370457048 211.207817505 387.962830396 351.180825145 229 493 c 1
 229 493 214.297731619 271.440168375 210 130 c 0
 207.404704179 50.7435553604 278.861111111 35.7311163651 321 33 c 1
 315 -11 l 1
 273.695333629 -2.830078125 233.894216168 0.03515625 196.1484375 0.03515625 c 3
 147.280273438 0.03515625 102.106445312 -5.4853515625 62 -10 c 1
 55 33 l 1
 85.2428571429 34 123.234677557 51.4726544359 128 116 c 0
 135.51231145 217.724389629 144.631835938 388.572589839 144.631835938 430.331054688 c 3
 144.631835938 468.495329716 143.082528893 531.367148822 141 545 c 0
 134.998761059 584.28588825 74 645.2109375 50 646 c 1
 52 690 l 1
EndSplineSet
Position2: "cpsp-1" dx=0 dy=0 dh=50 dv=100
Substitution2: "c2pc-1" n.pcap
Substitution2: "c2sc-1" n.smcp
EndChar
StartChar: O
Encoding: 79 79 40
Width: 845
VWidth: 1159
Flags: HW
AnchorPoint: "Horn" 713.5 573 basechar 0
AnchorPoint: "Middle" 423.697 364.853 basechar 0
AnchorPoint: "Bottom" 422 -15 basechar 0
AnchorPoint: "Ogonek" 486 11 basechar 0
AnchorPoint: "Top" 426 699 basechar 0
LayerCount: 2
Fore
SplineSet
354 615 m 7
 271.611707775 615 205 554.280170066 205 420 c 7
 205 234.798831897 340.46632 64 468 64 c 7
 565.198066667 64 624 174.021894967 624 298 c 7
 624 455.342724045 502.064640884 615 354 615 c 7
428 689 m 7
 635.000298343 689 802 531.097817665 802 338 c 7
 802 150.83382535 643.999766667 -1 430 -1 c 7
 215.999648 -1 43 149.877968525 43 338 c 7
 43 525.390237603 218.000469169 689 428 689 c 7
EndSplineSet
Position2: "cpsp-1" dx=0 dy=0 dh=50 dv=100
Substitution2: "c2pc-1" o.pcap
Substitution2: "c2sc-1" o.smcp
EndChar
StartChar: P
Encoding: 80 80 1310
Width: 620
Flags: HW
AnchorPoint: "Bottom" 186 -15 basechar 0
AnchorPoint: "Top" 318 699 basechar 0
LayerCount: 2
Fore
SplineSet
280 290 m 3
 348.9375 290 434 346.735351562 434 451 c 3
 434 541.993164062 405.616210938 587.755859375 393 608 c 0
 380.201171875 628.536132812 351.0234375 651 328 651 c 3
 300.307617188 651 279.745117188 625.708007812 280 606 c 0
 280.920898438 534.693359375 278 412.994140625 276 290 c 1
 277 290 278.75390625 290 280 290 c 3
39 687 m 1
 65 685 99 683 138 683 c 3
 209 683 248 694 319 694 c 3
 484 694 588 579 588 467 c 3
 588 337.053710938 461.497070312 244 319 244 c 0
 282 242 l 1
 285.713867188 188.290039062 292.53515625 115.657226562 295 105 c 0
 307 53.111328125 346 54.599609375 403 51 c 1
 401 -10 l 1
 316.05859375 -5.7431640625 257.233398438 3.8349609375 193.423828125 3.8349609375 c 3
 146.48828125 3.8349609375 96.68359375 -0.1728515625 30 -11 c 1
 18 42 l 1
 103.559570312 66.20703125 129.845703125 76.037109375 133 110 c 0
 136.407226562 146.68359375 138.34375 188.865234375 138.34375 233.623046875 c 3
 138.34375 344.706054688 131.91015625 455.872070312 125 574 c 0
 123.010742188 608 83 629 35 629 c 1
 39 687 l 1
EndSplineSet
Position2: "cpsp-1" dx=0 dy=0 dh=50 dv=100
Substitution2: "c2pc-1" p.pcap
Substitution2: "c2sc-1" p.smcp
EndChar
StartChar: Q
Encoding: 81 81 1315
Width: 785
Flags: HW
AnchorPoint: "Middle" 390.697 364.853 basechar 0
AnchorPoint: "Top" 393 699 basechar 0
AnchorPoint: "Bottom" 341 -15 basechar 0
LayerCount: 2
Fore
SplineSet
367 650 m 3
 278.494140625 650 215 554.23046875 215 415 c 3
 215 235.971679688 291.805664062 67 415 67 c 3
 515.403320312 67 561 168.330078125 561 311 c 3
 561 543.053710938 471.061523438 650 367 650 c 3
563 54 m 1
 688.860351562 -52.7744140625 795.356445312 -102 867 -102 c 0
 870 -102 l 1
 872 -139 l 1
 806.859375 -158.93359375 768.8125 -163 749 -163 c 3
 621.163085938 -163 497.483398438 -101.5 379 1 c 1
 178.360351562 14.4287109375 43 166.405273438 43 361 c 3
 43 566.274414062 198 690 389 690 c 3
 581 690 741 550.391601562 741 363 c 3
 741 223.681640625 627.734375 87.5654296875 563 54 c 1
EndSplineSet
Position2: "cpsp-1" dx=0 dy=0 dh=50 dv=100
Substitution2: "salt-1" Q.alt
Substitution2: "c2pc-1" q.pcap
Substitution2: "c2sc-1" q.smcp
EndChar
StartChar: R
Encoding: 82 82 1317
Width: 764
Flags: HMW
AnchorPoint: "Bottom" 375 -15 basechar 0
AnchorPoint: "Top" 302 699 basechar 0
LayerCount: 2
Fore
SplineSet
254 372 m 1
 267.913085938 369.75 281.086914062 367 299 367 c 3
 364.783203125 367 421 412.913085938 421 491 c 3
 421 527.907226562 380.673828125 645 288 645 c 3
 275.413085938 645 272.990234375 642.11328125 261 565 c 0
 251.387695312 505.040039062 250.333007812 432.611328125 254 372 c 1
30 693 m 1
 64.3603515625 692 90.6396484375 691 160 691 c 0
 245.592773438 691 255.48046875 707 318 707 c 0
 456.473632812 707 571 619.4296875 571 513 c 0
 571 426 480 355.374023438 439 337 c 1
 564.426757812 151.4921875 636.654296875 18.8876953125 761 17 c 1
 751 -33 l 1
 548.2109375 -37.69140625 337 174.731445312 292 301 c 1
 280 303 l 0
 271.409179688 304.599609375 266.590820312 305.400390625 258 307 c 1
 262.200195312 235.1953125 264.951171875 186.432617188 279 123 c 0
 290.266601562 73.7880859375 325 59 355 55 c 1
 343 -10 l 1
 279.670898438 -0.8583984375 245.697265625 3.9462890625 152.78515625 3.9462890625 c 3
 115.670898438 3.9462890625 78.4423828125 0.396484375 41 -7 c 1
 32 52 l 1
 62.3193359375 38.0146484375 91.27734375 55.609375 99 102 c 1
 109.262695312 212.84375 113.5234375 287.365234375 113.5234375 360.943359375 c 3
 113.5234375 416.959960938 110.294921875 472.342773438 105 548 c 1
 94.2529296875 617.921875 73.810546875 641.274414062 30 643 c 1
 30 693 l 1
EndSplineSet
Position2: "cpsp-1" dx=0 dy=0 dh=50 dv=100
Substitution2: "salt-1" R.alt
Substitution2: "c2pc-1" r.pcap
Substitution2: "c2sc-1" r.smcp
EndChar
StartChar: S
Encoding: 83 83 1320
Width: 600
Flags: HW
AnchorPoint: "Bottom" 303 -15 basechar 0
AnchorPoint: "Top" 325 699 basechar 0
LayerCount: 2
Fore
SplineSet
51 209 m 1
 82 215 l 1
 82.732421875 222.748046875 100.92578125 189.010742188 134 150 c 0
 170.650390625 106.771484375 269.986328125 59.2783203125 329.359375 59.2783203125 c 3
 375.998046875 59.2783203125 407 93.3232421875 407 144 c 3
 407 255.940429688 280.889648438 278.627929688 193 327.078125 c 0
 150.088867188 350.733398438 84 394.344726562 84 488 c 3
 84 565.599609375 134 704 326 704 c 3
 371.411132812 704 411.842539739 694.789365065 427 691 c 0
 451 685 474 668 485 702 c 1
 528 694 l 1
 521 640.412109375 524.989257812 603.840820312 535 559 c 0
 539.641601562 538.053710938 534 502 490 516 c 1
 486.315429688 528.915039062 474 556 463 569.53125 c 0
 426.91796875 613.916015625 366.669921875 652 300 652 c 3
 297.431640625 652 219 655.12109375 219 556 c 3
 219 467.922851562 306.5234375 469.541992188 387 424 c 0
 503.6796875 357.969726562 545 287.473632812 545 197 c 3
 545 112.811523438 490 -4 298 -4 c 3
 251.330610795 -4 198.679421165 6.8544921875 156 18 c 0
 139.09765625 22.0703125 139.724609375 21.49609375 122 -14 c 1
 80 -6 l 1
 81.0361328125 70.46875 77.9287109375 90.41796875 51 209 c 1
EndSplineSet
Position2: "cpsp-1" dx=0 dy=0 dh=50 dv=100
Substitution2: "c2pc-1" s.pcap
Substitution2: "c2sc-1" s.smcp
EndChar
StartChar: T
Encoding: 84 84 1322
Width: 746
Flags: HMW
AnchorPoint: "Bottom" 369 -15 basechar 0
AnchorPoint: "Top" 369 699 basechar 0
LayerCount: 2
Fore
SplineSet
136 688 m 0
 261.176757812 683.9765625 386.315429688 682.171875 511.827148438 682.171875 c 3
 560.487304688 682.171875 609.192382812 684 658 684 c 0
 674.841796875 684 690.631835938 691.200195312 698 702 c 1
 730 682 l 1
 713.454101562 630.1953125 693.36328125 572.633789062 691 505 c 1
 640 513 l 1
 645 525 642.942382812 534.7109375 646 550 c 0
 655.186523438 595.930664062 523 607 462 608 c 1
 453.633789062 493.740234375 450.127929688 381.28125 450.127929688 266.856445312 c 3
 450.127929688 233.224609375 450.495117188 199.236328125 451 165 c 0
 452.424804688 68.412109375 454.991210938 59.9697265625 534 58 c 1
 524 -7 l 1
 485.745117188 -1.662109375 436.211914062 0.9453125 385.875 0.9453125 c 3
 283.048828125 0.9453125 258.969726562 -3.1162109375 214 -11 c 1
 200 60 l 1
 282 67.1298828125 279.393554688 94.3251953125 282 118 c 0
 289.083007812 182.344726562 297.55859375 325.784179688 297.55859375 444.01953125 c 3
 297.55859375 521.913085938 293.473632812 588.279296875 282 610 c 1
 243.532226562 611.5 207.5703125 604.633789062 169 597 c 0
 101.99609375 583.739257812 89.6259765625 592.26953125 58 515 c 1
 8 535 l 1
 29 586.536132812 59.4501953125 690.928710938 71 720 c 1
 84 699 122.989257812 688.41796875 136 688 c 0
EndSplineSet
Position2: "cpsp-1" dx=0 dy=0 dh=50 dv=100
Substitution2: "c2pc-1" t.pcap
Substitution2: "c2sc-1" t.smcp
EndChar
StartChar: U
Encoding: 85 85 1328
Width: 845
Flags: HW
AnchorPoint: "Horn" 743 544 basechar 0
AnchorPoint: "Bottom" 431 -15 basechar 0
AnchorPoint: "Ogonek" 501 11 basechar 0
AnchorPoint: "Top" 452 699 basechar 0
LayerCount: 2
Fore
SplineSet
31 689 m 1
 67.7373046875 685.5 126.82421875 683.75 189.125 683.75 c 3
 255.099609375 683.75 324.479492188 685.5 377 689 c 1
 381 641 l 1
 326.90625 636.95703125 278.622070312 631.27734375 280 548 c 0
 280.158203125 540.622070312 269 280.359375 269 252 c 0
 269 206.739257812 287.845703125 166 313 140 c 0
 351.64453125 100.055664062 392.1875 74 506 74 c 3
 534.006835938 74 586 90 611 118 c 0
 650.604492188 162.356445312 652.0078125 193.97265625 654 257 c 0
 656.758789062 344.2734375 654.560546875 488.208984375 649 574 c 0
 645.244140625 639.787109375 596.142578125 647.713867188 538 637 c 1
 538 692 l 1
 579.805664062 687.877929688 666.583007812 684.796875 739.796875 684.796875 c 3
 779.94140625 684.796875 814.893554688 686.299804688 829 690 c 1
 831 637 l 1
 794.102539062 647.7578125 754.560546875 644.021484375 747 594 c 0
 745 583.612304688 741.119140625 472.204101562 740 255 c 0
 739.583007812 173.989257812 711.556640625 119.176757812 670 74 c 0
 616.6484375 16 537.66796875 -10 423 -10 c 3
 310.936523438 -10 257.135742188 14.3642578125 214 44 c 0
 155.779296875 84 119 153.143554688 119 213 c 0
 119 241.483398438 123.900390625 536.603515625 124 551 c 0
 124.340820312 614.466796875 105.322265625 622.485351562 26 633 c 1
 31 689 l 1
EndSplineSet
Position2: "cpsp-1" dx=0 dy=0 dh=50 dv=100
Substitution2: "c2pc-1" u.pcap
Substitution2: "c2sc-1" u.smcp
EndChar
StartChar: V
Encoding: 86 86 1344
Width: 853
Flags: HW
AnchorPoint: "Bottom" 423 -15 basechar 0
AnchorPoint: "Top" 437 704 basechar 0
LayerCount: 2
Fore
SplineSet
352 694 m 1
 352 691.064453125 352 666.280273438 352 646 c 1
 340 646 324.380859375 644.784179688 304 644 c 0
 252 642 268.33984375 605.731445312 277 589 c 2
 483 191 l 1
 625 569 l 2
 637.133789062 600.938476562 636.104492188 645 589 645 c 0
 575 645 531 645 529 642 c 1
 530 698 l 1
 565.908203125 690.913085938 680.852539062 687.84375 722.180664062 687.84375 c 3
 768.32421875 687.84375 811.206054688 691.669921875 836 698 c 1
 841 636 l 1
 833 655 777 635 719 544 c 0
 693.012695312 510.009765625 543.224609375 220.640625 476 60 c 0
 465.797851562 33.6474609375 465 8 461 -27 c 1
 393 -27 l 1
 394 6 384.607421875 21.8115234375 372 58 c 0
 331.185546875 174.115234375 235.455078125 368.294921875 110 574 c 0
 73.2998046875 640.646484375 40 646 12 643 c 1
 17 696 l 1
 82.0771484375 688.555664062 94.83984375 686.072265625 125.685546875 686.072265625 c 3
 194.428710938 686.072265625 286.317382812 693.067382812 352 694 c 1
EndSplineSet
Position2: "cpsp-1" dx=0 dy=0 dh=50 dv=100
Substitution2: "c2pc-1" v.pcap
Substitution2: "c2sc-1" v.smcp
EndChar
StartChar: W
Encoding: 87 87 1345
Width: 1138
Flags: HW
AnchorPoint: "Bottom" 581 -15 basechar 0
AnchorPoint: "Top" 582 699 basechar 0
LayerCount: 2
Fore
SplineSet
1124 693 m 1
 1133 644 l 1
 1044 596.646484375 1033.93652344 537.348632812 952 333 c 0
 861 129 820.801757812 67.9951171875 809 42 c 0
 798.012695312 19.205078125 793.095703125 8 790 -15 c 1
 744 -17 l 1
 742.200195312 11.486328125 741.689453125 20.3671875 725 59 c 0
 679.640625 164 642.306640625 269 593 374 c 1
 505 211 437.456054688 56.400390625 427 22 c 0
 422.154296875 2.4541015625 418.692382812 -2.2041015625 418 -21 c 1
 371 -21 l 1
 363.22265625 8.818359375 358.655273438 47.9052734375 319 143 c 0
 243.428710938 337.767578125 143.528320312 491.344726562 138 500 c 0
 124.854492188 520.581054688 117.962890625 534.702148438 81 588 c 0
 55.482421875 624.794921875 31 632.8828125 8 636 c 1
 14 695 l 1
 45 686 96.25 682 148.375 682 c 3
 200.5 682 289.5 686 324 693 c 1
 335 648 l 1
 308 647 279 635.0625 279 581 c 0
 279 562.485351562 290.93359375 510.5 299 494 c 2
 453 179 l 1
 562 433 l 1
 497.857421875 572.75 452.736328125 606.124023438 446 613 c 1
 430 625 410 639 392 650 c 1
 401 690 l 1
 440.575195312 684.958007812 501.709960938 682.4375 552.876953125 682.4375 c 3
 597.887695312 682.4375 687.01171875 685.958007812 727 693 c 1
 731 647 l 1
 726 647 711.506835938 647.6484375 707 647 c 0
 639.653320312 637.31640625 645.736328125 599.509765625 654 579 c 2
 814 188 l 1
 833 231 851.991210938 265.87109375 892 398 c 0
 936 543.310546875 947 655 830 651 c 1
 830 688 l 1
 856.424804688 684.754882812 930.735351562 682.583984375 971.65234375 682.583984375 c 3
 1018.99511719 682.583984375 1072.50488281 685.490234375 1124 693 c 1
EndSplineSet
Position2: "cpsp-1" dx=0 dy=0 dh=50 dv=100
Substitution2: "c2pc-1" w.pcap
Substitution2: "c2sc-1" w.smcp
EndChar
StartChar: X
Encoding: 88 88 1346
Width: 808
Flags: HW
AnchorPoint: "Bottom" 395 -15 basechar 0
AnchorPoint: "Top" 388 699 basechar 0
LayerCount: 2
Fore
SplineSet
37 685 m 1
 81.99609375 682.979492188 115.556640625 681.795898438 145.969726562 681.795898438 c 3
 217.796875 681.795898438 277.893554688 684.743164062 375 692 c 1
 376 649 l 1
 374 649 367.98046875 649.076171875 364 648 c 0
 327 638 332.213867188 608.522460938 340 583 c 0
 358 524 387.6171875 469.639648438 416 420 c 1
 433 444 454.657226562 497.643554688 464 521 c 0
 494 596 500.3828125 633.99609375 449 640 c 0
 436.087890625 641.508789062 427.900390625 643.529296875 416 644 c 1
 426 691 l 1
 481.412109375 685.66015625 537.780273438 681.869140625 594.181640625 681.869140625 c 3
 638.370117188 681.869140625 682.5859375 683.83203125 726 689 c 1
 728 643 l 1
 708.036132812 639.666992188 690.086914062 621.544921875 606 558 c 0
 590.486328125 546.276367188 468 422 438 384 c 1
 484.555664062 329.247070312 627.681640625 160.879882812 642 145 c 0
 708.846679688 70.86328125 713.3203125 66.4072265625 777 51 c 1
 766 -2 l 1
 737.157226562 3.8525390625 696.607421875 6.5595703125 653.845703125 6.5595703125 c 3
 564.154296875 6.5595703125 468.00390625 1.3115234375 404 -8 c 1
 401 34 l 1
 411 34 420.041992188 33.8642578125 433 38 c 0
 480 53 456.650390625 113.150390625 445 142 c 0
 431.682617188 174.978515625 413.8359375 224.572265625 373 281 c 1
 330.678710938 226.678710938 308.052734375 169.473632812 294 132 c 0
 270 68 274.189453125 43.0810546875 316 38 c 0
 345.9296875 34.36328125 346 32 346 32 c 1
 347 -6 l 1
 277.5390625 -2.912109375 217.40234375 -0.619140625 158.59375 -0.619140625 c 3
 120.782226562 -0.619140625 83.7763671875 -2.66015625 43 -8 c 1
 41 35 l 1
 58 60 86.55078125 61.201171875 162 122 c 0
 175.732421875 133.065429688 264 228 345 326 c 1
 198 512 141.096679688 579.168945312 132 587 c 0
 76.505859375 628.5390625 57 640 36 647 c 1
 37 685 l 1
EndSplineSet
Position2: "cpsp-1" dx=0 dy=0 dh=50 dv=100
Substitution2: "c2pc-1" x.pcap
Substitution2: "c2sc-1" x.smcp
EndChar
StartChar: Y
Encoding: 89 89 1348
Width: 756
Flags: HW
AnchorPoint: "Bottom" 396 -15 basechar 0
AnchorPoint: "Top" 398 699 basechar 0
LayerCount: 2
Fore
SplineSet
364 647 m 1
 364 647 346.935546875 644.947265625 340 644 c 0
 325.36328125 642 300.723632812 630.765625 305 618 c 0
 355.861328125 492.575195312 419.828125 409.15625 423 405 c 1
 448.688476562 468.5 472.913432207 529.237013327 474 532 c 0
 509 621 495.138671875 628.288085938 465 639 c 0
 453.193582054 643.196247763 442.80859375 644 439 645 c 1
 441 688 l 1
 464.158203125 684.34375 579.314453125 682.572265625 639.046875 682.572265625 c 3
 677.328125 682.572265625 714.61328125 684.532226562 740 690 c 1
 739 646 l 1
 714 643 654 629 594 554 c 0
 549.778915587 498.723644483 496.6953125 433.065429688 470 362 c 1
 466 337 466 214 478 105 c 0
 488.149837699 46.6890378359 523.011402027 38.0830078125 556 32 c 1
 549 -11 l 1
 494.359375 -3.572265625 444.296875 0.771484375 394.099609375 0.771484375 c 3
 346.420898438 0.771484375 298.625976562 -2.833984375 247 -11 c 1
 240 32 l 1
 298.253165409 39.7197265625 318.661774844 53.1367646186 323 143 c 2
 330 288 l 1
 325 320 266 446 142 582 c 0
 106.060435623 621.417586737 68.6796875 629.909179688 16 649 c 1
 21 692 l 1
 56.171875 688.297851562 124.467773438 684.21484375 185.244140625 684.21484375 c 3
 222.96484375 684.21484375 333.788085938 686.787109375 356 690 c 1
 364 647 l 1
EndSplineSet
Position2: "cpsp-1" dx=0 dy=0 dh=50 dv=100
Substitution2: "c2pc-1" y.pcap
Substitution2: "c2sc-1" y.smcp
EndChar
StartChar: Z
Encoding: 90 90 1349
Width: 741
Flags: HW
AnchorPoint: "Bottom" 374 -15 basechar 0
AnchorPoint: "Top" 383 699 basechar 0
LayerCount: 2
Fore
SplineSet
24 531 m 1
 95.0576171875 665.154296875 46.5712890625 714 104 723 c 1
 121.979917868 703.189453125 134.796687646 692.714774395 150 689 c 0
 182.565431606 681.04296875 544.310063384 678.317272194 652 685.533203125 c 0
 662.958007812 686.258789062 671.18359375 687.630859375 676 689 c 1
 688 652 l 1
 669.573242188 628.099609375 l 0
 260 50 l 1
 271.615234375 47 283.384765625 46 295 46 c 0
 472.848632812 46 656 137.14453125 678 197 c 1
 717 177 l 1
 678 73.5 659.3515625 22.7861328125 639 -27 c 1
 602.782226562 -16.111328125 574 1 520 1 c 3
 372.479796235 1 104 -0.315557017932 57 -6 c 1
 43 36 l 1
 68.109375 51.947265625 95.458984375 83.650390625 115 110 c 0
 236.944335938 274.431640625 361.125 452.3046875 473 624 c 0
 475 628 l 1
 203 627 l 2
 153.886365628 626.811825156 74.0531850962 511.709960938 63 507 c 1
 24 531 l 1
EndSplineSet
Position2: "cpsp-1" dx=0 dy=0 dh=50 dv=100
Substitution2: "c2pc-1" z.pcap
Substitution2: "c2sc-1" z.smcp
EndChar
StartChar: asciicircum
Encoding: 94 94 395
Width: 463
VWidth: 1159
Flags: HW
LayerCount: 2
Fore
SplineSet
381.126953124 401.1953125 m 1
 349.7734375 377.90234375 l 1
 232.3125 526.5546875 l 1
 113.8515625 377.90234375 l 1
 82.498046875 401.1953125 l 1
 205.333984376 694.005859376 l 1
 260.291015624 694.005859376 l 1
 381.126953124 401.1953125 l 1
EndSplineSet
EndChar
StartChar: a
Encoding: 97 97 0
Width: 433
Flags: HMW
AnchorPoint: "Bottom" 208 -15 basechar 0
AnchorPoint: "Ogonek" 368 18 basechar 0
AnchorPoint: "Top" 206 465 basechar 0
LayerCount: 2
Fore
SplineSet
234 174 m 1
 228.05078125 174 213.953125 174.22265625 208 174 c 1
 191.306640625 172.615234375 157.598632812 162.850585938 152 156 c 0
 139.131835938 140.251953125 140 124.5546875 140 106 c 3
 140 88.931640625 163.143554688 64 184 64 c 3
 199.224609375 64 225.567382812 72.3837890625 232 75 c 1
 231 83.7998046875 231 97.3388671875 231 108 c 3
 231 130.686523438 233.80078125 154.200195312 234 174 c 1
235 410 m 3
 251.440429688 410 334.095703125 363.462890625 344 351 c 0
 352.08984375 340.8203125 353 317.428710938 353 304 c 3
 353 232.870117188 348 160.973632812 348 92 c 3
 348 80.818359375 350.557617188 67.1220703125 356 62 c 0
 366.0859375 52.5078125 378.909179688 52 384 52 c 3
 390.666992188 52 404.000976562 54.142578125 414 57 c 1
 421 16 l 1
 368.15234375 1.06640625 313.607421875 -12 281 -12 c 3
 265.75390625 -12 242 5.2294921875 233 51 c 1
 189.89453125 18.869140625 142.043945312 -12 95 -12 c 3
 57.015625 -12 30 22.21484375 30 64 c 3
 30 95.2080078125 37.12109375 124.458007812 44 141 c 0
 48.1845703125 151.063476562 61.55078125 162.491210938 72 167 c 0
 156.82421875 204.302734375 186.891601562 199.291992188 238 216 c 1
 241 269 l 3
 241 307 211.000976562 332.8671875 202 339 c 0
 192.638671875 345.377929688 182.913085938 348 179 348 c 0
 168 342.5 l 3
 168 332.25390625 174.490234375 317.466796875 175 312 c 1
 65 265 l 1
 58.599609375 270.619140625 49 304.375 49 317.5 c 3
 49 328.939453125 57.1953125 338.580078125 78.5 351 c 0
 158.58203125 397.686523438 217.989257812 410 235 410 c 3
EndSplineSet
Substitution2: "case-1" A
Substitution2: "pcap-1" a.pcap
Substitution2: "smcp-1" a.smcp
EndChar
StartChar: b
Encoding: 98 98 164
Width: 507
Flags: HMW
AnchorPoint: "Bottom" 248 -15 basechar 0
AnchorPoint: "Top" 104 749 basechar 0
LayerCount: 2
Fore
SplineSet
187 340 m 1
 188 263 186 218 186 141 c 3
 186 127 193 109 202 97 c 0
 223 76 248 63 274 63 c 3
 329 63 361 99 361 150 c 3
 361 241 323 344 220 344 c 3
 206 344 190 341 187 340 c 1
-1 686 m 1
 68 696 115 724 201 759 c 1
 221 737 l 1
 215 717 204 686 201 667 c 0
 197 643 187 444 187 381 c 1
 223 394 258 406 306 406 c 3
 404 406 475 319 475 236 c 3
 475 103 333 -3 201 -3 c 3
 162 -3 152 7 137 7 c 3
 98 7 78 -5 70 -10 c 1
 56 3 l 1
 56 3 61 14 62 21 c 0
 68 49 75 62 76 145 c 0
 78 288 80 367 80 510 c 3
 80 584 74 597 70 608 c 0
 57 642 46 650 11 650 c 3
 7 650 -1 650 -3 650 c 1
 -1 686 l 1
EndSplineSet
Substitution2: "case-1" B
Substitution2: "pcap-1" b.pcap
Substitution2: "smcp-1" b.smcp
EndChar
StartChar: c
Encoding: 99 99 2
Width: 421
Flags: HMW
AnchorPoint: "Bottom" 228 -15 basechar 0
AnchorPoint: "Top" 231 465 basechar 0
LayerCount: 2
Fore
SplineSet
297 273 m 1
 260.838627422 290.428229665 211.354509687 320 179 320 c 3
 156.943948954 320 146 313.828542504 146 267 c 3
 146 176.440298246 186.566246769 68 310 68 c 3
 333.810676259 68 353.958244604 75.5 368 83 c 1
 386 50 l 1
 350.444561151 21.5789529412 288.744892086 -10 226 -10 c 3
 177.989684211 -10 32 -7.54462012922 32 178 c 3
 32 305.824475114 164.858255814 413 271 413 c 3
 319 413 368.000131148 391.604210526 399 367 c 1
 397 313 407 337 297 273 c 1
EndSplineSet
Substitution2: "case-1" C
Substitution2: "pcap-1" c.pcap
Substitution2: "smcp-1" c.smcp
EndChar
StartChar: d
Encoding: 100 100 196
Width: 517
Flags: HMW
AnchorPoint: "Bottom" 238 -15 basechar 0
AnchorPoint: "Top" 404 734 basechar 0
AnchorPoint: "TopRight" 517.5 581 basechar 0
LayerCount: 2
Fore
SplineSet
209 339 m 3
 195.438476562 339 174.319335938 333.7421875 164 325 c 0
 145.428710938 309.266601562 138 285.803710938 138 266 c 3
 138 171.549804688 196.994140625 75 307 75 c 3
 316.885742188 75 327.353515625 82 328 89 c 1
 330 144.991210938 333 203.252929688 332 260 c 1
 332 319.645507812 271 331.072265625 248 336 c 0
 241.814453125 337.325195312 219.806640625 339 209 339 c 3
327 35 m 1
 301 10.685546875 245.70703125 1 195 1 c 3
 95 1 32 82.15234375 32 172 c 3
 32 250.2890625 88.109375 321.28125 138 355 c 0
 182.13671875 384.830078125 236.135742188 399 265 399 c 3
 282.96875 399 323.9375 393.631835938 334 393 c 1
 334 505.741210938 332.19921875 548.96875 325 592 c 0
 322.772460938 605.317382812 308.837890625 637 292 637 c 3
 283.512695312 637 273.11328125 637 270 638 c 1
 261 667 l 1
 329.302734375 681.51171875 387.311523438 702.244140625 450 752 c 1
 472 735 l 1
 468.866210938 720.4609375 462.515625 692.340820312 461 681 c 0
 443.29296875 548.546875 439 352.314453125 439 185 c 3
 439 148.129882812 445 77 454 65 c 1
 456 59.6640625 465.366210938 56 470 56 c 1
 485.415039062 56.5 504.811523438 58 515 60 c 1
 517 24 l 1
 443.673828125 6.3994140625 357.615234375 -26 343 -26 c 3
 339.32421875 -26 336.46484375 -22.6796875 333 -20 c 0
 328.095703125 -15.365234375 327 32.3525390625 327 35 c 1
EndSplineSet
Substitution2: "case-1" D
Substitution2: "pcap-1" d.pcap
Substitution2: "smcp-1" d.smcp
EndChar
StartChar: e
Encoding: 101 101 4
Width: 409
Flags: HMW
AnchorPoint: "Bottom" 213 -15 basechar 0
AnchorPoint: "Ogonek" 306.65 23 basechar 0
AnchorPoint: "Top" 217 465 basechar 0
LayerCount: 2
Fore
SplineSet
217 410 m 3
 297.361221499 410 340.360979018 357.789092141 357 333 c 0
 378.545803055 300.900701744 385.544191919 293.1875 394 292 c 1
 394 268 l 1
 318.723552375 257.585440875 226.620331815 239.638376168 154 221.5 c 1
 154 221.026493069 154 220.473506931 154 220 c 3
 154 110.9875 229.440701754 67 284 67 c 3
 318.746213836 67 342.088069182 81.6666774194 361 97 c 1
 388 62 l 1
 344.772314465 30.5440806452 283.017433962 -9 212 -9 c 3
 82.375067033 -9 29 88.4565738422 29 181 c 3
 29 330.003355667 158.572265821 410 217 410 c 3
183 350 m 3
 174.524884825 350 157.866666667 326.420246436 154 246.5 c 1
 255 264 l 0
 262 265.5 l 1
 251.1318621 302.849059077 218.297586847 350 183 350 c 3
EndSplineSet
Substitution2: "case-1" E
Substitution2: "pcap-1" e.pcap
Substitution2: "smcp-1" e.smcp
EndChar
StartChar: f
Encoding: 102 102 249
Width: 357
Flags: HMW
AnchorPoint: "Bottom" 156 -15 basechar 0
AnchorPoint: "Top" 262 748 basechar 0
LayerCount: 2
Fore
SplineSet
398 755 m 3
 414.607476636 755 470 749 497 725 c 1
 495 685 474 674.16796875 398 622 c 1
 377.438476562 635.142578125 333.814814815 669 298 669 c 3
 158.790094965 669 240.620507678 567.024780335 237 503 c 0
 235.627908318 479.127390104 231 434.386138614 229 393 c 1
 272.390728476 397 311.609271524 397 355 401 c 1
 355 333 l 1
 311.210526316 337 270.789473684 339 227 343 c 1
 225 317.477611941 225 294.754097591 225 286 c 3
 225 212.577405858 229.928183619 144.162780189 237 72 c 0
 238.971141164 51.8859276216 251.041721529 41.7636604292 272 40 c 0
 297.464423865 38 321.315068494 38 347 38 c 1
 345 -7 l 1
 287.25 -2 204.75 0 147 0 c 3
 108.509433962 0 49.4905660377 -3 11 -7 c 1
 10 38 l 1
 19.1666666667 38 29.1725006376 40.0255207412 40 41 c 0
 81.7945679672 45.2583333333 87.3770888661 61.96952818 93 99 c 0
 100.806002588 144.40998264 107 202.783783784 107 259 c 3
 107 276.745406871 105 309.936170213 105 343 c 1
 76.6216216218 341 49.3783783784 335 21 333 c 1
 21 401 l 1
 49.3783783784 399 76.6216216218 395 105 393 c 1
 105 435.65625 105 484.875 105 498 c 3
 105 603.952606635 156.983557145 654.774877978 244 705 c 0
 299.501542102 736.806178316 330.696296296 755 398 755 c 3
EndSplineSet
Substitution2: "salt-1" f.alt
Substitution2: "case-1" F
Substitution2: "pcap-1" f.pcap
Substitution2: "smcp-1" f.smcp
EndChar
StartChar: g
Encoding: 103 103 276
Width: 475
Flags: HMW
AnchorPoint: "Bottom" 225 -318 basechar 0
AnchorPoint: "Top" 224 465 basechar 0
LayerCount: 2
Fore
SplineSet
167 349 m 3
 156.522022727 349 147 321.741153846 147 287 c 3
 147 178.757144035 212 110 244 99 c 1
 256.682146207 111.292917548 263 138.477378435 263 184 c 3
 263 267.025235179 230.56448 349 167 349 c 3
80 -179 m 3
 80 -215.615536273 177.148106383 -221 235 -221 c 3
 259.112615094 -221 374 -212.359169231 374 -140 c 3
 374 -118.390500551 346.410430769 -105 302 -105 c 3
 275.318 -105 247.682 -115 221 -115 c 3
 190.577169231 -115 159.028061538 -111.6667 141 -105 c 1
 87.4252639344 -126.142939021 80 -140.644058823 80 -179 c 3
189 18 m 3
 189 4.165625 200.627969604 -1 211 -1 c 3
 242 -1 270.908965344 11 300 11 c 3
 395.000323077 11 442 -45.8992581818 442 -94 c 3
 442 -246.376785184 288.505890566 -329 165 -329 c 3
 72.1322170213 -329 12 -273.205300219 12 -233 c 3
 12 -140.639705882 90.721442623 -84.5220588235 104 -74 c 1
 82.575 -56.6714474845 60.45456625 -25.4878447815 55 4 c 1
 86 30 150.937186942 48.6518518519 172 60 c 1
 86.7872340426 73.8323353293 37 136.00036832 37 225 c 3
 37 350.042076923 189.028068182 407 225 407 c 3
 265.805782178 407 300.565079208 393.315789474 338 367 c 1
 368.278235294 371 395.380682265 379 430 379 c 3
 443.5 379 460.6 376 466 372 c 1
 438 277 l 1
 415.287898781 290 380.885245902 308.058823529 371 310 c 0
 368 310 l 1
 378.555779591 286.169885496 387 239.934465649 387 230 c 3
 387 132.405023256 285.248972114 90.5944155813 227 58 c 0
 190.588688387 37.6252984473 189 28.8729598818 189 18 c 3
EndSplineSet
Substitution2: "case-1" G
Substitution2: "pcap-1" g.pcap
Substitution2: "smcp-1" g.smcp
EndChar
StartChar: h
Encoding: 104 104 292
Width: 531
Flags: HMW
AnchorPoint: "Top" 120 733 basechar 0
AnchorPoint: "Bottom" 275 -15 basechar 0
LayerCount: 2
Fore
SplineSet
191 328 m 1
 189.5 289.037878788 186 235.448649643 186 189 c 3
 186 139.624669725 192.384322418 94.5728212209 197 76 c 0
 203.276180135 50.7455558721 218.000819557 41.023930354 226 38 c 0
 230.621862921 36.2527970611 245.894736842 36 253 36 c 1
 250 -8 l 1
 203.27027027 -2.07663917805 171.454757024 3 117 3 c 3
 86.0625 3 48.9375 -2 18 -6 c 1
 16 31 l 1
 19.5357142857 31.8 19.2294118933 30.9191426057 25 33 c 0
 47.4958365581 44.7623037924 56.1262707078 58.7526625975 65 103 c 0
 74.0209727936 147.981542005 80 217.863636364 80 274 c 3
 80 480.704123476 75.3175358103 562.602409048 74 581 c 0
 71.849423678 614.032852308 60.3333333334 643 34 643 c 3
 28.4285714286 643 23.0857142857 643 16 642 c 1
 8 683 l 1
 77.1096774193 694.301369863 156.851612903 725.068493151 214 758 c 1
 233 738 l 1
 227.857142857 726.153846154 222.46555301 703.101421 221 694 c 0
 199.888888889 562.895148278 192.111111111 474.658682635 191 361 c 1
 247.763313609 398.82 327.01775148 422 372 422 c 3
 427.473684211 422 467.449596054 385.21544188 468 301 c 0
 468.132753405 280.687851542 469 234.695238095 469 183 c 3
 469 133.953488372 468 86.6279069767 468 72 c 0
 468 50.1818181818 484.929724432 41.9700573192 493 40 c 0
 497.386413055 38.6183491112 517.260869565 37 524 37 c 1
 522 -8 l 1
 477.897196262 1 448.495327103 3 401 3 c 3
 365 3 330.2 -2 299 -8 c 1
 300 34 l 1
 311.37037037 33.8 317.045954135 33.8432599087 323 36 c 0
 342.107254017 42.9212400621 350.820631512 65.623978839 357 114 c 0
 357.983008101 121.695611744 359 135.752403121 359 142 c 3
 359 186.6875 356.489166668 247.899224439 352 272 c 0
 343.558991558 317.316840524 334.209302326 348 286 348 c 3
 224.580838902 348 207.351706037 335 191 328 c 1
EndSplineSet
Substitution2: "case-1" H
Substitution2: "pcap-1" h.pcap
Substitution2: "smcp-1" h.smcp
EndChar
StartChar: k
Encoding: 107 107 313
Width: 511
UnlinkRmOvrlpSave: 1
Flags: HMW
AnchorPoint: "Top" 116.881 739 basechar 0
AnchorPoint: "Bottom" 260.881 -15 basechar 0
LayerCount: 2
Fore
SplineSet
176.880859375 235 m 1
 192.122070312 247.637695312 210.23046875 264.614257812 228.880859375 281 c 0
 247.513671875 297.370117188 273.880859375 322.482421875 273.880859375 337 c 3
 273.880859375 367.280273438 267.592773438 367.471679688 243.880859375 368 c 1
 245.880859375 401 l 1
 280.44921875 399 326.880859375 399 362.880859375 399 c 3
 444.935546875 399 452.880859375 399 483.880859375 403 c 1
 485.880859375 370 l 1
 428.639648438 357.544921875 325.84765625 289.43359375 274.880859375 257 c 2
 263.880859375 250 l 1
 326.5859375 187.359375 390.907226562 124.44921875 452.880859375 63 c 1
 466.880859375 50.314453125 522.459960938 21.69921875 508.880859375 26 c 1
 506.880859375 -7 l 1
 466.370117188 -2.7998046875 444.880859375 0 394.880859375 0 c 3
 361.880859375 0 326.141601562 -4.6669921875 292.880859375 -6 c 1
 289.880859375 27 l 1
 312.09375 30.75 312.09375 35.099609375 318.880859375 36 c 1
 283.236328125 82.5830078125 224.157226562 152.444335938 183.880859375 193 c 1
 180.880859375 192 l 1
 180.880859375 132.924804688 182.026367188 74.708984375 192.880859375 53 c 0
 196.880859375 45 211.500976562 34.3828125 213.880859375 32 c 0
 219.447265625 26.4248046875 225.645507812 26 233.880859375 26 c 1
 230.880859375 -10 l 1
 189.72265625 -4.5458984375 166.72265625 0 115.880859375 0 c 3
 80.568359375 0 38.193359375 -4.6669921875 2.880859375 -6 c 1
 0.880859375 27 l 1
 9.130859375 26.599609375 15.18359375 25.958984375 24.880859375 30 c 0
 53.3935546875 41.8828125 63.609375 56.25 67.880859375 105 c 0
 71.76953125 149.383789062 74.880859375 218.530273438 74.880859375 274 c 3
 74.880859375 514.795898438 73.58203125 570.357421875 70.880859375 600 c 0
 68.83984375 623.466796875 56.58984375 644 21.880859375 644 c 3
 19.83203125 644 7.2958984375 644.780273438 7.880859375 645 c 1
 -0.119140625 677 l 1
 67.4130859375 688.602539062 144.036132812 720.13671875 199.880859375 754 c 1
 220.880859375 734 l 1
 215.73828125 722.692382812 210.649414062 700.861328125 208.880859375 692 c 0
 193.642578125 615.6640625 176.880859375 361.208984375 176.880859375 235 c 1
EndSplineSet
Substitution2: "smcp-1" k.smcp
Substitution2: "pcap-1" k.pcap
Substitution2: "case-1" K
EndChar
StartChar: l
Encoding: 108 108 318
Width: 256
Flags: HMW
AnchorPoint: "Bottom" 121 -15 basechar 0
AnchorPoint: "TopRight" 244 581 basechar 0
AnchorPoint: "Top" 123 734 basechar 0
LayerCount: 2
Fore
SplineSet
184 300 m 3
 184 217 190.064453125 78.8916015625 201 51 c 0
 204.944335938 40.9404296875 214.760742188 31.4248046875 221 30 c 0
 230.017578125 27.9404296875 247.25 25 256 25 c 1
 253 -8 l 1
 213.063476562 -3.63671875 162.534179688 0 125 0 c 3
 80.2724609375 0 36.810546875 -3.888671875 2 -7 c 1
 0 26 l 1
 11 27.06640625 27.5068359375 28.2529296875 37 33 c 0
 47 38 58.671875 61.3623046875 62 93 c 0
 67 140.53515625 70 214.580078125 70 274 c 3
 70 512.625 67.81640625 584.124023438 66 606 c 0
 65.2509765625 614.776367188 54.3330078125 648 26 648 c 3
 19.6962890625 648 13.0400390625 648.5 8 649 c 1
 6 682 l 1
 68.064453125 692.849609375 139.676757812 720.465820312 191 754 c 1
 216 736 l 1
 215.422851562 727.96484375 208.830078125 695.060546875 207 686 c 0
 192.43359375 611 184 424 184 300 c 3
EndSplineSet
Substitution2: "case-1" L
Substitution2: "pcap-1" l.pcap
Substitution2: "smcp-1" l.smcp
EndChar
StartChar: m
Encoding: 109 109 336
Width: 765
Flags: HMW
AnchorPoint: "Bottom" 391 -15 basechar 0
AnchorPoint: "Top" 390 465 basechar 0
LayerCount: 2
Fore
SplineSet
707 152 m 3
 707 110.280273438 710.258789062 71.787109375 713 59 c 0
 716.611328125 42.1552734375 731.956054688 32.638671875 739 29 c 0
 742.362304688 27.263671875 754.918945312 26.599609375 759 25 c 1
 753 -9 l 1
 717.611328125 -1.63671875 692.770507812 0 655 0 c 3
 618.255859375 0 572.532226562 -4.5458984375 541 -10 c 1
 537 23 l 1
 544.21875 24.2001953125 553.581054688 25.0068359375 558 26 c 0
 564.6796875 27.5009765625 578.7734375 36.1904296875 581 45 c 0
 585.538085938 62.95703125 596 62.8818359375 596 169 c 3
 596 211.477539062 597.616210938 255.737304688 586 286 c 0
 576.369140625 311.08984375 567.739257812 330 526 330 c 3
 508.043945312 330 474.551757812 319.422851562 452 305 c 1
 453 301.65234375 453 298.248046875 453 294 c 3
 453 243.333984375 449 198.713867188 449 149 c 3
 449 110.627929688 450.653320312 70.5224609375 453 59 c 0
 456 44.2724609375 478.323242188 26.8369140625 486 25 c 0
 489.517578125 24.158203125 496.713867188 23 501 23 c 1
 496 -10 l 1
 452.073242188 -1.818359375 436 0 389 0 c 3
 354 0 305.245117188 -4.5458984375 275 -10 c 1
 272 23 l 1
 280.243164062 23 283.801757812 24.5263671875 293 28 c 0
 304.180664062 32.22265625 325.32421875 50.666015625 328 66 c 0
 333.25 96.0888671875 337 139.89453125 337 192 c 3
 337 226.375 334.002929688 262.350585938 326 292 c 0
 320.689453125 311.674804688 306.420898438 332 283 332 c 3
 255.450195312 332 228.372070312 327 196 300 c 1
 192.944335938 222.651367188 189 108.918945312 189 74 c 3
 189 44.638671875 212.905273438 27.578125 229 24 c 0
 231.987304688 23.3359375 235.631835938 23.2001953125 238 23 c 1
 235 -10 l 1
 202.438476562 -6.36328125 160.24609375 0 115 0 c 3
 83 0 44.1875 -4.4443359375 12 -8 c 1
 10 25 l 1
 16.6787109375 26.6005859375 19.5517578125 27.6533203125 27 29 c 0
 47.99609375 32.7958984375 66.5693359375 46.365234375 68 64 c 0
 70.470703125 93.5830078125 71 157.243164062 71 190 c 3
 71 208.126953125 73.1416015625 271.078125 66 289 c 0
 55.5283203125 315.280273438 37.5751953125 318 22 318 c 3
 17.2353515625 318 14.2255859375 318 13 318 c 1
 16 350 l 1
 64.3388671875 358.884765625 112.677734375 363.9609375 178 416 c 1
 203 398 l 1
 198.333007812 382.53515625 199.333007812 360.197265625 197 337 c 1
 226.188476562 367 296.643554688 415 352 415 c 3
 407.849609375 415 442.713867188 375.92578125 450 338 c 1
 486.719726562 365.077148438 540.385742188 402 611 402 c 3
 679.897460938 402 708 350.169921875 708 303 c 3
 708 239.861328125 707 203.731445312 707 152 c 3
EndSplineSet
Substitution2: "case-1" M
Substitution2: "pcap-1" m.pcap
Substitution2: "smcp-1" m.smcp
EndChar
StartChar: o
Encoding: 111 111 14
Width: 505
VWidth: 1159
Flags: HW
AnchorPoint: "Middle" 256 206 basechar 0
AnchorPoint: "Bottom" 250 -15 basechar 0
AnchorPoint: "Ogonek" 342 19.6582 basechar 0
AnchorPoint: "Horn" 421.5 341.8 basechar 0
AnchorPoint: "Top" 252 465 basechar 0
LayerCount: 2
Fore
SplineSet
257 416 m 7
 392 416 473 311.028037383 473 208 c 7
 473 79.2361707516 378.566986895 -11 255 -11 c 7
 130.558486523 -11 32 67.4 32 185 c 7
 32 346.186305164 167 416 257 416 c 7
218 359 m 7
 187.098152958 359 160 315.180598516 160 253 c 7
 160 156.297695896 217.998013903 43 280 43 c 7
 322.26124878 43 347 99.5882030956 347 160 c 7
 347 299.918397959 255.596212885 359 218 359 c 7
EndSplineSet
Substitution2: "case-1" O
Substitution2: "pcap-1" o.pcap
Substitution2: "smcp-1" o.smcp
EndChar
StartChar: p
Encoding: 112 112 398
Width: 534
Flags: HMW
AnchorPoint: "Bottom" 286 -15 basechar 0
AnchorPoint: "Top" 251 465 basechar 0
LayerCount: 2
Fore
SplineSet
226 335 m 3
 197.368913043 335 196.371884058 324.4045 199 313 c 1
 207 81 l 1
 235.562550944 50.3636960486 267.587924057 45 310 45 c 3
 377.515283478 45 394 81.5179971495 394 139 c 3
 394 247.206169062 327.245531117 335 226 335 c 3
95 22 m 3
 95 127.232378382 85 230.747245283 79 248 c 1
 70.1111111111 282.417218015 46.550215012 298 23 298 c 3
 15.9770491803 298 11.6941176471 298 5 298 c 1
 0 332 l 1
 46.794104232 340.479261538 118.882388715 370.760369231 172 418 c 1
 197.75 417.434404969 196 412.521774535 199 355 c 1
 231.319744745 377.34025 276.418243243 405 314 405 c 3
 419.41002664 405 502 305.102708927 502 215 c 3
 502 75.8990302232 374.405006583 -13 250 -13 c 3
 234.67813986 -13 219.851153846 -11.411806383 207 -16 c 1
 207 -92.0824563785 206.615918975 -251.806265048 217 -286 c 0
 221 -298.586193548 241.699651126 -306.388714569 249 -307 c 0
 269.329654104 -308.702277738 296.1424 -311 315 -313 c 1
 315 -345 l 1
 256.723 -344 219.206518983 -342 162 -342 c 3
 119.7777 -342 52.2223 -347 10 -351 c 1
 8 -322 l 1
 20.8333333333 -322 31.3068755421 -321.262296671 43 -317 c 0
 59.8261 -310.866666667 70.9866346685 -288.426981932 77 -260 c 0
 87 -210.625977778 95 -123.272822222 95 22 c 3
EndSplineSet
Substitution2: "case-1" P
Substitution2: "pcap-1" p.pcap
Substitution2: "smcp-1" p.smcp
EndChar
StartChar: q
Encoding: 113 113 421
Width: 501
Flags: HMW
AnchorPoint: "Bottom" 225 -15 basechar 0
AnchorPoint: "Top" 279 465 basechar 0
LayerCount: 2
Fore
SplineSet
331 72 m 1
 332.77734375 137.37890625 335 174.3359375 335 239 c 3
 335 248.723751905 332.534097999 270.309324834 325 286 c 0
 299.971679688 328.420487253 250.719726562 337 209 337 c 3
 179.212016859 337 156 295.200195312 156 249 c 3
 156 154.524414062 188.524414062 59 303 59 c 3
 322.134314903 59 325.39873798 60.744140625 331 72 c 1
329 20 m 1
 303.332957474 10.7998046875 263.667042526 -3 217 -3 c 3
 112 -3 32 91.9052734375 32 181 c 3
 32 300.244140625 151 401 292 401 c 3
 374.412548829 401 379.050732421 374 407 374 c 3
 426.546275745 374 446.973455256 400.25 456 409 c 1
 484 391 l 1
 481.272460938 385.947265625 477.712777635 382.463478544 474 375 c 0
 464.49609375 355.895112136 459.371472544 334.306799414 448 254 c 0
 444.71484375 230.799804688 447 132.086914062 447 93 c 3
 447 -116.109727561 451.367339558 -196.572194587 457 -230 c 0
 461.767658813 -260.27990039 482.50392438 -290.399545789 499 -291 c 0
 509.106445312 -291.34375 531 -295 538 -295 c 1
 536 -329 l 1
 507.424029402 -328 465.18220718 -327 413 -327 c 3
 371.424804688 -327 278.575195312 -332 237 -336 c 1
 236 -303 l 1
 245.862304688 -302.25 252.207051964 -301.58313595 262 -300 c 0
 285.637695312 -296.352405895 314.027562811 -265.410126721 321 -237 c 0
 327.6171875 -208.753451575 329 -84.2375774924 329 20 c 1
EndSplineSet
Substitution2: "case-1" Q
Substitution2: "pcap-1" q.pcap
Substitution2: "smcp-1" q.smcp
EndChar
StartChar: r
Encoding: 114 114 438
Width: 413
Flags: HMW
AnchorPoint: "Bottom" 150 -15 basechar 0
AnchorPoint: "Top" 170.5 465 basechar 0
LayerCount: 2
Back
SplineSet
190 181 m 7
 190 150.372070312 200.466796875 82.3466796875 213 68 c 4
 232.9609375 46.052734375 254.063476562 40.4296875 289 38 c 4
 299.184570312 37.2626953125 310.958007812 38 320 37 c 5
 318 -3 l 5
 264.725585938 -2 166.372070312 1 109 1 c 7
 74.3330078125 1 39.6669921875 -4 5 -8 c 5
 5 34 l 5
 18.75 34.7138671875 33.7333984375 35.5966796875 45 41 c 4
 56.20703125 46 65.333984375 69.2060546875 70 92 c 4
 74 111.541992188 76 182.762695312 76 203 c 7
 76 214.807617188 75.8359375 234.0859375 71 252 c 4
 65.7158203125 272.909179688 51.10546875 296 27 296 c 7
 14.5029296875 296 14 296 4 296 c 5
 2 340 l 5
 53.576171875 347.36328125 127.454101562 379.973632812 186 421 c 5
 194.888671875 415.869140625 206 414.099609375 206 398 c 7
 206 386.728515625 201 339.938476562 197 301 c 5
 230.8828125 329 316 407 322 421 c 5
 340.0546875 420 385 382.763671875 385 340 c 7
 385 278 350 243 272 243 c 5
 262.842773438 284.672851562 246.625 286 241 286 c 7
 237.299804688 286 193.078125 254.03125 193 253 c 4
 191 226.686523438 190 196.612304688 190 181 c 7
EndSplineSet
Fore
SplineSet
202 181 m 3
 202 147.932617188 211.740234375 74.2158203125 224 59 c 0
 241.344726562 37.4736328125 258.5546875 31.1318359375 288 29 c 0
 298.184570312 28.2626953125 309.958007812 28 319 28 c 1
 318 -3 l 1
 267.784179688 -2.25 175 0 121 0 c 3
 86 0 51.6669921875 -2.2216796875 17 -4 c 1
 17 27 l 1
 30.75 27.7138671875 45.5888671875 28.9091796875 57 34 c 0
 68.20703125 39 77.6005859375 62.1533203125 82 85 c 0
 86 105.774414062 88 181.486328125 88 203 c 3
 88 214.807617188 87.5458984375 262.010742188 83 280 c 4
 77.7158203125 300.909179688 63.10546875 324 39 324 c 7
 28.6767578125 324 28.2607421875 324 20 324 c 5
 18 355 l 5
 68.455078125 362.36328125 140.7265625 394.973632812 198 436 c 5
 206.888671875 430.869140625 218 429.099609375 218 413 c 7
 218 401.728515625 213 354.938476562 209 316 c 5
 237 353 307 419 325 425 c 5
 369 438.021484375 407 397.763671875 407 355 c 7
 407 302.961914062 365 263.754882812 305 245 c 5
 290 286.258789062 267.133789062 301 253 301 c 7
 247 301 204.942382812 273 204 257 c 4
 202.4453125 230.616210938 202 196.612304688 202 181 c 3
EndSplineSet
Substitution2: "case-1" R
Substitution2: "pcap-1" r.pcap
Substitution2: "smcp-1" r.smcp
EndChar
StartChar: s
Encoding: 115 115 18
Width: 352
Flags: HMW
AnchorPoint: "Bottom" 164 -15 basechar 0
AnchorPoint: "Top" 182.5 465 basechar 0
LayerCount: 2
Fore
SplineSet
51 142 m 5
 86.239171875 61.8382753314 167.956640625 37 180 37 c 7
 204.97265625 37 216 49.4365234375 216 73 c 7
 216 122.000069755 168.55859375 142.234793527 140 163 c 4
 102.635094803 187.90519634 47 205.830643503 47 280 c 7
 47 339.224385246 116.888888889 408 195 408 c 7
 229.755838816 408 261.351778372 403 294 398 c 5
 294 398 303.846679688 329.355902778 310 284 c 5
 294 276 l 5
 249.49122807 307.289473684 215.031095805 358 176 358 c 7
 158.36328125 358 150 350.575195312 150 332 c 7
 150 313.838120404 159.588867188 289.230454389 228 255 c 4
 297.050951087 225.758789062 324 176.811523438 324 125 c 7
 324 39.5659813335 232.843424479 -12 155 -12 c 7
 108.642319378 -12 70.2995960203 -3.6396484375 34 7 c 5
 36 21 37 35.0400390625 37 50 c 7
 37 68.1022096197 34.4287109375 120.89779038 28 139 c 5
 51 142 l 5
EndSplineSet
Substitution2: "case-1" S
Substitution2: "pcap-1" s.pcap
Substitution2: "smcp-1" s.smcp
EndChar
StartChar: t
Encoding: 116 116 476
Width: 349
Flags: HMW
AnchorPoint: "Bottom" 187 -15 basechar 0
AnchorPoint: "TopRight" 317 531 basechar 0
AnchorPoint: "Top" 147.5 508 basechar 0
LayerCount: 2
Fore
SplineSet
4 356 m 1
 58.3037109375 410.400390625 138.377929688 470.240234375 189 492 c 1
 211 486 l 1
 204.666992188 455.89453125 206.333007812 430.420898438 204 398 c 1
 243.622070312 402 290.377929688 400 330 404 c 1
 322 334 l 1
 283.075195312 334 237.924804688 338 199 340 c 1
 193.8125 286.723632812 198 239.81640625 198 111 c 3
 198 86.85546875 205.1796875 62 262 62 c 3
 287.529296875 62 297.1015625 67.0078125 324 76 c 1
 324 76 323 70 333 50 c 1
 293.8125 23.2138671875 227.8125 -10 168 -10 c 3
 148 -10 76 -0.560546875 76 91 c 3
 76 186 80.6669921875 244.899414062 83 338 c 1
 83 338 38.17578125 332 10 332 c 1
 4 356 l 1
EndSplineSet
Substitution2: "case-1" T
Substitution2: "pcap-1" t.pcap
Substitution2: "smcp-1" t.smcp
EndChar
StartChar: u
Encoding: 117 117 20
Width: 506
Flags: HMW
AnchorPoint: "Bottom" 255 -15 basechar 0
AnchorPoint: "Ogonek" 391.65 -3 basechar 0
AnchorPoint: "Horn" 434.5 333 basechar 0
AnchorPoint: "Top" 264 465 basechar 0
LayerCount: 2
Fore
SplineSet
247 368 m 5
 320.631225925 379.176470588 397.039966238 393.705882353 454 406 c 5
 459 388 l 5
 433.545333333 342.768 419 170.064 419 131 c 7
 419 112.927710844 422.243841998 90.338655064 425 81 c 4
 427.330740438 73.1027818517 432.961379693 67 448 67 c 7
 451.92 67 479.4 70 497 74 c 5
 495 32 l 5
 442.752594886 22.7362602122 376.839519609 -2.24398458232 331 -13 c 4
 323.498618875 -14.7601617932 323.5 -14 316 -14 c 7
 305.182105263 -14 307.182105263 7.10810810811 302 57 c 5
 272.646556962 41.5714285714 217.522987342 -11 176 -11 c 7
 136.76145 -11 96.6683008573 5.7141943063 81 46 c 4
 72.0625 68.9797979798 68 92.8787878788 68 137 c 7
 68 182.887573965 71 257.549618321 71 278 c 4
 71 285.333333333 63.0997512422 300 43 300 c 7
 24 300 11.999991453 300 6 300 c 5
 -1 339 l 5
 45.4378361278 339.555992844 144.62041149 391.216456908 209 423 c 5
 221 400 l 5
 200.285651515 330.305934067 192 248.663472527 192 172 c 7
 192 120.751866944 205.875734929 76 254 76 c 7
 280.122096054 76 288.958655995 86.8958181818 301 97 c 5
 303 173.42782258 314 252.319010887 314 262 c 7
 314 310.268184615 293.262626263 324 249 328 c 5
 247 368 l 5
EndSplineSet
Substitution2: "case-1" U
Substitution2: "pcap-1" u.pcap
Substitution2: "smcp-1" u.smcp
EndChar
StartChar: v
Encoding: 118 118 1212
Width: 442
Flags: HMW
AnchorPoint: "Bottom" 194 -15 basechar 0
AnchorPoint: "Top" 207 465 basechar 0
LayerCount: 2
Fore
SplineSet
444 380 m 1
 406.925373134 346.86246142 405.625479439 346.458814322 375 295 c 0
 343.034179688 241.2890625 309.641601562 189.19140625 277 133 c 0
 251.958984375 89.892578125 218 10 213 -20 c 1
 176 -20 l 1
 154.122070312 106.165039062 89.8740234375 240.926757812 43 340 c 0
 38.244140625 350.051757812 28.701171875 358.568359375 23 363 c 0
 16.3466796875 368.171875 7.4189453125 373.111328125 0 376 c 1
 3 409 l 1
 32.451171875 404.200195312 79 403 108 403 c 3
 141 403 188.834960938 406.181640625 220 410 c 1
 225 377 l 1
 218.890625 372.555664062 204 369 204 369 c 2
 191.551757812 364.2578125 188 351.456054688 188 341 c 3
 188 326.041015625 198.108398438 294.9296875 204.797851562 272 c 0
 217.685546875 227.825195312 233.921875 182.07421875 249 148 c 1
 274.771484375 194.38671875 295.521484375 232.626953125 314.682617188 276 c 0
 321.777710663 290.07311481 325 310.10326087 325 326 c 3
 325 344.76953125 319.396484375 370.922851562 284 377 c 1
 289 410 l 1
 319.016601562 403.875 332.12109375 403 350 403 c 3
 378 403 412.237304688 407.090820312 436 412 c 1
 444 380 l 1
EndSplineSet
Substitution2: "case-1" V
Substitution2: "pcap-1" v.pcap
Substitution2: "smcp-1" v.smcp
EndChar
StartChar: w
Encoding: 119 119 1214
Width: 676
Flags: HMW
AnchorPoint: "Bottom" 316 -15 basechar 0
AnchorPoint: "Top" 347 465 basechar 0
LayerCount: 2
Fore
SplineSet
678 378 m 1
 633.349609375 350.163085938 632.1796875 343.583984375 597 287 c 0
 566.0390625 237.201171875 536.750976562 183.427734375 513 133 c 0
 492.112304688 88.6513671875 466.532226562 18 461 -20 c 1
 428 -20 l 1
 407.322265625 74.17578125 363.750976562 173.013671875 330 256 c 1
 308 211.020507812 286.145507812 166.772460938 263 122 c 0
 241.62890625 80.66015625 206.333007812 5.2880859375 203 -20 c 1
 170 -20 l 1
 145.384765625 115 76.6103515625 288.807617188 50 343 c 0
 44.8662109375 353.283203125 37.0986328125 362.670898438 26 366 c 0
 18.693359375 368.19140625 8.6669921875 370.603515625 0 371 c 1
 3 404 l 1
 36.658203125 400 89 399 123 399 c 3
 154 399 188.76953125 400.5 218 405 c 1
 222 372 l 1
 219.0234375 371.166992188 217.225585938 371.291992188 214 371 c 0
 200.692382812 369.793945312 193 352.090820312 193 334 c 3
 193 320.858398438 199.375 292.4140625 205.39453125 273 c 0
 218.573242188 230.498046875 234.721679688 188.791015625 246 157 c 1
 268.629882812 208.857421875 297.723632812 257.099609375 307 311 c 1
 303.98828125 320.278320312 299.3046875 330.734375 296 337 c 0
 290.80859375 346.844726562 284.381835938 358.725585938 274 365 c 0
 269.594726562 367.662109375 262.3125 370.444335938 257 372 c 1
 260 404 l 1
 286.407226562 400 327 399 353 399 c 3
 386 399 434.556640625 402.181640625 466 406 c 1
 471 374 l 1
 466.471679688 371.22265625 456 369 456 369 c 0
 447.833984375 366.727539062 442 355.111328125 442 344 c 3
 442 343 442.66796875 333.169921875 443 328 c 0
 446.0625 280.374023438 468.484375 211.284179688 492 165 c 1
 514.431640625 211.845703125 537 255 544 299 c 0
 544.966796875 305.07421875 547 316.13671875 547 328 c 3
 547 345.029296875 537.102539062 364.005859375 503 371 c 1
 509 404 l 1
 530.461914062 399.625 542 399 554 399 c 3
 593 399 637.081054688 404 670 410 c 1
 678 378 l 1
EndSplineSet
Substitution2: "case-1" W
Substitution2: "pcap-1" w.pcap
Substitution2: "smcp-1" w.smcp
EndChar
StartChar: y
Encoding: 121 121 1220
Width: 446
Flags: HMW
AnchorPoint: "Bottom" 291 -15 basechar 0
AnchorPoint: "Top" 232.5 465 basechar 0
LayerCount: 2
Fore
SplineSet
147 -346 m 1
 141.68852459 -346 116.459016393 -343 66 -343 c 3
 31.3448275862 -343 23.2586206897 -345 -1 -346 c 1
 -1 -346 0 -319.925925926 -2 -302 c 1
 91.9677419355 -254.977272727 75.0322580645 -216.045454545 154 -53 c 1
 142.314347414 54.9814293988 94.7282763928 248.465311242 63.6689453125 318 c 0
 52.2334691604 343.601397306 43.2592996094 356.612534595 27 365 c 0
 20.9202047611 367.142857143 12.7741935484 368.452380952 6 370 c 1
 10 406 l 1
 38.3950617284 402 81.6049382716 400 110 400 c 3
 154.85106383 400 191.787234043 401.428571429 234 410 c 1
 238 374 l 1
 234 373 231.122374288 372.52642817 226 370 c 0
 209.08705249 361.658292695 207 324.502795412 207 306 c 3
 207 296.327739582 207.975471577 286.657458066 208.634765625 276 c 0
 212.143534426 219.280913135 226.989268211 154.117871142 247 118 c 1
 288.25 158.496689927 314.446294743 234.767027404 324 294 c 0
 325.476029641 303.151383777 327 316.950124379 327 327 c 3
 327 341.035668848 322.604651163 364.275862069 264 374 c 1
 270 411 l 1
 298.641304348 404 338.369565217 400 355 400 c 3
 384.054054054 400 416.594594595 402 441 408 c 1
 446 372 l 1
 416.827160494 362.627118644 405.963651311 350.721565059 381 299 c 0
 365 265.85 263.879771839 76.0579876656 221 -13 c 0
 208 -40 153 -251 147 -346 c 1
EndSplineSet
Substitution2: "case-1" Y
Substitution2: "pcap-1" y.pcap
Substitution2: "smcp-1" y.smcp
EndChar
StartChar: z
Encoding: 122 122 1223
Width: 466
Flags: HMW
AnchorPoint: "Bottom" 224 -15 basechar 0
AnchorPoint: "Top" 230.5 465 basechar 0
LayerCount: 2
Fore
SplineSet
309 0 m 2
 172 0 l 2
 144.028320312 0 48.42578125 -6.400390625 28 -16 c 1
 12 14 l 1
 103.829101562 116.39453125 188.455078125 233.69921875 251 352 c 1
 254.798828125 355.6484375 239.876953125 356 226 356 c 3
 185.6953125 356 151.477539062 354.870117188 113 346 c 0
 76.65625 337.622070312 49 303 43 293 c 1
 15 306 l 1
 48 432 l 1
 72.48046875 417 100.115234375 398 235 398 c 3
 328.936523438 398 405.515625 399 429 410 c 1
 445 381 l 1
 358.174804688 270.260742188 247 140 210 38 c 1
 279 40 l 2
 313.998046875 41.0146484375 340.2890625 49.828125 369 70 c 0
 385.575195312 81.6455078125 399.942382812 98.25 409 117 c 0
 413.487304688 126.2890625 417.571289062 137.083007812 420 148 c 1
 452 140 l 1
 421 -18 l 1
 394.537109375 -6.4736328125 382 -0 309 0 c 2
EndSplineSet
Substitution2: "case-1" Z
Substitution2: "pcap-1" z.pcap
Substitution2: "smcp-1" z.smcp
EndChar
StartChar: braceleft
Encoding: 123 123 168
Width: 266
VWidth: 1515
Flags: HW
LayerCount: 2
Fore
SplineSet
239.5 708.300195312 m 1
 239.5 708.300195312 239.5 694.480195312 239.5 670.300195312 c 1
 200.230711864 669.277916831 176.5 636.051547509 176.5 535.700195312 c 3
 176.5 467.143236201 200 457.390412698 200 390 c 3
 200 334.827073456 122.308805861 257.261164743 110.5 243.300195313 c 1
 122.308805861 229.339163276 200 153.773067607 200 96.599590625 c 3
 200 33.2084539511 176.5 14.4562458278 176.5 -49.1006046875 c 3
 176.5 -147.452251771 195.2013001 -182.677529238 239.5 -183.699804687 c 1
 239.5 -221.699804687 l 1
 164.128042925 -229.474988525 81.5 -179.472596465 81.5 0.2997953125 c 3
 81.5 44.3096270108 92 85.5113782517 92 102.599590625 c 3
 92 149.457743785 66.5083595122 209.109971607 11.5 230.300195313 c 1
 11.5 257.300195313 l 1
 68.5083595122 278.323444465 92 338.501489418 92 384 c 3
 92 397.087930592 81.5 447.289814087 81.5 486.300195312 c 3
 81.5 666.072953207 170.216278219 716.075382123 239.5 708.300195312 c 1
EndSplineSet
Position2: "cpsp-1" dx=0 dy=0 dh=50 dv=100
Position2: "'case' vertical ajustments for all-caps-1" dx=0 dy=90 dh=0 dv=0
EndChar
StartChar: asciitilde
Encoding: 126 126 168
Width: 394
Flags: HW
LayerCount: 2
Back
SplineSet
13.8662109375 176.646484375 m 1
 45.3271484375 242.755859375 108.74609375 310.608398438 115.53515625 310.608398438 c 3
 163.168945312 310.608398438 238.890625 268.947265625 291.548828125 268.947265625 c 3
 302.698242188 268.947265625 316.426757812 295.602539062 330 323.4609375 c 5
 381 307.4609375 l 5
 357.426757812 239.602539062 289.266601562 159.947265625 284.548828125 159.947265625 c 3
 241.502929688 159.947265625 154.469726562 206.608398438 105.53515625 206.608398438 c 3
 93.63671875 206.608398438 68.734375 168.762695312 62 158 c 5
 13.8662109375 176.646484375 l 1
EndSplineSet
Fore
SplineSet
16 172 m 1
 46.6451612903 241.511111111 114.827956989 308 111 308 c 3
 154.977272727 308 248.045454545 269 291 269 c 3
 298.454545455 269 320.818181818 293.391304348 332 320 c 1
 378 308 l 1
 354.176470588 245.134020619 301.388235294 165 297 165 c 3
 253.118918919 165 146.740540541 204 99 204 c 3
 89.25 204 67.5 176.307692308 57 159 c 1
 16 172 l 1
EndSplineSet
Position2: "cpsp-1" dx=0 dy=0 dh=50 dv=100
Position2: "'case' vertical ajustments for all-caps-1" dx=0 dy=90 dh=0 dv=0
EndChar
StartChar: cent
Encoding: 162 162 183
Width: 408
UnlinkRmOvrlpSave: 1
Flags: HW
LayerCount: 2
Fore
SplineSet
25 182 m 3
 25 250.094412951 43.1224872887 293.67194765 89 342 c 0
 137.697530864 393.298701299 181.073948583 421 250 421 c 3
 304.837628805 421 316.333333334 402.086956522 382 388 c 1
 376 366 303.585372326 259.512812929 273 264 c 1
 252.303571428 311.918904676 244.776174525 356 194 356 c 3
 165.91218777 356 162.016496959 352.652873154 156 349 c 0
 128 332 125 264.115899278 125 202 c 3
 125 154.287194075 171.500679077 93 241 93 c 3
 292.507117753 93 328.486641221 126.871428571 352 140 c 1
 361 133.25 367 128.75 376 122 c 1
 340.378056427 71.3863636364 289.463060414 -9 199 -9 c 3
 76.6141371125 -9 25 110.179231167 25 182 c 3
EndSplineSet
Refer: 487 58113 N 0.0181668 0.693762 -0.968418 0.0253589 189.417 -147.881 2
Position2: "'lnum-2' vertical adjustment" dx=0 dy=125 dh=0 dv=0
EndChar
StartChar: sterling
Encoding: 163 163 618
Width: 509
VWidth: 1159
UnlinkRmOvrlpSave: 1
Flags: HW
LayerCount: 2
Back
SplineSet
139 324 m 7
 139 400.356589147 139.087949254 444.997634621 141 521 c 4
 142.900322802 583.965533283 147.025668412 606.63875286 212 669 c 4
 258.322601994 724.419020394 294.214509186 753 368 753 c 7
 424.499375132 753 443.333333334 732.086956522 504 724 c 5
 455.678571429 675.7 429.321428571 646.3 381 598 c 5
 375.964285714 634.029387756 381.285714286 675 312 675 c 7
 295.989179355 675 296.83036719 692.792990992 297 695 c 4
 264.652828711 658.912442823 271.253213112 630.824221252 269 544 c 4
 266.069485791 454.080449272 269 459.036576535 269 370 c 7
 269 220.671218389 239.523518648 189.407665505 155 105 c 5
 231.588235294 76.5 198.940037541 90 333 90 c 7
 425.71074547 90 495 174.285714286 460 130 c 5
 468.25 124 476.75 118 485 112 c 5
 445.909090909 61 416.090909091 31 385 -20 c 5
 338.257255504 -20.0027801705 137.473988439 12 34 -20.0029296875 c 5
 16 3 l 5
 128.261904762 107.413745277 139 186.384931077 139 324 c 7
EndSplineSet
Fore
SplineSet
18 399 m 1
 163.847619047 401.061508349 326.007142857 398.721438692 421 426 c 1
 428 351 l 1
 358.11672823 352.121864565 253.936968835 350.847808528 21 349 c 1
 18 399 l 1
139 324 m 3
 139 400.356589147 139.087949254 444.997634621 141 521 c 0
 142.900322802 583.965533283 147.025668412 606.63875286 212 669 c 0
 258.322601994 724.419020394 294.214509186 753 368 753 c 3
 424.499375132 753 443.333333334 732.086956522 504 724 c 1
 455.678571429 675.7 429.321428571 646.3 381 598 c 1
 375.964285714 634.029387756 381.285714286 675 312 675 c 3
 295.989179355 675 283.227863734 664.8417956 282 663 c 0
 270 645 271.829086831 630.807365085 269 544 c 0
 266.069485791 454.080449272 269 459.036576535 269 370 c 3
 269 182.997326222 184 121 150 89 c 1
 178.72265625 91.5556640625 198.811523438 89.94140625 235.5390625 89.94140625 c 3
 363.38671875 89.94140625 382 81 460 130 c 1
 468.25 124 476.75 118 485 112 c 1
 445.909090909 61 416.090909091 31 385 -20 c 1
 338.257255504 -20.0027801705 137.473988439 12 34 -20.0029296875 c 1
 16 3 l 1
 128.261904762 107.413745277 139 186.384931077 139 324 c 3
EndSplineSet
EndChar
StartChar: currency
Encoding: 164 164 619
Width: 463
Flags: HMW
LayerCount: 2
Fore
SplineSet
153.529296875 58.0029296875 m 1
 90.0634765625 -26.0634765625 l 1
 12.4365234375 51.5634765625 l 1
 96.41796875 114.944335938 l 1
 81.9669012537 140.615949695 74.9765625 160.039676236 74.9765625 193.963867188 c 1
 74.9765625 227.548521702 81.7655770699 246.807591049 96.107421875 272.366210938 c 1
 12.4365234375 335.436523438 l 1
 90.0634765625 413.063476562 l 1
 153.294921875 329.232421875 l 1
 178.605008127 342.654351129 197.46287053 349.577148438 230.802734375 349.577148438 c 1
 264.85446267 349.577148438 284.086034276 343.088819251 310.474609375 329.000976562 c 1
 373.936523438 413.063476562 l 1
 451.563476562 335.436523438 l 1
 367.435546875 271.909179688 l 1
 380.558576906 246.845437975 387.168945312 228.096657011 387.168945312 194.344726562 c 1
 387.168945312 160.330136531 380.4303002 141.322627263 366.522460938 116.004882812 c 1
 451.563476562 51.5634765625 l 1
 373.936523438 -26.0634765625 l 1
 309.659179688 58.814453125 l 1
 283.664316786 43.678634107 264.072839249 37.150390625 230.940429688 37.150390625 c 1
 198.015665574 37.150390625 179.053113528 43.456099299 153.529296875 58.0029296875 c 1
254.24609375 97.853515625 m 1
 284.1051945 97.853515625 306.923828124 121.92440137 306.923828124 151.38671875 c 1
 306.923828124 226.252517139 264.994994723 287.911714791 207.7265625 288.630859376 c 1
 181.869040036 288.630859376 154.26953125 271.207788796 154.26953125 237.42578125 c 1
 154.26953125 161.461463093 198.15499621 96.5870468851 254.24609375 97.853515625 c 1
EndSplineSet
Position2: "'lnum-2' vertical adjustment" dx=0 dy=125 dh=0 dv=0
EndChar
StartChar: yen
Encoding: 165 165 274
Width: 463
VWidth: 1159
UnlinkRmOvrlpSave: 1
Flags: HW
LayerCount: 2
Fore
SplineSet
299.78125 187.41796875 m 1
 298.388671875 133.375976562 287.469726562 32.232421875 309.09765625 -108.499023438 c 1
 312.932617188 -148.31640625 327.23828125 -160.1171875 346.783203125 -163.310546875 c 1
 343.580078125 -195.142578125 l 1
 282.806640625 -186.405273438 208.93359375 -183.358398438 152.485351562 -199.678710938 c 1
 145.08984375 -167.665039062 l 1
 159.220703125 -161.454101562 179.521484375 -139.536132812 181.260742188 -86.220703125 c 1
 182.314453125 -75.4677734375 185.686523438 158.344726562 184.236328125 136.501953125 c 1
 185.424804688 143.014648438 141.190429688 245.357421875 67.5390625 331 c 0
 54.927734375 345.911132812 32.228515625 361.720703125 17 367 c 1
 176 451 l 1
 172.494140625 416.313476562 191.190429688 365.224609375 203.182617188 340 c 0
 231.306640625 277.171875 269.193359375 240.580078125 272.97265625 237.67578125 c 1
 302.716796875 323.137695312 313.94140625 372.137695312 294 452 c 1
 319.5 436.684570312 408.75 396.8828125 447 380 c 1
 353.676757812 328.647460938 330.526367188 263.916992188 299.78125 187.41796875 c 1
EndSplineSet
Refer: 1025 58113 N 0.29 0 0 1.125 93 -2 2
Refer: 1025 58113 N 0.29 0 0 1.125 93 98 2
Position2: "'lnum-2' vertical adjustment" dx=0 dy=190 dh=0 dv=0
EndChar
StartChar: section
Encoding: 167 167 469
Width: 428
Flags: HW
HStem: -93.7754 33<84.7519 176.482> 658.225 40<245.024 351.452>
VStem: 75.5938 57<316.327 494.034> 198.593 77.001<33.2246 81.1509> 305.594 54.999<103.702 250.216>
LayerCount: 2
Fore
SplineSet
147 487 m 1
 145 463.527777778 144 447.824259259 144 422 c 3
 144 336.675064377 265.544187898 220.06647783 291 109 c 1
 292.113266667 123.987762015 293 123.243458824 293 133 c 3
 293 280.540904674 170.221955128 388.70916445 147 487 c 1
52.1875 312.44921875 m 3
 52.1875 500.317361226 152.641248685 698.224609375 331.592773438 698.224609375 c 3
 370.975260616 698.224609375 401.747070312 673.474609375 421.592773438 632.224609375 c 1
 395.416992188 606.302734375 346.76171875 575.854492188 298 557 c 1
 267.573242188 593.192382812 272.616224798 641.44921875 253.1875 641.44921875 c 3
 241.059283427 641.44921875 233.185546875 636.911382968 233.185546875 622.44921875 c 3
 233.185546875 548.009970887 385.185546875 437.245891115 385.185546875 278.44921875 c 3
 385.185546875 114.800495302 277.539310645 -93.775390625 96.5927734375 -93.775390625 c 3
 58.8353119345 -93.775390625 21.091796875 -75.986328125 -2 -21 c 1
 -2.5732421875 -6.5498046875 64.9736328125 47.2041015625 120 57 c 1
 166.471679688 39.865234375 149.386904624 -51.55078125 168.185546875 -51.55078125 c 3
 184.710814042 -51.55078125 193.185546875 -25.7027662551 193.185546875 -1.55078125 c 3
 193.185546875 77.1491600004 52.1875 127.328479536 52.1875 312.44921875 c 3
EndSplineSet
Position2: "'case' vertical ajustments for all-caps-1" dx=0 dy=60 dh=0 dv=0
Position2: "cpsp-1" dx=0 dy=0 dh=50 dv=100
EndChar
StartChar: ordfeminine
Encoding: 170 170 395
Width: 306
Flags: HW
HStem: 304 32<36 273> 379 37<59.5 152.146 215 275.486> 519 28<114.437 186> 652 42<96.5633 172.394>
VStem: 29 49<418.419 501.984> 38 58<614 650.668> 184 50<433.003 519 544.43 591.98 592 623.672>
LayerCount: 2
Fore
SplineSet
186 519 m 1xfa
 183 519 181 519 177 519 c 1
 153 519 123 514 114 510 c 0
 90 498 78 487 78 460 c 3
 78 436 90 416 111 416 c 3
 129 416 160 430 184 445 c 1
 184 455 184 466 184 479 c 1
 184 494 186 509 186 519 c 1xfa
160 694 m 3
 177 694 223 661 231 648 c 0
 237 638 238 621 238 611 c 1
 238 564 234 512 234 467 c 1
 234 454 235 442 238 433 c 0
 241 423 247 421 249 421 c 3
 256 421 277 429 284 433 c 1
 296 406 l 1
 282 400 230 378 220 378 c 3
 210 378 194 389 187 417 c 1
 151 395 122 379 83 379 c 3
 36 379 29 411 29 444 c 1xfa
 29 463 30 487 35 498 c 1
 39 508 44 512 51 515 c 1
 97 535 132 541 186 547 c 1
 186 564 187 592 187 592 c 1
 187 610 184 617 180 624 c 1
 175 631 148 652 130 652 c 3
 104 652 96 642 96 634 c 3
 96 628 101 616 101 614 c 1
 45 592 l 1
 44 597 38 612 38 621 c 3xf6
 38 633 44 645 59 655 c 0
 88 675 142 694 160 694 c 3
EndSplineSet
Refer: 487 58113 N 0.237 0 0 1 36 320 2
Position2: "cpsp-1" dx=0 dy=0 dh=7 dv=14
EndChar
StartChar: registered
Encoding: 174 174 394
Width: 322
VWidth: 1159
Flags: HW
LayerCount: 2
Fore
SplineSet
138.812476562 573.061453125 m 1
 145.680459518 572.85333546 149.134595647 572.26 155.922 572.26 c 3
 165.744421041 572.26 170.873046875 581.682831528 170.873046875 594.451171875 c 3
 170.873046875 603.35503472 163.452626516 618 150 618 c 3
 146.922588697 618 145.773603267 618.387251342 142.608398438 612.19921875 c 0
 137.00640355 601.518191178 137.78586664 585.204125788 138.812476562 573.061453125 c 1
81.248046875 634.85546875 m 1
 95.3959310351 634.649235507 105.421605933 634.441 121.293 634.441 c 3
 136.729 634.441 143.624 638.797 161.182 638.797 c 3
 191.233379686 638.797 216.744140625 622.056930862 216.744140625 600.96484375 c 3
 216.744140625 582.850919648 197 566 188 564 c 1
 220.685471553 531.410279755 223.510020841 505.005096843 244.2421875 501.046875 c 1
 241.142578125 487.4296875 l 1
 199.369346189 489.529399866 168.159303594 519.443707778 142.673828125 558.123046875 c 1
 142.49426944 558.119610927 142.326018754 558.118063209 142.166572808 558.118063209 c 0
 140.91010359 558.118063209 140.200390111 558.214173217 138.812476562 558.239765625 c 1
 140.544286367 542.418086129 141.746143729 530.724896711 144.895507812 517.5078125 c 0
 147.03978908 509.891208894 149.482621462 508.878066267 159.072265625 507.412109375 c 1
 157.240234375 491.21484375 l 1
 144.447422906 493.186523172 131.080797187 494.21831929 117.732417774 494.21831929 c 3
 106.24008377 494.21831929 94.7612746747 493.453509773 83.673828125 491.865234375 c 1
 81.990234375 507.5 l 1
 93.3003758962 508.109006985 95.6105492694 509.588023946 98.1865234375 517.037109375 c 1
 100.780408218 540.472690109 102.1640625 555.103625607 102.1640625 570.01953125 c 3
 102.1640625 581.092681387 101.444677257 592.326332413 99.9375 607.604492188 c 1
 100 612 95.0131618977 619.810983623 81.248046875 620.16796875 c 1
 81.248046875 634.85546875 l 1
160.899414062 659.46484375 m 3
 108.877066442 659.46484375 60.6865234375 617.044661177 60.6865234375 559.248046875 c 3
 60.6865234375 501.494543069 106.78697427 462.97265625 160.899414062 462.97265625 c 3
 212.924722302 462.97265625 261.115234375 505.39378911 261.115234375 563.190429688 c 3
 261.115234375 617.013236241 214.931031052 659.46484375 160.899414062 659.46484375 c 3
160.902 686.41 m 3
 229.535 686.41 288.5 632.481 288.5 563.625 c 3
 288.5 489.99 227.167 436.027 160.902 436.027 c 3
 92.36 436.027 33.3066 485.127 33.3066 558.812 c 3
 33.3066 632.447 94.6389 686.41 160.902 686.41 c 3
EndSplineSet
EndChar
StartChar: degree
Encoding: 176 176 1212
Width: 307
Flags: HW
LayerCount: 2
Fore
SplineSet
147.420898438 504.334960938 m 0
 197.329444063 504.334960938 241.426757812 545.45865922 241.426757812 598.933593751 c 0
 241.426757812 651.741510402 199.901905193 692.329101562 147.3359375 692.329101562 c 0
 95.402203418 692.329101562 53.576171875 650.681683674 53.576171875 598.699218751 c 0
 53.576171875 546.621672101 96.6154794971 504.334960938 147.420898438 504.334960938 c 0
147.376953125 450.9609375 m 0
 67.7209799365 450.9609375 0.2412109375 517.25500347 0.2412109375 598.8984375 c 0
 0.2412109375 680.403073513 65.820211378 745.703125 147.247070312 745.703125 c 0
 229.660015085 745.703125 294.762695312 682.06127958 294.762695312 599.2578125 c 0
 294.762695312 515.4282111 225.625352612 450.9609375 147.376953125 450.9609375 c 0
EndSplineSet
EndChar
StartChar: paragraph
Encoding: 182 182 76
Width: 591
UnlinkRmOvrlpSave: 1
Flags: HW
LayerCount: 2
Fore
SplineSet
368 665 m 1
 424 681 l 1
 412 44 l 1
 360 68 l 1
 368 665 l 1
557 737 m 1
 559 651 l 1
 525.302325582 650.375 395.516665468 660.515274261 352 641 c 0
 307.472940708 617.699335921 302 603.02399867 302 205 c 3
 302 126.6 335.989506059 103.71582912 329 93 c 0
 333.074310017 81.5299479167 469.093457944 65.9450954861 478 80 c 1
 462 -4 l 1
 265.646337534 39.9281113153 227.503859992 74.3524598142 174 137 c 0
 120.504854369 201.754716981 96.269546119 282.848154597 79 345 c 0
 75.8564320452 356.267169579 72.7265625 365.478619026 72.7265625 374.544921875 c 3
 72.7265625 380.48197883 75.0121644413 388.913372013 78 397 c 0
 106.846153846 474.697674418 154.9453194 585.668358191 253 654 c 0
 353.675324675 724.154761905 557 737 557 737 c 1
EndSplineSet
Position2: "cpsp-1" dx=0 dy=0 dh=50 dv=100
EndChar
StartChar: ordmasculine
Encoding: 186 186 637
Width: 358
VWidth: 1159
Flags: HW
HStem: 304 32<60 297> 378 36<136.387 238.619> 654 40<115.839 224.973>
VStem: 22 56<470.969 612.714> 281 57<456.251 599.062>
LayerCount: 2
Fore
SplineSet
182 694 m 3
 280 694 338 614 338 538 c 3
 338 452 273.58974359 378 181 378 c 3
 94 378 22 440 22 529 c 3
 22 640 117.597484277 694 182 694 c 3
169 654 m 3
 112.377777778 654 78 604 78 549 c 3
 78 480 126 414 188 414 c 3
 247.641304348 414 281 469 281 524 c 3
 281 604 221 654 169 654 c 3
EndSplineSet
Refer: 1034 58113 N 0.237 0 0 1 60 320 2
Position2: "cpsp-1" dx=0 dy=0 dh=7 dv=14
EndChar
StartChar: AE
Encoding: 198 198 151
Width: 1067
VWidth: 1159
Flags: HW
AnchorPoint: "Top" 580.585 694 basechar 0
AnchorPoint: "Bottom" 569.957 -15 basechar 0
LayerCount: 2
Back
SplineSet
396 687 m 5
 522.544075369 676.064349747 608.353950894 673.145507812 644.385742188 673.145507812 c 7
 826.508787142 673.145507812 907 676 970 689 c 5
 985 676 987.794921875 672.63352728 987.794921875 664.500976562 c 5
 987.794921875 649.040313493 973.993318252 622.230475425 968 520 c 5
 926 514 l 5
 924.041666667 529.211267606 918 575 903 586 c 4
 870.256373105 610.011993056 820.928610581 621.48046875 772.520507812 621.48046875 c 7
 740.839884353 621.48046875 687.959571717 617.280939294 682 612 c 4
 675.577247652 606.308623697 669.028544724 576.528504366 668 568 c 4
 660.8 508.29891946 651.8 435.32889162 650 379 c 5
 693.526294379 383 808.553323745 382.596533604 818 385 c 4
 857.37890625 395.018960674 875.5 458.860867275 886 473 c 5
 930 459 l 5
 921.80116304 422.984751602 918.487043501 387.241354127 918.487043501 351.507580443 c 5
 918.487043501 311.772223021 922.305508732 272.048352585 928 232 c 5
 880 214 l 5
 858.5 277.883217865 864.027292478 309.695293573 818 322 c 4
 788.075 330 713.251220414 328.4 650 330 c 5
 648.4 255.370750071 657.32413596 170.910349427 674 125 c 4
 679.200094778 110.683610291 687.762623921 85.6497728427 695 81 c 4
 721.208031479 64.1622135287 750.886001638 64.0600482459 774.565037958 64.0600482459 c 7
 784.108635019 64.0600482459 808.099209045 68.0391614651 846 83 c 4
 884 98 943 154 989 199 c 5
 1022 191 l 5
 997.768554688 100.682617188 993.922851562 76.7529296875 981 6 c 5
 771.166162132 8.90711542778 749.146786484 12.139752967 676.196411738 12.139752967 c 5
 590.049215819 12.139752967 566.001852573 7.31372559336 448 -11 c 5
 431 34 l 5
 474 44 511 79.5294117647 511 115 c 5
 513.955612619 133.220859411 515.890351072 175.788285048 516.630859375 226.087890625 c 5
 458.892885345 243.359643257 355.08909961 251.0847832 278.916992188 238 c 5
 251.632855331 195.49 230.02105535 176.585729929 208.958 129 c 4
 191.535441538 89.6388936528 205.976 24 246.874 56 c 5
 239.599367187 -8 l 5
 207.951493817 -2.05998618452 156.803466685 1.29633238866 108.670055793 1.29633238866 c 5
 76.3231281557 1.29633238866 45.3376628074 1.6174622949 22.546925 -4 c 5
 22.546925 -4 18.2831458846 29.3333333333 19.9364765625 48 c 5
 50.4621359267 68.8913043478 99.5897567303 85.445498728 119.304 115 c 4
 242.852196459 300.21661113 356.057342769 475.935167696 451.09375 627.84765625 c 5
 432.765151941 634.482719793 411.116110638 640.842621729 388 650 c 5
 396 687 l 5
499.955078125 608.53125 m 5
 474.997845748 566.824208453 356.908389215 369.619898207 311.875 297 c 5
 356.011771036 287.416690358 469.427182865 290.709642557 516.76953125 290.991210938 c 5
 517.142741909 410.849620961 510.230980368 577.370679898 508 593 c 4
 506.858053784 601 504.574161353 606 499.955078125 608.53125 c 5
EndSplineSet
Fore
SplineSet
396 687 m 1
 522.544075369 676.064349747 608.353950894 673.145507812 644.385742188 673.145507812 c 3
 826.508787142 673.145507812 907 676 970 689 c 1
 985 676 987.794921875 672.63352728 987.794921875 664.500976562 c 1
 987.794921875 649.040313493 973.993318252 622.230475425 968 520 c 1
 926 514 l 1
 924.041666667 529.211267606 918 575 903 586 c 0
 870.256373105 610.011993056 820.928610581 621.48046875 772.520507812 621.48046875 c 3
 740.839884353 621.48046875 687.959571717 617.280939294 682 612 c 0
 675.577247652 606.308623697 669.028544724 576.528504366 668 568 c 0
 660.8 508.29891946 651.8 435.32889162 650 379 c 1
 693.526294379 383 808.553323745 382.596533604 818 385 c 0
 857.37890625 395.018960674 875.5 458.860867275 886 473 c 1
 930 459 l 1
 921.80116304 422.984751602 918.487043501 387.241354127 918.487043501 351.507580443 c 1
 918.487043501 311.772223021 922.305508732 272.048352585 928 232 c 1
 880 214 l 1
 858.5 277.883217865 864.027292478 309.695293573 818 322 c 0
 788.075 330 713.251220414 328.4 650 330 c 1
 648.4 255.370750071 657.32413596 170.910349427 674 125 c 0
 679.200094778 110.683610291 687.762623921 85.6497728427 695 81 c 0
 721.208031479 64.1622135287 750.886001638 64.0600482459 774.565037958 64.0600482459 c 3
 784.108635019 64.0600482459 808.099209045 68.0391614651 846 83 c 0
 884 98 943 154 989 199 c 1
 1022 191 l 1
 997.768554688 100.682617188 993.922851562 76.7529296875 981 6 c 1
 771.166162132 8.90711542778 749.146786484 12.139752967 676.196411738 12.139752967 c 1
 590.049215819 12.139752967 566.001852573 7.31372559336 448 -11 c 1
 431 34 l 1
 474 44 511 79.5294117647 511 115 c 1
 513.955612619 133.220859411 515.890351072 175.788285048 516.630859375 226.087890625 c 1
 458.892885345 243.359643257 355.08909961 251.0847832 278.916992188 238 c 1
 251.632855331 195.49 231.274982933 176.010703741 208.958 129 c 0
 180 68 194 52 254 48 c 1
 247.599609375 -8 l 1
 214.017939447 -2.05998618452 159.744587663 1.29633238866 108.670055793 1.29633238866 c 1
 76.3231281557 1.29633238866 45.3376628074 1.6174622949 22.546925 -4 c 1
 22.546925 -4 18.2831458846 29.3333333333 19.9364765625 48 c 1
 50.4621359267 68.8913043478 99.5897567303 85.445498728 119.304 115 c 0
 242.852196459 300.21661113 356.057342769 475.935167696 451.09375 627.84765625 c 1
 432.765151941 634.482719793 411.116110638 640.842621729 388 650 c 1
 396 687 l 1
499.955078125 608.53125 m 1
 474.997845748 566.824208453 356.908389215 369.619898207 311.875 297 c 1
 356.011771036 287.416690358 469.427182865 290.709642557 516.76953125 290.991210938 c 1
 517.142741909 410.849620961 510.230980368 577.370679898 508 593 c 0
 506.858053784 601 504.574161353 606 499.955078125 608.53125 c 1
EndSplineSet
Position2: "cpsp-1" dx=0 dy=0 dh=50 dv=100
Substitution2: "c2pc-1" ae.pcap
Substitution2: "c2sc-1" ae.smcp
EndChar
StartChar: Thorn
Encoding: 222 222 153
Width: 594
VWidth: 1159
Flags: HW
LayerCount: 2
Back
SplineSet
347 639.244140625 m 5
 316.541015625 642.76953125 307.044304701 636.581226713 278 622 c 4
 244.144026337 612.704216691 240.258353102 586.974094928 238 560 c 4
 236.00083666 543.233139748 234.66015625 574.91015625 234.219726562 558.89453125 c 5
 270.961914062 561.525390625 259.918945312 561 309 561 c 7
 442 561 552 478 552 375 c 7
 552 258.262695312 417.193359375 178 292 178 c 7
 251.719726562 178 277.8125 179.861328125 238.141601562 180.9453125 c 5
 240.319335938 143.3203125 244.603654909 137.412221065 256 106 c 4
 263.836914062 99.2880859375 275.423828124 34.365234375 353 59.1611328125 c 5
 349 -10.6103515625 l 5
 300.839951472 0.765049693952 254.431618705 6.17475337078 214.51466792 6.17475337078 c 7
 175.247383791 6.17475337078 95.5852303172 0.939824883774 35 -9 c 5
 21 38 l 5
 42 40 90 73 90 112 c 5
 92.600390625 143.202539062 95.399609375 187.70765625 95.399609375 277.326226562 c 7
 95.399609375 411.755546875 89.932866092 536.929397252 84 588 c 4
 82.317277559 629.218743104 54 638.22591564 10 654 c 5
 17 692 l 5
 64.3137479468 686.877828443 153.634841827 684.064554259 206.426404532 684.064554259 c 7
 249.805397362 684.064554259 303.502659759 685.964193224 345 690.04296875 c 5
 347 639.244140625 l 5
238.073242188 244.958007812 m 5
 277.035719345 243.580052103 218.136129251 244 288 244 c 7
 461.202755015 244 402 342.14904159 402 353 c 7
 402 386.798549616 376.112659643 501 267 501 c 7
 248.57199722 501 259.557602006 502.162209512 234.26171875 494.466796875 c 5
 232.9765625 413.043597891 234.340820312 321.151468615 238.073242188 244.958007812 c 5
EndSplineSet
Fore
SplineSet
347 639.244140625 m 1
 316.541015625 640.76953125 307.043945312 637.581054688 278 624 c 0
 246.195848524 609.12826285 240.258353102 586.974094928 238 560 c 0
 236.00083666 543.233139748 234.66015625 574.91015625 234.219726562 558.89453125 c 1
 270.961914062 561.525390625 259.918945312 561 309 561 c 3
 442 561 552 478 552 375 c 3
 552 258.262695312 417.193359375 178 292 178 c 3
 251.719726562 178 277.8125 179.861328125 238.141601562 180.9453125 c 1
 240.319335938 143.3203125 241.38219076 128.94174141 254 98 c 0
 266.519083159 67.3003574226 298 59 353 51.1611328125 c 1
 349 -10.6103515625 l 1
 300.839951472 0.765049693952 254.431618705 6.17475337078 214.51466792 6.17475337078 c 3
 175.247383791 6.17475337078 95.5852303172 0.939824883774 35 -9 c 1
 21 38 l 1
 42 40 90 73 90 112 c 1
 92.600390625 143.202539062 95.399609375 187.70765625 95.399609375 277.326226562 c 3
 95.399609375 411.755546875 89.932866092 536.929397252 84 588 c 0
 82.317277559 629.218743104 54 638.22591564 10 654 c 1
 17 692 l 1
 64.3137479468 686.877828443 153.634841827 684.064554259 206.426404532 684.064554259 c 3
 249.805397362 684.064554259 303.502659759 685.964193224 345 690.04296875 c 1
 347 639.244140625 l 1
238.073242188 247.958007812 m 1
 257.036132812 246.580078125 274.136129251 244 288 244 c 3
 390.874979693 244 409.760742188 278.625976562 409.760742188 309.018554688 c 3
 409.760742188 365.736328125 390.630988895 501 267 501 c 3
 248.57199722 501 259.557602006 502.162209512 234.26171875 494.466796875 c 1
 232.9765625 413.043597891 234.340820312 324.151367188 238.073242188 247.958007812 c 1
EndSplineSet
Position2: "cpsp-1" dx=0 dy=0 dh=50 dv=100
Substitution2: "c2pc-1" thorn.pcap
Substitution2: "c2sc-1" thorn.smcp
EndChar
StartChar: germandbls
Encoding: 223 223 327
Width: 579
VWidth: 1159
Flags: HW
LayerCount: 2
Fore
SplineSet
312 756 m 3
 411.877 756 454.845 679.623 454.845 588.779 c 1
 454.845 453.043496216 352 395.128933325 352 357 c 1
 352 338.391304348 365.848379432 318.092598052 426 289 c 1
 503.271926053 258.954700565 539 189.166114865 539 128 c 1
 539 33.1543 458.812 -9 408 -9 c 1
 365.699560976 -9 332.401317073 -2.4 300 6 c 1
 304 24.8837209302 306 43.7674418605 306 64 c 0
 306 76.4062065217 304.571 112.593793478 301 125 c 1
 323 132 l 1
 364.343938223 68.6644050926 395.424040508 48 443 48 c 3
 452.594359677 48 456 57.7822265625 456 74 c 1
 456 139.989257812 410.167945303 171.984415778 389 185 c 0
 331.777984816 220.184234809 242 225.038447325 242 315 c 1
 255 321.263093301 362.118 422.850246077 362.118 554.406 c 1
 362.118 610.58865958 312.722194097 678 243 678 c 3
 145.953619336 678 224.754635675 550.020576058 218 468 c 0
 211 383 206 298.488658537 206 249 c 0
 206 185.183876923 208.334 125.070377006 220 63 c 0
 222.780780467 48.2045180895 229 44 234 43 c 0
 241.142857143 42 249.577566964 41.5 254 42 c 1
 251 -6 l 1
 223.875 -1 185.125 1 158 1 c 0
 134.2265625 1 60.7734 -2 37 -6 c 1
 36 42 l 1
 42.1111111111 42 50.12890625 42.3447265625 56 45 c 1
 70 50 79.8394413641 70.3650950932 87 118 c 0
 90.935758467 144.182242175 95.6604179325 187.219716483 97 222 c 0
 98.205078125 253.288085938 99.1647629681 294.523231343 99.06699375 335 c 1
 40 352 l 1
 40 386 l 1
 59.9402 389.935 79.0951 397.74 99.0097 401.801 c 1
 99 418.369 99 443.298148438 99 458 c 0
 99 588.532796875 130.21505236 637.027699372 205 704 c 0
 235.579196895 731.384643997 258.237 756 312 756 c 3
EndSplineSet
MultipleSubs2: "case-2" S S
Substitution2: "pcap-1" uni1E9E.pcap
Substitution2: "case-1" uni1E9E
Substitution2: "smcp-1" uni1E9E.smcp
EndChar
StartChar: ae
Encoding: 230 230 153
Width: 578
VWidth: 1159
Flags: HW
AnchorPoint: "Top" 283.52 465 basechar 0
AnchorPoint: "Bottom" 280.52 -15 basechar 0
LayerCount: 2
Fore
SplineSet
356 350 m 3
 321.656442949 350 332.066444025 247.566990476 332.51953125 241 c 1
 366.220081101 251.335545468 392.502960459 259.256346815 424 268.332812053 c 4
 425.912770073 268.88401278 427.844769754 269.439475547 429.798828125 270 c 1
 413.576504921 318.459770115 377.097329424 350 356 350 c 3
335.696289062 214 m 1
 331.97833901 130.927289157 377.775146491 67 452.158203125 67 c 1
 490.144202907 67 513.685176448 82.1555555556 529.740234375 98 c 1
 556.48046875 62 l 1
 514.053066856 30.5441176471 453.442492722 -9 383.739257812 -9 c 1
 318.854305257 -9 267.656336879 29.815033524 246 83 c 1
 225.017493317 63.5648501389 153.531614121 -8 90 -8 c 3
 51.5030865374 -8 25 26.2 25 68 c 3
 25 99.1605090154 33.7364592055 129.028273235 36 137 c 0
 39.385511296 148.923076923 49.535354111 162.453228232 61 168 c 0
 126.30945414 199.59771701 164.77336906 197.717829228 231.149414062 212.887695312 c 1
 230.941330217 227.969241356 230.544097551 241.67390518 230.005859375 254.091796875 c 1
 230 260.293791376 227.815727625 275.881374383 224.022460938 291.045898438 c 0
 217.090751941 318.757123743 181.600505688 348 174 348 c 3
 172.888888889 348 163 344.03474007 163 341 c 3
 163 334.333333333 169.033482143 317.37037037 170.0390625 312 c 1
 58.0390625 265 l 1
 51.8168402778 277.75 44.0390625 303.25 44.0390625 316 c 1
 44.0390625 326.585365854 51.002025463 335.926829268 67.0390625 347 c 1
 141.071866828 391.625 208.293455756 410 225.51953125 410 c 1
 241.684969895 410 291.93535108 377.229232411 306.180664062 362.27734375 c 1
 343.067465208 396.975065839 377.076511337 411 388 411 c 1
 448.446027739 411 504.459079542 372.267501898 532.859375 323 c 0
 549 295 559.305306527 293.933333333 563 295 c 1
 561 271 l 1
 489.366573935 253.9 409.212445976 233.542857143 335.696289062 214 c 1
229.563476562 182.689453125 m 1
 196.484601875 174.163903903 156.881254913 175.087479306 145 156 c 0
 140.553517458 148.856634747 134 137.0766 134 117 c 3
 134 100.712154961 149.120268797 70 176 70 c 3
 195.015574171 70 229.775939699 101.586285242 236.560546875 109.82421875 c 1
 231.564165879 130.958429286 229.301258938 155.524884467 229.563476562 182.689453125 c 1
EndSplineSet
Substitution2: "pcap-1" ae.pcap
Substitution2: "case-1" AE
Substitution2: "smcp-1" ae.smcp
EndChar
StartChar: eth
Encoding: 240 240 279
Width: 471
VWidth: 1159
UnlinkRmOvrlpSave: 1
Flags: HW
LayerCount: 2
Back
SplineSet
300 284 m 5
 276.727272727 341.56 190.493926147 340 204 340 c 7
 193.707692308 340 132 336.581113428 132 281 c 7
 132 169.607062372 198.353027344 70 312 70 c 7
 318.34531764 70 321 122.194546084 321 168 c 7
 321 314.381994739 206 576 63 695 c 5
 67.7662192294 702.780807573 77.2373046875 727.453125 77.2373046875 727.453125 c 5
 260.283740169 675.166289781 435 439.719447105 435 235 c 7
 435 113.962890625 360.284179688 -5 193 -5 c 7
 102.911132812 -5 28 65.923828125 28 171 c 7
 28 328.381823418 183.423728814 408 287 408 c 7
 280.807367625 408 268.33465882 413.689971152 262 420 c 5
 300 284 l 5
EndSplineSet
Fore
SplineSet
317 252 m 1
 289.606060606 342.451428571 219.897774431 340 204 340 c 3
 193.707692308 340 132 336.581113428 132 281 c 3
 132 171.718776829 201.975613382 74 284 74 c 3
 310.086305853 74 321 124.064156448 321 168 c 3
 321 314.381994739 206 576 63 695 c 1
 67.7662192294 702.780807573 77.2373046875 727.453125 77.2373046875 727.453125 c 1
 260.283740169 675.166289781 435 439.719447105 435 235 c 3
 435 113.962890625 360.284179688 -5 193 -5 c 3
 102.911132812 -5 28 65.923828125 28 171 c 3
 28 328.381823418 183.423728814 408 287 408 c 3
 300.700506505 408 316.117932241 409.896657051 326 412 c 1
 317 252 l 1
EndSplineSet
Refer: 1034 58113 N 0.284488 0.177084 -0.547233 0.872389 85.756 489.958 2
Substitution2: "pcap-1" eth.pcap
Substitution2: "case-1" Eth
Substitution2: "smcp-1" eth.smcp
EndChar
StartChar: thorn
Encoding: 254 254 317
Width: 515
VWidth: 1159
Flags: HW
LayerCount: 2
Fore
SplineSet
195 318 m 1
 193 136 192.922851562 199 192.922851562 124 c 3
 192.922851562 124.487304688 200.92578125 109.142578125 209 101.518554688 c 0
 234.791992188 74.26171875 277.49609375 63 306 63 c 3
 355 63 369 102.26953125 369 144 c 3
 369 247 322.375976562 346 214 346 c 3
 202.23046875 346 195 322 195 318 c 1
83 23 m 1
 89.2578 177.6346875 89 260.23046875 89 510 c 3
 89 533 83.2548191584 576.668675022 78 591 c 0
 67 621 50 629 15 629 c 3
 1 629 4 639 6 650 c 1
 8 686 l 1
 31 675 124 724 210 759 c 1
 230 737 l 1
 224 717 210.909179688 685.00390625 210 667 c 0
 207.598632812 684.17578125 195.98046875 449.903320312 196 364 c 1
 207.282226562 372 243.671875 408 300 408 c 3
 409.635742188 408 483 319 483 230 c 3
 483 113.28125 379.008 -5 220 -5 c 3
 215.15234375 -5 206.213867188 -5.6484375 195 -15 c 1
 195 -88 195 -240 205 -273 c 0
 208.944527034 -286.016939213 229.735856321 -293.308176792 237 -294 c 0
 258 -296 284 -298 303 -300 c 1
 303 -344 l 1
 245 -343 207 -341 150 -341 c 3
 108 -341 40 -346 -2 -350 c 1
 -4 -309 l 1
 9 -309 18.986328125 -305.93359375 31 -304 c 0
 48 -298 58.9077397894 -275.63362299 65 -247 c 0
 75 -200 79.1178 -41.7344 83 23 c 1
EndSplineSet
Substitution2: "pcap-1" thorn.pcap
Substitution2: "case-1" Thorn
Substitution2: "smcp-1" thorn.smcp
EndChar
StartChar: Aogonek
Encoding: 260 260 128
Width: 705
Flags: HW
LayerCount: 2
Back
SplineSet
390 -8.9794921875 m 5
 390 -8.9794921875 378 10.1103515625 370 38.9072265625 c 5
 415.508789062 49.2705078125 447.856445312 69.9599609375 439.563476562 100.247070312 c 0
 428.498046875 140.657226562 421.482421875 153.607421875 412 188 c 5
 367.107421875 208.509765625 293.530273438 213.40625 230 204 c 5
 216.926757812 170.885742188 203.145507812 155.5625 198.0546875 118.518554688 c 0
 193 81.7431640625 232.379882812 44.6826171875 291.5 41.55859375 c 5
 287.5 -11.1337890625 l 5
 243.64453125 -3.5107421875 169.069335938 0.8515625 104.580078125 0.8515625 c 7
 71.5947265625 0.8515625 41.248046875 -0.6708984375 19 -3.9111328125 c 5
 19 -3.9111328125 15.7998046875 19.34765625 15 44.73828125 c 5
 83.185546875 57.9873046875 105.564453125 97.78515625 109.467773438 107.530273438 c 0
 195.268554688 308.107421875 263.860351562 465.612304688 329.541015625 634.698242188 c 0
 334.62109375 647.775390625 337.328125 674.389648438 336.456054688 711 c 5
 401.65625 711 l 5
 402.788085938 683.991210938 402.13671875 652.0390625 406.369140625 636.926757812 c 0
 463.416992188 430.993164062 499.572265625 310.790039062 614.416992188 80.8017578125 c 0
 630.442382812 49.0556640625 675.85546875 41.4619140625 690 42.705078125 c 5
 690 42.705078125 688 18.9169921875 686 -5.0830078125 c 5
 652.33984375 -1.6083984375 608.365234375 0.2919921875 563.958007812 0.2919921875 c 7
 494.3515625 0.2919921875 423.680664062 -2.54296875 390 -8.9794921875 c 5
EndSplineSet
Fore
SplineSet
249.9375 260.079101562 m 1
 280.717766001 250.559781626 364.285365274 253.406828649 392.673828125 253.881835938 c 1
 364.323958376 319.73281675 344.760857731 352.996968843 310.16796875 420.154296875 c 1
 280.171181358 351.99751753 271.620622023 317.707633912 249.9375 260.079101562 c 1
452 12 m 0
 452.817672098 14.8566340977 453.181665389 18.8237889789 453.181665389 23.5612509549 c 0
 453.181665389 44.5323625239 446.049115716 80.597855684 439.563476562 102.247070312 c 0
 427.215200603 143.465903218 423.012627139 153.179444879 415.080078125 185.901367188 c 1
 371.192355694 204.9541489 296.04167256 216.472322772 228 202 c 5
 216.330269589 171.373170886 202.995245762 157.400905267 198.0546875 120.518554688 c 0
 193.000478145 82.7877737793 232.380341805 43.8728519035 291.5 41.55859375 c 1
 287.5 -12.1337890625 l 1
 244.162347905 -3.92550119161 169.464165027 0.892578125 104.638671875 0.892578125 c 0
 71.7593838613 0.892578125 41.4198389396 -0.632258605878 19 -3.9111328125 c 1
 19 -3.9111328125 15 19.8259088962 14 45.73828125 c 1
 57.6588681065 52 96.0192767828 78.4868398137 109.467773438 109.530273438 c 0
 197.549462077 312.850995816 267.176677142 469.624603223 329.541015625 636.698242188 c 0
 335.999321599 654 337.328350219 676.389290161 336.456054688 713 c 1
 401.65625 713 l 1
 403.707934353 685.391038425 401.730715314 656.050988259 406.369140625 638.926757812 c 0
 459.668395585 442.155512547 493.663929966 327.968784595 601.416992188 107.198242188 c 0
 624.453376805 60 632.900350333 48.5824709577 690 39.705078125 c 1
 690 39.705078125 688 16.9125577336 686 -6.0830078125 c 1
 658.733786158 3.58714197063 623.385744337 8.357421875 588.826171875 8.357421875 c 0
 554.411518268 8.357421875 509.068156074 1.87364390758 500 -14 c 0
 488.218877285 -34.6226431565 486 -48.6031263182 486 -70 c 3
 486 -141.362115397 514.609186072 -225.158203125 556.724609375 -225.158203125 c 3
 563.74289157 -225.158203125 565.565576531 -223.961735658 580 -223 c 1
 580 -223 585.938629642 -239.786330261 602.9609375 -273.998046875 c 1
 578.720011047 -316.082449023 526.991457894 -346.71484375 486.435546875 -346.71484375 c 3
 436.257575572 -346.71484375 386.78125 -298.349151526 386.78125 -233.951171875 c 3
 386.78125 -91.96351203 446.674219609 -6.60624312573 452 12 c 0
EndSplineSet
Position2: "cpsp-1" dx=0 dy=0 dh=50 dv=100
Substitution2: "c2pc-1" aogonek.pcap
Substitution2: "c2sc-1" aogonek.smcp
EndChar
StartChar: Eogonek
Encoding: 280 280 131
Width: 619
UnlinkRmOvrlpSave: 1
Flags: HW
HStem: -347.889 73.7197<484.634 553.852> -9 35<56 102.007> 333 36<205 473.393> 657 31<48 108.489>
VStem: 124 81<87.2765 333 369 603.172> 395.766 71.875<-257.592 -149.807> 497 36<249 305.348> 538 30<537 619.889>
AnchorPoint: "Top" 330 699 basechar 0
LayerCount: 2
Back
SplineSet
48 688 m 1
 120.521055818 684.355725838 206.588460485 682.969176485 287.955928091 682.969176485 c 0
 429.86328558 682.969176485 557.47511282 687.186564497 574 691 c 1
 585.145145837 681.247997393 589.133414459 675.741599913 589.133414459 667.087387512 c 0
 589.133414459 650.893580795 575.168856119 623.677987617 568 537 c 1
 538 534 l 1
 527 570 546 617 510 628 c 0
 468.488636507 639.860389569 402.664140046 646.076658986 339.417525988 646.076658986 c 0
 306.677490841 646.076658986 274.628246937 644.410894684 247 641 c 0
 229 639 216 625 215 607 c 0
 211 525.313559322 206 444.635593221 205 369 c 1
 269 371 429 371 443 372 c 0
 480 377 485 403 501 447 c 1
 535 440 l 1
 526.800908316 409.132831309 523.486685813 378.498275435 523.486685813 347.871954284 c 0
 523.486685813 314.997648821 527.305294619 282.132831309 533 249 c 1
 497 240 l 1
 477 311 484 324 443 328 c 0
 399 333 298 332 205 333 c 1
 204 235.613545816 208 147.262948207 220 81 c 0
 224 64 233 50 250 49 c 0
 295.831179232 44.5647245905 336.319436302 40.3723092792 374.696225476 40.3723092792 c 0
 414.193090286 40.3723092792 451.453436792 44.8130178498 490 58 c 0
 550.414440108 78.6680979317 560.916666667 101 601 177 c 1
 629 170 l 1
 601.909278218 96.0751847998 563.005363884 18.4683882549 538.489257812 -19.9775390625 c 0
 508.313510966 -67.2988618945 467.640625 -148.391015834 467.640625 -206.689453125 c 0
 467.640625 -242.779181534 495.826784961 -274.168945312 526.834960938 -274.168945312 c 0
 547.809960937 -274.168945312 572.993960937 -265.436945313 598.834960938 -246.168945312 c 1
 598.834960938 -246.168945312 609.943822568 -256.497164572 612.633789062 -264.569335938 c 1
 585.578932221 -312.305955472 533.145209671 -347.888671875 491.565429688 -347.888671875 c 0
 442.385016588 -347.888671875 395.765625 -303.499671875 395.765625 -247.513671875 c 0
 395.765625 -172.157942368 443.587456716 -80.3722695124 506.53125 0.1865234375 c 1
 426.116814261 0.92057786207 344.873636713 3.07020290016 269.953021447 3.07020290016 c 0
 188.876938008 3.07020290016 115.205017511 0.552841530585 58 -9 c 1
 48 26 l 1
 101 36 124 49 124 77 c 1
 125.797958971 111.804426856 126.787753827 207.154066657 126.787753827 309.259280672 c 0
 126.787753827 434.312117879 125.303061543 569.498316407 122 616 c 0
 121 643 116 643 43 657 c 1
 48 688 l 1
EndSplineSet
Fore
SplineSet
19 683 m 1
 164.041992188 675.711914062 213.176757812 672.938476562 297.912109375 672.938476562 c 0
 461.7265625 672.938476562 529.950195312 681.373046875 563 689 c 1
 576.150390625 677.61328125 580.794921875 672.633789062 580.794921875 664.500976562 c 0
 580.794921875 649.040039062 568.204101562 622.23046875 561 520 c 1
 519 514 l 1
 517 530 511.488088997 574.818099158 495 587 c 0
 462.73828125 610.8359375 408.797851562 621.568359375 358.26953125 621.568359375 c 0
 331.68359375 621.568359375 306.041914989 618.596969925 285 613 c 0
 277.671875 611.05078125 268.443774177 570.305608402 268 567 c 0
 260 507.409179687 253 434.249023438 251 378 c 1
 287.83984375 382 403.945392683 381.927422738 412 384 c 0
 451.37890625 394.1328125 469.5 458.700195312 480 473 c 1
 524 459 l 1
 515.80078125 422.314453125 512.486328125 385.90625 512.486328125 349.5078125 c 0
 512.486328125 310.4375 516.305664062 271.377929688 522 232 c 1
 474 214 l 1
 452.5 276.700195312 455.964941496 302.641849132 412 320 c 0
 386.671875 330 304.53515625 328 251 330 c 1
 249 255.415039062 257.999135015 175.748082055 274 125 c 0
 278.137695312 111.876953125 295.684497649 81.8807508536 297 81 c 0
 317.672851562 67.1591796875 337.379882812 64.060546875 360.392578125 64.060546875 c 0
 382.389648438 64.060546875 430.673841565 76.3954865043 457 93 c 0
 513.865234375 128.866210938 531.666992188 150.8828125 583 199 c 1
 616 191 l 1
 606.525930667 120.995781681 558.588975069 22.1106094021 533.945775115 -33.9999988128 c 0
 516.060397289 -74.7235830004 506.58203125 -125.888853085 506.58203125 -146.0625 c 0
 506.58203125 -182.943359375 528.670898438 -215.021484375 552.970703125 -215.021484375 c 0
 558.514648438 -215.021484375 566.711914062 -214.560546875 572 -214 c 1
 572 -214 597.186523438 -236.963867188 603.284179688 -254.911132812 c 1
 576.229492188 -302.647460938 523.794921875 -338.23046875 482.21484375 -338.23046875 c 0
 433.03515625 -338.23046875 386.416015625 -289.419921875 386.416015625 -227.85546875 c 0
 386.416015625 -156.705517203 428.905622705 -69.9958472367 484.413085938 6.0068359375 c 1
 354.328804549 6.86942169791 331.018420129 12.1396484375 272.466796875 12.1396484375 c 0
 178.909179688 12.1396484375 143.36328125 7.10546875 25 -12 c 1
 11 26 l 1
 68.375 43.908203125 111.187214209 73.9716809726 113 109 c 0
 116.595703125 178.479492188 118.575195312 184.825195312 118.575195312 271.65625 c 0
 118.575195312 406.297851562 115.084196148 495.132826374 109 588 c 0
 107 618.52734375 85.31640625 618.536132812 9 645 c 1
 19 683 l 1
EndSplineSet
Position2: "cpsp-1" dx=0 dy=0 dh=50 dv=100
Substitution2: "c2pc-1" eogonek.pcap
Substitution2: "c2sc-1" eogonek.smcp
EndChar
StartChar: eogonek
Encoding: 281 281 232
Width: 445
UnlinkRmOvrlpSave: 1
Flags: HW
HStem: -326 60.1279<283.116 358.674> 425 168
VStem: 56 185 196.562 69.21<-249.43 -117.14>
AnchorPoint: "Top" 209 465 basechar 0
LayerCount: 2
Fore
SplineSet
367.069335938 45.6806640625 m 1
 287.984375 -24.4150390625 269.330078125 -97.8818359375 269.330078125 -153.823242188 c 3
 269.330078125 -189.192382812 291.750976562 -211.658203125 326.349609375 -211.658203125 c 3
 329.250976562 -211.658203125 334.442382812 -212.745117188 350.256835938 -209.223632812 c 1
 343.311523438 -204.868164062 359.475585938 -219.8046875 361.387695312 -226.29296875 c 1
 333.8984375 -280.849609375 288.590820312 -303.658203125 248.120117188 -303.658203125 c 3
 198.778320312 -303.658203125 154.912109375 -266.974609375 154.912109375 -202.493164062 c 3
 154.912109375 -146.52734375 206.487304688 -29.1611328125 360.892578125 66.0888671875 c 1
 367.069335938 45.6806640625 l 1
EndSplineSet
Refer: 215 101 N 1 0 0 1 0 0 3
Substitution2: "smcp-1" eogonek.smcp
Substitution2: "case-1" Eogonek
Substitution2: "pcap-1" eogonek.pcap
EndChar
StartChar: dotlessi
Encoding: 305 305 213
Width: 281
Flags: HMW
AnchorPoint: "Top" 153.996 465 basechar 0
LayerCount: 2
Fore
SplineSet
211.99609375 187 m 7
 211.99609375 152.39453125 216.067382812 93.994140625 220.99609375 61 c 4
 223.781656901 44.28125 237.140299479 29.7431640625 246.99609375 27 c 4
 258.018554688 23.5791015625 267.538085938 23.6669921875 275.99609375 23 c 5
 270.99609375 -10 l 5
 230.748046875 -4 185.33984375 1 141.99609375 1 c 7
 108.55859375 1 68.43359375 -6 34.99609375 -10 c 5
 30 22.9951171875 l 5
 42.4462890625 24.595703125 61.9033203125 28.712890625 72.99609375 31 c 4
 74.3310546875 31.3095703125 87.19140625 39.4091796875 90.99609375 86 c 4
 92.6826171875 106.651367188 95.99609375 145.939453125 95.99609375 167 c 7
 95.99609375 189.240234375 92.6064453125 280.364257812 87.99609375 306 c 4
 85.99609375 316 72.0791015625 319 65.99609375 319 c 4
 65.99609375 319 65.99609375 318.850585938 49.49609375 318.799804688 c 5
 40.99609375 352 l 5
 61.9183808255 353.049804688 129.904471866 377.169921875 211.99609375 423 c 5
 229.99609375 401 l 5
 227.370117188 396.276367188 224.147460938 370.71484375 222.998046875 362.599609375 c 4
 216.764648438 298.599609375 211.99609375 204.875 211.99609375 187 c 7
EndSplineSet
Substitution2: "case-1" I
Substitution2: "pcap-1" i.pcap
Substitution2: "smcp-1" i.smcp
EndChar
StartChar: OE
Encoding: 338 338 1309
Width: 1081
Flags: HW
AnchorPoint: "Bottom" 572.957 -15 basechar 0
AnchorPoint: "Top" 583.585 699 basechar 0
LayerCount: 2
Fore
SplineSet
347 630 m 3
 259 630 199 553.020877987 199 418 c 3
 199 235.398837838 335.156549521 67 462 67 c 3
 482.223748416 67 493 98.42222 496 148 c 1
 498.844221176 163.609497471 500.989374792 200.689607568 500.989374792 244.144624328 c 1
 500.989374792 342.999317 496.749936179 467.295369236 494 507 c 0
 488.729818531 620.086636136 411.07790411 630 347 630 c 3
424 -7 m 3
 210 -7 37 145.659140762 37 336 c 3
 37 527.127628169 212 694 422 694 c 3
 507.490017004 694 461.789007914 684.96875 696.956054688 684.96875 c 3
 838.863027557 684.96875 966.475003159 689.186881304 983 693 c 1
 994.145145837 683.247997393 998.133414459 677.741599913 998.133414459 669.087387512 c 0
 998.133414459 652.893580795 984.168856119 625.677987617 977 539 c 1
 939 534 l 1
 920.536132812 561.19140625 933 582 872 597 c 0
 756.194000542 626.512908746 740 625 707 625 c 0
 678.07520507 625 658 595.870923845 656 571 c 0
 648 504.072033898 638 437.970338983 635 376 c 1
 683.134453782 381 800.440891507 381.33286506 814 383 c 0
 864.862068966 392.466666667 882.275862069 431.693333333 900 450 c 1
 944 441 l 1
 935.800908316 410.132831309 932.486685813 379.498275435 932.486685813 348.871954284 c 0
 932.486685813 315.997648821 936.305294619 283.132831309 942 250 c 1
 893 238 l 1
 866 303.352272727 873.145189341 311.377276143 812 319 c 0
 779.277310924 328 704.163865546 326.2 635 328 c 1
 633.4 232.545816733 641.214250312 185.961749968 664 124 c 0
 671.821289062 100.462890625 688.698914593 86.4758140555 708 72 c 0
 724 60 745.319536666 54.3725482459 783.696161889 54.3725482459 c 0
 797.844259738 54.3725482459 858.938265374 78.382399111 884 94 c 0
 926.682742618 120.598399871 958 148 1002 179 c 1
 1035 170 l 1
 1019 104 1008 62 996 0 c 1
 886.301 -0.545565 771.508 3.06988 667.928 3.06988 c 3
 487.932 3.06988 491.022 -7.00002 424 -7 c 3
EndSplineSet
Position2: "cpsp-1" dx=0 dy=0 dh=50 dv=100
Substitution2: "c2pc-1" oe.pcap
Substitution2: "c2sc-1" oe.smcp
EndChar
StartChar: oe
Encoding: 339 339 389
Width: 735
UnlinkRmOvrlpSave: 1
Flags: HW
HStem: -14 39<190.397 302.402> 371 45<159.168 278.592> 425 168
VStem: 32 76<120.631 292.302> 359 78<100.689 280.313> 379 185
AnchorPoint: "Top" 395 465 basechar 0
AnchorPoint: "Bottom" 393 -15 basechar 0
LayerCount: 2
Fore
SplineSet
261 416 m 3
 396.571345159 416 481 310.36694517 481 202 c 3
 481 71.8189060376 383.72697948 -15 260 -15 c 3
 133.235899884 -15 32 65.8222036262 32 191 c 3
 32 349.975914404 171.297091569 416 261 416 c 3
219 350 m 3
 168.004491611 350 160 297.770752263 160 257 c 3
 160 160.577796374 212.765408208 39 278 39 c 3
 334.109645049 39 349 110.894056925 349 154 c 3
 349 299.520905298 255.401311091 350 219 350 c 3
EndSplineSet
Refer: 4 101 N 1 0 0 1 326 0 2
Substitution2: "smcp-1" oe.smcp
Substitution2: "case-1" OE
Substitution2: "pcap-1" oe.pcap
EndChar
StartChar: uogonek
Encoding: 371 371 1207
Width: 535
UnlinkRmOvrlpSave: 1
Flags: HW
HStem: -300 60.1279<113.017 190.674>
VStem: 28.562 69.209<-226.6 -119.119>
LayerCount: 2
Fore
SplineSet
433.719726562 16.3388671875 m 1
 354.633789062 -12.162109375 335.98046875 -78.4765625 335.98046875 -150.165039062 c 3
 335.98046875 -185.534179688 358.401367188 -208 393 -208 c 3
 395.901367188 -208 401.091796875 -209.086914062 416.907226562 -205.565429688 c 1
 409.961914062 -201.209960938 426.125976562 -216.146484375 428.038085938 -222.634765625 c 1
 400.547851562 -277.19140625 355.241210938 -300 314.770507812 -300 c 3
 265.427734375 -300 221.5625 -263.31640625 221.5625 -198.834960938 c 3
 221.5625 -119.745117188 273.13671875 -16.7998046875 427.54296875 36.7470703125 c 1
 433.719726562 16.3388671875 l 1
EndSplineSet
Refer: 519 117 N 1 0 0 1 0 0 2
Substitution2: "smcp-1" uogonek.smcp
Substitution2: "case-1" Uogonek
Substitution2: "pcap-1" uogonek.pcap
EndChar
StartChar: uni018F
Encoding: 399 399 539
Width: 677
Flags: HW
HStem: -24.5 69.25<264.739 399.5> 645.75 66.5<218.254 394.047>
VStem: 553 83.25<318.612 483.505>
LayerCount: 2
Fore
SplineSet
361 89.5 m 3
 453.5846182 89.5 484.942562666 182.118970711 489.5 252.5 c 1
 399.150000678 234.856821606 310.257389456 215.702021921 219 199 c 1
 227.744680852 166.98765432 297.55319149 89.5 361 89.5 c 3
326.5 -24.5 m 3
 227.816546763 -24.5 116.457484214 60.5054053949 90 128 c 0
 82.8060310481 146.352236898 41.4377880184 156.4 29 158.75 c 1
 29 218.75 l 1
 494.5 307 l 1
 494.5 320.026315789 494.25 335.223684211 494.25 348.25 c 3
 494.25 529.403125 363.825183179 602.5 216.5 602.5 c 3
 161.35745614 602.5 115.600877193 578.3 82.75 553 c 1
 43 595.25 l 1
 116.5 652.029411765 221.5 712.25 342.25 712.25 c 3
 529.5 712.25 636.25 570.057894737 636.25 386.75 c 3
 636.25 80.5 386 -24.5 326.5 -24.5 c 3
EndSplineSet
Position2: "cpsp-1" dx=0 dy=0 dh=50 dv=100
EndChar
StartChar: uni0195
Encoding: 405 405 980
Width: 724
VWidth: 1159
Flags: W
HStem: -9 56<457.895 586.431> -5 33<20.3636 70.1397> 347 83<562.635 622.741> 362 49<222.66 339.42> 649 32<21.25 64.7042> 734 20G<148.5 189>
VStem: 92 65<44.0985 338.876 361 587.643> 352 74<78.7451 262.054> 366.642 70.0771<150.008 333.41> 662 34<140.146 298.408>
LayerCount: 2
Fore
SplineSet
284 362 m 3x9ec0
 237.511811024 362 192.960629921 348 161 330 c 1
 159 290.477272727 157 239.204545455 157 189 c 3
 157 130 159.174662365 75.1900322616 162 54 c 0
 164 39 183.085896873 34.4253562504 194 32 c 0
 203 30 222 28 232 27 c 1
 228 -7 l 1
 189 -1 159 4 117 4 c 3
 87 4 51 -1 21 -5 c 1
 18 28 l 1
 29 30 35.1817100136 30.1778373948 46 33 c 0
 69 39 81.3132247115 48.0575369992 84 76 c 0
 89 128 92 209 92 274 c 3
 92 511 90.315871388 604.946057792 89 626 c 0
 88 642 82 656 65 656 c 3
 59 656 33 650 23 649 c 1
 15 681 l 1
 67 692 127 720 170 754 c 1
 189 738 l 1
 183 724 176.562049935 696.934349546 175 686 c 0
 165 617.886227545 162 471.928143713 161 361 c 1
 212.74556213 392 284.99408284 411 326 411 c 3
 402.232479641 411 436.71875 350.667590362 436.71875 269.390625 c 3x5ec0
 436.71875 228.59375 426 203.875 426 147 c 3
 426 66 481.608247423 47 519 47 c 3
 614.037267081 47 662 139 662 224 c 3
 662 337 590.149253731 347 546 347 c 1
 544 350 542 353 542 361 c 3
 542 383 572 422 579 430 c 1
 649.2 430 696 314 696 220 c 3
 696 109 625.568720379 -9 503 -9 c 3
 422.141935484 -9 352 44 352 148 c 3xaf40
 352 199.055795116 366.641611384 223.199481798 366.641611384 258.253199738 c 3
 366.641611384 319.260915156 339.126181232 362 284 362 c 3x9ec0
EndSplineSet
Validated: 1
Substitution2: "smcp-1" uni0195.smcp
Substitution2: "pcap-1" uni0195.pcap
EndChar
StartChar: uni0199
Encoding: 409 409 1051
Width: 486
VWidth: 1159
Flags: W
HStem: -5 33<16.6364 68.0934 297.455 341.094 440 484.545> 374 27<252 282.949 400.163 448.333> 661 107<269.336 329.412>
VStem: 88 64<55.2479 214 237 639.997>
LayerCount: 2
Fore
SplineSet
84 512 m 3
 84 606.576271186 105.564990482 649.938384759 156 697 c 0
 194 734 282.484375 767.183908046 290 768 c 1
 311 768 345 740 345 713 c 3
 345 682 316 661 277 661 c 1
 268.882352941 694.75 251.294117647 701 231 701 c 3
 217.829268293 701 187.484739915 687.682705237 171 669 c 0
 156 652 158 591 156 541 c 24
 150 423 150 361 150 237 c 1
 184 262 235 298 266 328 c 0
 273 335 284 348 284 355 c 3
 284 373 260 372 250 374 c 1
 252 401 l 1
 278 399 313 399 340 399 c 3
 373 399 416 399 448 403 c 1
 450 371 l 1
 387 364 350 341 316 319 c 2
 215 255 l 17
 286 187 356 121 429 52 c 1
 445 37 473 29 487 28 c 1
 484 -6 l 1
 450 0 432 4 390 4 c 3
 360 4 328 -3 298 -5 c 1
 295 28 l 1
 331 33 331 37 342 38 c 1
 290 92 215 168 161 220 c 1
 152 214 l 1
 152 146 154 80 158 54 c 0
 160 39 169 38 179 33 c 0
 189 29 199 28 213 27 c 1
 208 -7 l 1
 174 -1 155 4 113 4 c 3
 83 4 47 -3 17 -5 c 1
 15 28 l 1
 26 29 37 31 47 33 c 0
 70 40 77 48 79 76 c 0
 84 128 88 209 88 274 c 3
 88 329 84 453.635243062 84 512 c 3
EndSplineSet
Validated: 1
EndChar
StartChar: ohorn
Encoding: 417 417 271
Width: 505
UnlinkRmOvrlpSave: 1
Flags: HW
LayerCount: 2
Fore
SplineSet
334.482421875 402.741210938 m 1
 344.873860444 398.701262026 362.207654362 399 370 399 c 3
 379.409702979 399 384.001953125 408.050250777 384.001953125 418.12109375 c 3
 384.001953125 421.072394656 382.251349885 442.602730656 376.6640625 466.818359375 c 1
 407.686812208 489.662124444 437.317709668 508.438783974 468.593643106 508.438783974 c 3
 507.346136159 508.438783974 528.528388939 479.503581353 528.528388939 445.9790134 c 3
 528.528388939 396.089685559 450.426516037 365.359813167 388.72825766 365.359813167 c 3
 374.848583752 365.359813167 364.223112925 367.723174319 356 372.504213497 c 0
 345.504051227 378.606712971 338.92199236 388.648061695 334.482421875 402.741210938 c 1
EndSplineSet
Refer: 14 111 N 1 0 0 1 0 0 2
Substitution2: "smcp-1" ohorn.smcp
Substitution2: "case-1" Ohorn
Substitution2: "pcap-1" ohorn.pcap
EndChar
StartChar: uni01A3
Encoding: 419 419 1514
Width: 557
VWidth: 1159
UnlinkRmOvrlpSave: 1
Flags: W
HStem: -164 33<369.364 424.185> -14.1611 39.1611<200.701 313.085> 371 45<167.005 304.067>
VStem: 31 76.1807<127.43 287.858> 322.011 47.1729<35.8684 356.382> 434 66<-54.6795 354.39>
LayerCount: 2
Fore
SplineSet
500 175 m 3
 500 89.859375 501.19140625 -22.3154296875 509 -103 c 0
 511 -118 531.338867188 -120.6328125 542 -124 c 0
 548.333007812 -126 555.458007812 -126.5 561 -127 c 1
 557 -161 l 1
 531.416015625 -156.63671875 493.551757812 -153 466 -153 c 3
 436 -153 400 -160 370 -164 c 1
 367 -131 l 1
 378 -130 394.181640625 -128.822265625 405 -126 c 0
 428 -120 429.774414062 -109.044921875 431 -81 c 0
 433 -14 434 85.32 434 155 c 3
 434 182.36 435.388027072 239.791566855 430 326 c 0
 429 342 424 355 407 355 c 3
 400.6 355 384.6 351 375 350 c 1
 370 382 l 1
 416.873239437 386.540540541 459.225585938 391.837890625 507 410 c 1
 527 394 l 1
 521 380 516.477539062 352.90234375 514 342 c 0
 504 298 500 192 500 175 c 3
235 371 m 3
 167.323216976 371 107.180664062 316.00363021 107.180664062 223.540039062 c 3
 107.180664062 120.253709448 177.826434932 25 264 25 c 3
 285.938476562 25 303.07421875 29.879138054 313.247070312 35.3681640625 c 1
 318.65945983 44.4950968477 322.010742188 153.28668175 322.010742188 208.404296875 c 3
 322.010742188 258.648419938 316.073522705 337.487393612 303.110351562 357.356445312 c 1
 283.62478018 365.458363748 262.337025657 371 235 371 c 3
258.436523438 416 m 3
 304.15422771 416 345.928497353 402.477677165 378.170898438 380.124023438 c 1
 376.158203125 322.656255568 369.18359375 265.188476562 369.18359375 207.721679688 c 3
 369.18359375 145.791015625 376.610351562 83.8593696575 379.357421875 21.9287109375 c 1
 345.639043415 -0.5986328125 301.514031234 -14.1611328125 251.623046875 -14.1611328125 c 3
 129.625165664 -14.1611328125 31 68.995869006 31 192.034179688 c 3
 31 333.604324776 148.380414706 416 258.436523438 416 c 3
EndSplineSet
Substitution2: "pcap-1" gha.pcap
Substitution2: "smcp-1" gha.smcp
EndChar
StartChar: uhorn
Encoding: 432 432 272
Width: 526
UnlinkRmOvrlpSave: 1
Flags: HW
HStem: -11 55<175.733 263.795> 338 31<292 351.243> 402 20G<128 167>
VStem: 70 76<75.1633 330.249> 359 64<36.0058 52 76.9705 331.63> 493.501 86.0273<404.739 481.559>
AnchorPoint: "Top" 265 465 basechar 0
AnchorPoint: "Bottom" 256 -15 basechar 0
LayerCount: 2
Fore
SplineSet
410 375 m 5
 418.121414362 381.745491074 430.375771951 388.077148438 438 390.077148438 c 5
 462.968647592 396.077148438 493.500976562 408.485648026 493.500976562 441.560546875 c 3
 493.500976562 449.639517266 489.983409974 459.025396022 479.6640625 470.818359375 c 1
 495.576431876 489.781246013 515.380014732 500.219726562 533.796875 500.219726562 c 3
 563.365825233 500.219726562 579.528320312 475.092318034 579.528320312 445.979492188 c 3
 579.528320312 396.08959691 501.426629866 370.359375 439.728515625 365.359375 c 1
 422.413060772 365.359375 414.339204806 368.517835056 410 375 c 5
285 369 m 1
 339.422818792 375.199161305 395.899328859 382.557301496 438 390.077148438 c 1
 445 378 l 1
 431 335.584 423 173.632 423 137 c 3
 423 107 426.284077022 81.1592297825 429 54 c 0
 430 44 433 36 443 36 c 3
 447 36 473 43 493 48 c 1
 499 17 l 1
 463 8 419.410107664 -9.647473084 386 -18 c 0
 382 -19 381 -22 376 -22 c 3
 359 -22 359 0 354 52 c 1
 313 34 236 -11 178 -11 c 3
 140 -11 102.934188969 5.51320688895 86 44 c 0
 75 69 70 95 70 143 c 3
 70 198 73 255 73 312 c 0
 73 322 69 331 59 331 c 3
 49 331 28 319 22 317 c 1
 12 348 l 1
 53 359 107 394 149 422 c 1
 167 406 l 1
 152 336 146 254 146 177 c 3
 146 106 161 44 232 44 c 3
 269 44 322 69 353 85 c 1
 354 154 359 291 359 298 c 3
 359 337 329 337 292 338 c 1
 285 369 l 1
EndSplineSet
Substitution2: "smcp-1" uhorn.smcp
Substitution2: "case-1" Uhorn
Substitution2: "pcap-1" uhorn.pcap
EndChar
StartChar: uni01B3
Encoding: 435 435 1048
Width: 800
VWidth: 1159
Flags: W
HStem: -11 42<249 319.795> 645.274 56.2148<622.627 695.926> 652 40<9.3 74.8905>
VStem: 353 78<94.0337 325.384> 696 97<564.954 643.646>
AnchorPoint: "Top" 387 699 basechar 0
AnchorPoint: "Bottom" 387 -15 basechar 0
LayerCount: 2
Fore
SplineSet
431 335 m 1xd8
 430 285 424.409677786 232.80451327 444 80 c 0
 449 41 469 36 550 32 c 1
 545 -11 l 1
 440.578125 3.193359375 352.874023438 6.126953125 249 -11 c 1
 237 31 l 1
 316 43.8798828125 353.891760422 55.8578591121 353 100 c 2
 349 298 l 1
 342 309.404296875 244.657000474 472.503851361 114 608 c 0
 87 636 65 636 6 652 c 1
 10 692 l 1xb8
 67 686 211 679 269 690 c 1
 274 651 l 1
 274 651 252 649 237 649 c 0
 219 649 204.251994244 639.160430422 215 622 c 0
 306 476.708007812 396 373.2265625 401 368 c 1
 503.652364082 548.396433938 557.974118707 701.489257812 679.770507812 701.489257812 c 3
 750.689656377 701.489257812 793 659.763980872 793 599 c 3
 793 559.444658561 765.129127673 540.030273438 735.740234375 540.030273438 c 3
 713.598681853 540.030273438 690.595489704 552.806929751 678 578 c 1
 687.570921215 592.361991845 696 599.861661579 696 627 c 3
 696 637.211920027 681.656639289 645.274414062 664.823242188 645.274414062 c 3
 589.980104771 645.274414062 470.279577527 407.537279721 431 335 c 1xd8
EndSplineSet
Validated: 33
EndChar
StartChar: uni01EA
Encoding: 490 490 583
Width: 845
UnlinkRmOvrlpSave: 1
Flags: HW
HStem: -346.889 73.7197<406.804 473.852> -7 50<342.523 545.448> 657 49<304.396 495.712>
VStem: 43 93<267.4 455.825> 315.766 71.875<-253.641 -127.154> 701 101<222.803 442.21>
AnchorPoint: "Middle" 417.697 364.853 basechar 0
AnchorPoint: "Top" 420 699 basechar 0
LayerCount: 2
Fore
SplineSet
572 19 m 1
 490 -13.8012796387 475.58203125 -115.855074692 475.58203125 -146.0625 c 3
 475.58203125 -182.943359375 497.670898438 -215.021484375 521.970703125 -215.021484375 c 3
 527.514648438 -215.021484375 535.711914062 -214.560546875 541 -214 c 1
 541 -214 566.186523438 -236.963867188 572.284179688 -254.911132812 c 1
 545.229492188 -302.647460938 492.794921875 -338.23046875 451.21484375 -338.23046875 c 3
 402.03515625 -338.23046875 355.416015625 -289.419921875 355.416015625 -227.85546875 c 3
 355.416015625 -139.665890773 396 -10.7549373942 563.30078125 59.71875 c 1
 572 19 l 1
EndSplineSet
Refer: 1303 79 N 1 0 0 1 0 0 3
Position2: "cpsp-1" dx=0 dy=0 dh=50 dv=100
EndChar
StartChar: uni01EB
Encoding: 491 491 584
Width: 505
UnlinkRmOvrlpSave: 1
Flags: HW
HStem: -326 60.1279<272.366 350.024> -11 39<199.926 327.747> 374 45<168.903 305.133>
VStem: 32 76<130.211 291.037> 187.912 69.209<-252.6 -139.048> 395 78<107.641 276.826>
AnchorPoint: "Top" 251 465 basechar 0
AnchorPoint: "Middle" 255 206 basechar 0
LayerCount: 2
Fore
SplineSet
385.719726562 30.3388671875 m 1
 306.633789062 -33.0809950055 287.98046875 -99.5508968109 287.98046875 -150.165039062 c 3
 287.98046875 -185.534179688 310.401367188 -208 345 -208 c 3
 347.901367188 -208 353.091796875 -209.086914062 368.907226562 -205.565429688 c 1
 361.961914062 -201.209960938 378.125976562 -216.146484375 380.038085938 -222.634765625 c 1
 352.547851562 -277.19140625 307.241210938 -300 266.770507812 -300 c 3
 217.427734375 -300 173.5625 -263.31640625 173.5625 -198.834960938 c 3
 173.5625 -146.827841159 225.13671875 -37.7647684574 379.54296875 50.7470703125 c 1
 385.719726562 30.3388671875 l 1
EndSplineSet
Refer: 358 111 N 1 0 0 1 0 0 3
Substitution2: "case-1" uni01EA
EndChar
StartChar: uni0257
Encoding: 599 599 1055
Width: 511
Flags: HW
HStem: -5 49<178.135 296.318> 359 46<179.926 341.536> 660 107<546.336 606.412>
VStem: 34 64<133.032 265.795> 361 66<34.2536 53 67.5748 338.094 386 626.602>
LayerCount: 2
Fore
SplineSet
228 359 m 3
 206 359 175 345 155 333 c 0
 123 312 98 278 98 226 c 3
 98 136 154 44 256 44 c 3
 297 44 333 60 358 80 c 1
 359 154 362 231 362 306 c 0
 362 337 336 340 310 346 c 0
 284 352 238 359 228 359 c 3
364 511 m 3
 364 605.576271186 384.666449212 648.938384759 433 696 c 0
 471 733 559.484375 766.183908046 567 767 c 1
 588 767 622 739 622 712 c 3
 622 681 593 660 554 660 c 1
 545.882352941 693.75 528.294117647 700 508 700 c 3
 494.829268293 700 464.484739915 686.682705237 448 668 c 0
 433 651 434.110619241 589.997665195 433 540 c 0
 431.800766417 486.013109645 427 371.343764165 427 185 c 3
 427 133 428 80 435 32 c 0
 437 18 448 22 449 22 c 0
 463 26 490 34 502 38 c 1
 511 11 l 1
 458 -9 395 -32 381 -32 c 3
 374 -32 365 -30 363 -15 c 0
 361 8 361 49 361 53 c 1
 317 23 260 -5 197 -5 c 3
 97 -5 34 79 34 172 c 3
 34 252 80 321 135 359 c 0
 181 390 237 405 267 405 c 3
 292 405 349 388 363 386 c 1
 363 421 364 482.759166021 364 511 c 3
EndSplineSet
EndChar
StartChar: uni0263
Encoding: 611 611 1040
Width: 446
VWidth: 1159
Flags: W
HStem: -339 49<191.879 273.333> 376 30<9.73333 36.5759 178 185.296 276.52 341.625 408.694 443.357>
VStem: 109 49<-252.778 -114.613> 285 67<-276.48 -89.8878>
AnchorPoint: "Top" 232.5 465 basechar 0
LayerCount: 2
Fore
SplineSet
58 348 m 0
 50.3424671066 357.505902902 47.9141031266 367.57464375 37 370 c 0
 28 372 16 375 6 376 c 1
 10 406 l 1
 33 402 68 400 91 400 c 3
 125 400 153 401 185 407 c 1
 189 379 l 1
 156 370 l 0
 149 369 145 368 145 359 c 3
 145 358 146.932155488 350.985951073 148 346 c 0
 166.252631579 260.775300172 352 3.06190365398 352 -200 c 3
 352 -277.724271498 293.29747869 -339 223 -339 c 3
 159.095285776 -339 109 -283.268120235 109 -216 c 3
 109 -113.542459633 181.567480875 -15.7673194624 237.803865363 83.9999967888 c 0
 277.768602999 154.90026278 312.294317866 243.030112532 342 319 c 0
 344.651190392 325.780205713 347 335 347 344 c 3
 347 366 340 367 271 381 c 1
 277 411 l 1
 308 404 351 400 369 400 c 3
 394 400 422 402 443 408 c 1
 448 378 l 1
 410 368 401.650711875 362.728148218 383 319 c 0
 370.592105888 289.908658264 324.402676102 184.870733252 259.75671854 63.0000044808 c 0
 215 -21.3754787147 158 -101.168796677 158 -179 c 3
 158 -234.200296232 188.832485703 -290 243 -290 c 7
 271.048568987 -290 285 -253.197531905 285 -220 c 3
 285 -144.597682743 254.464776162 -30.3370426374 199.844726562 78 c 0
 135.622784065 205.382076247 74.2317951804 327.850185293 58 348 c 0
EndSplineSet
Validated: 5
EndChar
StartChar: acutecomb
Encoding: 769 769 90
Width: 0
VWidth: 1159
Flags: HW
AnchorPoint: "TopMark" -216 403 mark 0
AnchorPoint: "Top" -198.5 402 mark 0
AnchorPoint: "TopMark" -191 616 basemark 0
LayerCount: 2
Fore
SplineSet
-237.222 452.25 m 5
 -216.2935625 513.283085 -172.712875 601.563 -143.688 658.936 c 5
 -143.688 658.936 -88.6934 641.772 -45.5782 605.24 c 5
 -95.313328125 565.93837 -152.341828125 499.70444 -203.882 420.902 c 5
 -237.222 452.25 l 5
EndSplineSet
EndChar
StartChar: tildecomb
Encoding: 771 771 504
Width: 0
Flags: HW
AnchorPoint: "TopMark" -214 389 mark 0
AnchorPoint: "TopMark" -198.5 538 basemark 0
AnchorPoint: "Top" -210 382 mark 0
LayerCount: 2
Fore
SplineSet
-350.352 428.208 m 1
 -324.48151256 495.613820194 -282.319909702 546.837085937 -276.109695312 546.837085937 c 3
 -233.28128263 546.837085937 -189.345179402 514.054242187 -142.6578125 514.054242187 c 3
 -129.56747865 514.054242187 -115.492166214 532.704745383 -108.208 556.648 c 1
 -67.6386 541.078 l 1
 -87.6815178525 478.935746631 -133.03126025 418.054242187 -137.9918125 418.054242187 c 3
 -175.05014411 418.054242187 -234.569824033 451.945085938 -278.436671875 451.945085938 c 3
 -295.434579313 451.945085938 -310 413.542 -307.02 414.29 c 1
 -350.352 428.208 l 1
EndSplineSet
EndChar
StartChar: uni0306
Encoding: 774 774 645
Width: 0
Flags: HW
AnchorPoint: "TopMark" -200.5 396 mark 0
AnchorPoint: "TopMark" -202 541 basemark 0
AnchorPoint: "Top" -198.5 393 mark 0
LayerCount: 2
Fore
SplineSet
-332.554127066 541.53740717 m 1
 -299.791078458 563.713350938 l 1
 -285.832803381 541.530964545 -242.797093347 527.712 -197.748 527.712 c 0
 -152.893933052 527.712 -109.781553654 541.43082091 -95.235802593 563.600580442 c 1
 -62.4217185974 541.63471796 l 1
 -82.7247327411 473.659544641 -141.371677727 442.274 -198.026 442.274 c 0
 -254.704454162 442.274 -312.981450477 473.599390449 -332.554127066 541.53740717 c 1
EndSplineSet
EndChar
StartChar: hookabovecomb
Encoding: 777 777 377
Width: 0
VWidth: 1159
Flags: HW
AnchorPoint: "Top" -221.5 444 mark 0
AnchorPoint: "TopMark" -219.5 639 basemark 0
AnchorPoint: "TopMark" -221.5 445 mark 0
LayerCount: 2
Fore
SplineSet
-312.5 595 m 1
 -306.423828125 628.966796875 -259.728229071 651 -216 651 c 3
 -171.605042978 651 -140.5 619.04296875 -140.5 595 c 3
 -140.5 535.725585938 -207 546.197 -207 515 c 3
 -207 506.644622335 -199.942 499.911884615 -187 496 c 1
 -209 463 l 1
 -228.801 473.607 -263 496.544 -263 517 c 3
 -263 559.009802979 -205 550.990234375 -205 580 c 3
 -205 596.51953125 -221.686928221 617 -234 617 c 3
 -243.313071779 617 -235 597.551757812 -235 580 c 1
 -255.55078125 580 -289.380859375 576.739257812 -312.5 595 c 1
EndSplineSet
EndChar
StartChar: uni030A
Encoding: 778 778 648
Width: 0
Flags: HW
AnchorPoint: "TopMark" -200.5 382 mark 0
AnchorPoint: "TopMark" -198.5 562 basemark 0
AnchorPoint: "Top" -198.5 395 mark 0
LayerCount: 2
Fore
SplineSet
-198 541.242375 m 3
 -219.182598921 541.242375 -238.795570312 523.983062579 -238.795570312 500.446757812 c 3
 -238.795570312 476.632555756 -219.966412686 460.757625 -198 460.757625 c 3
 -176.817401079 460.757625 -157.204429688 478.016937421 -157.204429688 501.553242188 c 3
 -157.204429688 523.779349194 -176.033587314 541.242375 -198 541.242375 c 3
-198 580.638945312 m 3
 -154.149427456 580.638945312 -116.56390625 546.387132885 -116.56390625 502.797148438 c 3
 -116.56390625 455.815246931 -155.71569029 421.361054688 -198 421.361054688 c 3
 -241.850572544 421.361054688 -279.43609375 452.498014353 -279.43609375 499.202851562 c 3
 -279.43609375 546.183949776 -240.28430971 580.638945312 -198 580.638945312 c 3
EndSplineSet
EndChar
StartChar: uni0313
Encoding: 787 787 111
Width: 0
VWidth: 1159
Flags: HW
HStem: 438.94 204.12
VStem: -218.13 116.64
AnchorPoint: "TopMark" -178 410 mark 0
AnchorPoint: "TopMark" -167 631 basemark 0
AnchorPoint: "Top" -179 414 mark 0
LayerCount: 2
Fore
SplineSet
-226.23046875 410.58984375 m 1
 -237.5703125 438.129882812 l 1
 -210.030273438 442.990234375 -150.333007812 475.263671875 -168.719726562 517.509765625 c 0
 -179.25 542.620117188 -204.740234375 559.661132812 -227.040039062 570.969726562 c 0
 -232.709960938 572.860351562 -235.950195312 580.825195312 -235.950195312 587.169921875 c 3
 -235.950195312 593.765625 -232.6171875 598.556640625 -226.23046875 600.940429688 c 0
 -205.169921875 612.280273438 -190.213867188 632.079101562 -176.8203125 651.16015625 c 0
 -174.299804688 656.830078125 -167.459960938 662.5 -160.620117188 662.5 c 3
 -154.139648438 662.5 -146.696289062 656.740234375 -144.419921875 650.349609375 c 0
 -135.275390625 631.719726562 -113.989257812 614.286132812 -93.3896484375 600.940429688 c 0
 -87.7197265625 598.509765625 -82.8603515625 593.650390625 -82.8603515625 587.169921875 c 1
 -82.8603515625 584.740234375 -64.23046875 486.73046875 -226.23046875 410.58984375 c 1
EndSplineSet
EndChar
StartChar: uni0314
Encoding: 788 788 368
Width: 0
VWidth: 1159
Flags: HW
HStem: 440.2 201.6
VStem: -295.6 112.8
AnchorPoint: "TopMark" -231 409 mark 0
AnchorPoint: "TopMark" -227 631 basemark 0
AnchorPoint: "Top" -224 414 mark 0
LayerCount: 2
Fore
SplineSet
-173.548828125 410.58984375 m 1
 -335.548828125 486.73046875 -316.918945312 584.740234375 -316.918945312 587.169921875 c 1
 -316.918945312 593.650390625 -312.059570312 598.509765625 -306.389648438 600.940429688 c 0
 -285.790039062 614.286132812 -264.50390625 631.719726562 -255.359375 650.349609375 c 0
 -253.083007812 656.740234375 -245.639648438 662.5 -239.159179688 662.5 c 3
 -232.319335938 662.5 -225.479492188 656.830078125 -222.958984375 651.16015625 c 0
 -209.565429688 632.079101562 -194.609375 612.280273438 -173.548828125 600.940429688 c 0
 -167.162109375 598.556640625 -163.829101562 593.765625 -163.829101562 587.169921875 c 3
 -163.829101562 580.825195312 -167.069335938 572.860351562 -172.739257812 570.969726562 c 0
 -195.0390625 559.661132812 -220.529296875 542.620117188 -231.059570312 517.509765625 c 0
 -249.446289062 475.263671875 -189.749023438 442.990234375 -162.208984375 438.129882812 c 1
 -173.548828125 410.58984375 l 1
EndSplineSet
EndChar
StartChar: uni0315
Encoding: 789 789 113
Width: 0
VWidth: 1159
Flags: HW
AnchorPoint: "TopRight" -110.5 531 mark 0
LayerCount: 2
Fore
SplineSet
-69.75 659.244882813 m 5
 28.25 630.244882813 l 5
 10.5188608392 574.058349407 -25.4764552448 495.719358836 -106 450.494 c 5
 -126 464.494 l 5
 -92.911754717 522.455199389 -77.0080754717 589.134928735 -69.75 659.244882813 c 5
EndSplineSet
EndChar
StartChar: uni031B
Encoding: 795 795 96
Width: 0
Flags: HW
AnchorPoint: "Horn" -73.5 341.8 mark 0
LayerCount: 2
Fore
SplineSet
-25.236328125 384.76953125 m 3
 -25.236328125 392.775961692 -42.0119737763 406.390716169 -58.8623046875 426.607421875 c 1
 -40.7308259266 466.943729203 -9.43129973703 492.322265625 19.20703125 492.322265625 c 3
 62.270997807 492.322265625 75.625 455.857421875 75.625 444.775390625 c 3
 75.625 399.205078125 -15.2378927954 330.428 -84.5 330 c 1
 -85 348 l 1
 -58.3714613716 348.804825931 -25.236328125 360.841803263 -25.236328125 384.76953125 c 3
EndSplineSet
EndChar
StartChar: uni0327
Encoding: 807 807 134
Width: 0
UnlinkRmOvrlpSave: 1
Flags: HW
VStem: -238.586 106.014<-166.92 -77.729>
AnchorPoint: "Bottom" -193 -15 mark 0
LayerCount: 2
Fore
SplineSet
-289.175 -200.003 m 1
 -287.435430125 -178.959546618 l 1
 -251.169286648 -170.434458157 -216.5859375 -167.064316721 -216.5859375 -139.911132812 c 3
 -216.5859375 -129.131933213 -226.428735942 -108.860650382 -253.841824406 -99.7169071687 c 1
 -251.446053766 -75.9038892469 l 1
 -245.12116688 -72.6037551369 -237.630041077 -71.7548474818 -231.521 -67.0766 c 0
 -205.309155413 -47.1056991115 -207.267228059 -41.3290989566 -185.476973117 5.43262322594 c 1
 -142.447973117 13.4325802859 l 1
 -142.447973117 13.4325802859 -158.0561507 -37.0081772234 -163.601695328 -46.1936874547 c 1
 -148.216879352 -55.0500289617 -110.572265625 -72.4542152581 -110.572265625 -111.428710938 c 3
 -110.572265625 -180.249935536 -210.350660835 -229.425096019 -289.175 -200.003 c 1
EndSplineSet
EndChar
StartChar: uni0328
Encoding: 808 808 127
Width: 0
Flags: HW
AnchorPoint: "Ogonek" -104.35 21.6582 mark 0
LayerCount: 2
Back
SplineSet
-94.3691 15.543 m 1
 -184.622 -62 -198.229 -98.8815 -198.229 -170 c 3
 -198.229 -213.865 -172.893 -239.872 -140.834 -239.872 c 3
 -121.081 -239.872 -97.3641 -229.184 -73.0273 -205.6 c 9
 -73.0273 -205.6 -61.9188 -215.927 -59.2285 -224 c 1
 -86.2326 -276.788 -131.729 -300 -173.229 -300 c 3
 -223.201 -300 -267.438 -262.154 -267.438 -198.835 c 3
 -267.438 -146.411 -224.333 -45 -101.068 36.7617 c 1
 -94.3691 15.543 l 1
EndSplineSet
Fore
SplineSet
-94.2801921875 16.3389296875 m 1
 -173.366025672 -42.1621448725 -192.01953125 -103.476342512 -192.01953125 -150.165039062 c 3
 -192.01953125 -185.533807331 -169.599046276 -208 -135 -208 c 3
 -132.098672979 -208 -126.907979676 -209.086989474 -111.092773438 -205.565429688 c 1
 -118.038400809 -201.209874246 -101.873989885 -216.146508508 -99.9619140625 -222.634765625 c 1
 -127.451791662 -277.191478292 -172.758761993 -300 -213.229492188 -300 c 3
 -262.572026434 -300 -306.4375 -263.316575783 -306.4375 -198.834960938 c 3
 -306.4375 -149.744838522 -254.862947963 -46.7993373111 -100.457289062 36.7470328125 c 1
 -94.2801921875 16.3389296875 l 1
EndSplineSet
EndChar
StartChar: uni032B
Encoding: 811 811 669
Width: 0
Flags: HW
CounterMasks: 1 70
AnchorPoint: "Bottom" -193 -15 mark 0
LayerCount: 2
Fore
SplineSet
-341 -86.3506 m 1
 -306.7418125 -82.58975625 l 1
 -300.206156302 -98.1847625376 -282.695610159 -106.006835938 -261.12109375 -106.006835938 c 3
 -233.584504493 -106.006835938 -225.216255185 -98.8825941453 -213.078898438 -84.58975625 c 1
 -176.7418125 -84.58975625 l 1
 -164.919654585 -98.8527837124 -156.673208471 -106.006835938 -129.12109375 -106.006835938 c 3
 -107.552161911 -106.006835938 -89.9194719121 -98.2172751638 -83.0790984375 -82.58975625 c 1
 -48.8213 -86.3506 l 1
 -60.4700418938 -161.934001179 -94.8858656677 -199.7265625 -129.196289062 -199.7265625 c 3
 -154.025180085 -199.7265625 -178.798071354 -178.452041667 -195.055 -135.903 c 1
 -211.520071959 -178.452041667 -236.385180629 -199.7265625 -261.196289062 -199.7265625 c 3
 -295.534164685 -199.7265625 -329.765040695 -161.934001179 -341 -86.3506 c 1
EndSplineSet
EndChar
StartChar: uni0370
Encoding: 880 880 470
Width: 548
VWidth: 1159
Flags: W
HStem: -9 35<29 73.359> 332 36<176 439.617> 456 20G<464 506> 661 31<19 78.8107>
VStem: 95 81<87.2516 332 368 615.232> 468 36<228 299.2 404.869 470.094>
AnchorPoint: "Top" 166 699 basechar 0
AnchorPoint: "Bottom" 163 -15 basechar 0
LayerCount: 2
Fore
SplineSet
29 -9 m 1
 19 26 l 1
 72 36 93.91015625 49.021484375 95 77 c 0
 98 155.005859375 99 534.903320312 93 620 c 0
 92 647 87 647 14 661 c 1
 19 692 l 1
 111 679.333007812 241 679 295 694 c 1
 301 652.047851562 l 1
 254.154296875 651.657226562 188.471679688 657.776367188 186 611 c 0
 182 527.59765625 177 445.224609375 176 368 c 1
 240 370 400 370 414 371 c 0
 451 378 456 414.400390625 472 476 c 1
 506 469 l 1
 489 388.24609375 493 308.75390625 504 228 c 1
 468 219 l 1
 448 306.135742188 455 322.090820312 414 327 c 0
 370 332 269 331 176 332 c 1
 175 235 179 147 191 81 c 0
 195 64 203 42 315 42 c 1
 309 -14 l 1
 204.374023438 12 156.543945312 12 29 -9 c 1
EndSplineSet
Validated: 33
Position2: "cpsp-1" dx=0 dy=0 dh=50 dv=100
EndChar
StartChar: uni0373
Encoding: 883 883 956
Width: 371
VWidth: 1043
UnlinkRmOvrlpSave: 1
Flags: HW
LayerCount: 2
Fore
SplineSet
257 619 m 1
 210 344 182.734375 130.0078125 182.734375 94 c 3
 182.734375 62.9892578125 182.264648438 30.3515625 182 -4 c 1
 161.505859375 -3.3271484375 103.927734375 -0.8056640625 101 9 c 1
 109.307617188 27.181640625 115.294921875 41.44140625 128 109 c 0
 165.348632812 307.599609375 196 488.258789062 216 621 c 1
 216 623 257 622 257 619 c 1
272 681 m 3
 393.016601562 681 389.038085938 684.041015625 408.599609375 690.799804688 c 1
 437.399414062 671.599609375 l 1
 410.56640625 606.448242188 376.578125 534.05859375 373 449 c 1
 333 455.400390625 l 1
 341 506.184570312 351 555.015625 367 605.799804688 c 1
 273.8359375 605.799804688 159.599609375 612 123 612 c 3
 92.6298828125 612 82 591.396484375 82 584 c 3
 82 531.665039062 88.6826171875 483.35546875 96.2001953125 459.200195312 c 1
 72.2001953125 439.200195312 l 1
 43.8466796875 470.084960938 24 553.236328125 24 596 c 3
 24 657.745117188 73.783203125 681 272 681 c 3
EndSplineSet
EndChar
StartChar: uni0377
Encoding: 887 887 477
Width: 493
Flags: HW
HStem: -9 68<101 168.737> -9 59<386.62 451.608> 350 68<325.006 392> 359 59<41.392 106.38>
VStem: 64 68<59.2623 252.609> 91 72<184.004 358.323> 330 72<50.6773 224.996> 361 68<156.391 349.738>
LayerCount: 2
Fore
SplineSet
117 -9 m 3xa1
 85 -9 64 19 64 105 c 3xa9
 64 175.926136364 91 291.647727273 91 324 c 3
 91 345 81 359 66 359 c 3
 40 359 28 319 22 312 c 1
 0 324 l 1
 3 332 26 418 96 418 c 3
 116.76056338 418 163 407 163 333 c 3x94
 163 266.64516129 132 175.569892473 132 91 c 3
 132 63 140 59 151 59 c 3
 180.440918534 59 218.358147864 174.071762711 231.547851562 209 c 0
 259.906171475 282.929088615 294.106407457 418 376 418 c 3
 408 418 429 390 429 304 c 3xa9
 429 233.07421875 402 117.352539062 402 85 c 3
 402 64 412 50 427 50 c 3
 453 50 465 90 471 97 c 1
 493 85 l 1
 490 77 467 -9 397 -9 c 3
 376.23943662 -9 330 2 330 76 c 3x62
 330 142.354492188 361 233.4296875 361 318 c 3
 361 346 353 350 342 350 c 3
 311.736671542 350 272.638813616 230.454743188 259.189453125 195 c 0
 231.17231089 121.783255884 197.500966277 -9 117 -9 c 3xa1
EndSplineSet
EndChar
StartChar: uni037A
Encoding: 890 890 691
Width: 95
Flags: HW
HStem: -295 44.4951<46.4591 116.823>
VStem: 5.52832 65.9873<-249.952 -89.5438> 19.5322 71.1582<-220.355 -87.5068>
AnchorPoint: "Bottom" 61.578 -15 mark 0
LayerCount: 2
Fore
SplineSet
71.515625 -231.512695312 m 3xc0
 71.515625 -248.459678573 76.6067932508 -250.504882812 84.2421875 -250.504882812 c 3
 100.517497958 -250.504882812 116.491878176 -237.232033415 118.528320312 -234.662109375 c 1
 131.528320312 -255.662109375 l 1
 118.999178375 -274.484071293 96.0347959034 -295 64 -295 c 3
 28.918120903 -295 5.5283203125 -277.081054687 5.5283203125 -222.393554688 c 3xc0
 5.5283203125 -178.897831838 18.312157944 -136.103652905 19.5322265625 -89.0400390625 c 1
 26.1251603621 -88.2478615807 76.3752511213 -72.4105478418 90.6904296875 -82.611328125 c 1xa0
 90.6904296875 -97.8299871586 71.515625 -208.848290773 71.515625 -231.512695312 c 3xc0
EndSplineSet
EndChar
StartChar: Delta
Encoding: 916 916 496
AltUni2: 002206.ffffffff.0
Width: 682
Flags: HW
LayerCount: 2
Back
SplineSet
544.5 92.2998046875 m 1
 603.878481443 92.7490234375 493 93.599609375 443 107.599609375 c 1
 470.16015625 123.173828124 358.9765625 302.09375 310 418.599609376 c 1
 285.744140624 393.41796875 170.50390625 206.521484376 164 128.599609375 c 1
 127 102.599609375 123.969726562 91.7900390625 215.5 93.2998046875 c 1
 544.5 92.2998046875 l 1
13 -5 m 1
 13.5 27.2998046875 46.451171875 58.6533203125 57 80 c 0
 160.27734375 289 244.142578125 470 319 640 c 0
 335.463867188 677.388671875 327 679 324 712 c 13
 387 712 l 1
 389 685 377.799804688 680.927734375 392 642 c 0
 474.073242188 417 522.873046875 281 636 62 c 0
 656.85546875 21.6279296875 659.5 31.7998046875 675 -4 c 1
 644.291253472 0.250766878382 506.778928135 2.27079066363 364.492942458 2.27079066363 c 0
 205.521788485 2.27079066363 41.59173205 -0.250557194264 13 -5 c 1
EndSplineSet
Fore
SplineSet
362.5 93.2998046875 m 1
 384.87890625 93.7490234375 426 98 443 107.599609375 c 1
 470.16015625 123.173828124 358.9765625 302.09375 310 418.599609376 c 1
 285.744140624 393.41796875 170.50390625 206.521484376 164 128.599609375 c 1
 164 102.599609375 166.969726562 91.7900390625 215.5 93.2998046875 c 1
 362.5 93.2998046875 l 1
13 -5 m 1
 13.5 27.2998046875 46.451171875 58.6533203125 57 80 c 0
 160.27734375 289 245.828884716 469.267397671 319 640 c 0
 325 654 327 679 324 712 c 9
 387 712 l 1
 389 685 388 653 392 642 c 0
 473.848010884 416.91797007 522.873046875 281 636 62 c 0
 656.85546875 21.6279296875 659.5 31.7998046875 675 -4 c 1
 644.291253472 0.250766878382 506.778928135 2.27079066363 364.492942458 2.27079066363 c 0
 205.521788485 2.27079066363 41.59173205 -0.250557194264 13 -5 c 1
EndSplineSet
Position2: "cpsp-1" dx=0 dy=0 dh=50 dv=100
Substitution2: "c2pc-1" delta.pcap
Substitution2: "c2sc-1" delta.smcp
EndChar
StartChar: Lambda
Encoding: 923 923 503
Width: 705
Flags: HW
LayerCount: 2
Fore
SplineSet
310 420 m 1
 263.526679799 309.893751789 216.396923466 234.831925362 196 115 c 0
 188.033145364 68.1947290149 220.372340426 45 275 45 c 1
 271 -11 l 1
 232.614754245 -3.44815359043 169.691140266 0.592230826158 112.954773844 0.592230826158 c 0
 75.809281928 0.592230826158 41.2536975226 -0.76537180436 17 -4 c 1
 17 -4 9 22 7 50 c 1
 81 67 103.295146302 95.3239375825 107 104 c 0
 193.768627451 307.195615514 263.240317864 470.100794659 330 637 c 0
 336 652 337 676 336 713 c 1
 402 713 l 1
 403 686 401 657 406 639 c 0
 463.134676222 433.3151656 494.637931034 311.396721311 615 85 c 0
 631.794671425 53.409827292 677 46 691 47 c 1
 691 47 689 23 687 -1 c 1
 647.991919458 3.08318915758 591.838542944 4.93981303332 539.927015668 4.93981303332 c 0
 479.357918857 4.93981303332 422.437142129 -0.37011405792 387 -13 c 1
 387 -13 375 7 367 37 c 1
 403.293584906 47 449.752641132 76.8386083906 443 98 c 0
 402.524828125 224.840882812 364.709008532 314.52881288 310 420 c 1
EndSplineSet
Position2: "cpsp-1" dx=0 dy=0 dh=50 dv=100
Substitution2: "c2pc-1" lambda.pcap
Substitution2: "c2sc-1" lambda.smcp
EndChar
StartChar: Xi
Encoding: 926 926 1347
Width: 664
Flags: HW
AnchorPoint: "Top" 342 699 basechar 0
AnchorPoint: "Bottom" 340 -15 basechar 0
LayerCount: 2
Fore
SplineSet
36 476 m 1
 41.6767578125 563.161955435 42.8955078125 624.510131235 41.1884765625 698 c 1
 60.5061946936 689.765486438 203.844966287 685.239257812 343.069335938 685.239257812 c 3
 474.775681171 685.239257812 602.811654574 689.264206089 619.385742188 698 c 1
 616.380859374 619.547241211 618.531249999 539.52355957 628 477 c 1
 587 472 l 1
 588 490.818181818 575.769968076 529.061341846 531 541 c 0
 476.889856941 554.690181033 405.674170282 560.915039062 335.758789062 560.915039062 c 3
 252.189483773 560.915039062 158.46915314 553.123083097 120 536 c 0
 85.6804373894 519.981411407 75.8431783537 472.594285714 78 470 c 1
 36 476 l 1
636 224 m 1
 621.571289061 131.341959636 618.471679687 66.1246383102 622.811523438 -12 c 1
 603.225894826 -3.76548643832 457.900745803 0.7607421875 316.747070312 0.7607421875 c 3
 183.221602665 0.7607421875 53.417251948 -3.26420608826 36.6142578125 -12 c 1
 39.619140625 73.5529553167 37.4697265625 160.817267923 28 229 c 1
 73 236 l 1
 74.5142857143 213.251449742 90.4229361062 156.81032072 126 146 c 0
 181.422347719 129.992412041 255.819147516 126.084960938 328.241210938 126.084960938 c 3
 414.134481032 126.084960938 522.772201037 131.000147786 550 149 c 0
 575.527710434 166.6730303 592 199 595 228 c 1
 636 224 l 1
540.5 467.5 m 1
 538.443359375 405.015227141 538.918945312 298.135344328 545.5 231.5 c 1
 508.5 229.5 l 1
 501.416735519 289.038277541 488.908897309 288.697563354 462 294 c 0
 448.18150044 296.890453174 386.1496063 306.5 338.5 306.5 c 3
 286.017605633 306.5 215.747306794 299.902000891 203 295 c 0
 171.884953764 283.838890887 165.017002342 235.716754568 165.5 231.5 c 1
 128.5 232.5 l 1
 134.977539062 313.140910388 135.790039062 387.604416381 128.5 468.5 c 1
 164.5 470.5 l 1
 171.12605042 449.923076923 174.930224705 424.277752764 206 417 c 0
 217.126177222 414.14013645 236.724637681 405.5 338.5 405.5 c 3
 434.148 405.5 454.431139979 413.194345315 460.5 415.5 c 0
 489.496948312 425.595238095 504.150793651 438.634920635 504.5 468.5 c 1
 540.5 467.5 l 1
EndSplineSet
Position2: "cpsp-1" dx=0 dy=0 dh=50 dv=100
Substitution2: "c2pc-1" xi.pcap
Substitution2: "c2sc-1" xi.smcp
EndChar
StartChar: Pi
Encoding: 928 928 513
Width: 776
Flags: HW
AnchorPoint: "Top" 384 699 basechar 0
AnchorPoint: "Bottom" 388 -15 basechar 0
LayerCount: 2
Back
SplineSet
257 86 m 4
 260.17578125 38.9319560397 343 32 326 38 c 5
 326 38 321.2 5.67567567568 320 -14 c 5
 259.506728322 -5.3984375 206.804343504 -0.5546875 156.612304688 -0.5546875 c 4
 114.692441212 -0.5546875 74.5764311293 -4.138671875 33 -12 c 5
 33 -12 25.8571428571 22.8571428571 23 49 c 5
 20 40.5172413793 85.6827918392 58.1221205818 87 86 c 4
 98.0109761297 192.256528514 105.879882812 348.259830684 104.879882812 464.46875 c 4
 104.177203337 537.226232843 97.6337340891 594.923183959 88 608 c 4
 73.969204134 633.902217662 25 642 31 640 c 5
 34 692 l 5
 69.91796875 687.40625 102.870117188 683.858398438 136.5 682.159179688 c 5
 278.306640625 682.954101562 495.950195312 682.123046875 643.5 681.71484375 c 5
 673.54296875 683.813476562 705.204101562 689.405273438 744 699 c 5
 750 648 l 5
 732 644.64516129 712.480774942 636.345661976 709 604 c 4
 697.143340945 495.428845877 679.381924968 317.438997876 681.0546875 190.212890624 c 4
 682.0546875 132.632858478 689.494140624 92.7896292715 704 69 c 4
 722 31.6315789474 758 20 749 33 c 5
 749 33 744.1 6.52941176471 747 -12 c 5
 704.919703881 -4.607421875 661.672076485 -0.3720703125 616.391601562 -0.3720703125 c 4
 573.845538199 -0.3720703125 529.335002017 -4.8564453125 482 -15 c 5
 482 -15 474.5 15.8857142857 472 32 c 5
 478 29 529.074439918 48.6307835437 532 86 c 4
 542.696042387 183.618795161 546.939823612 270.776375156 545.640625 362.826171876 c 4
 544.640625 429.194277341 539.288197482 498.226058086 533 576 c 4
 532.241285603 603.495971043 494.041842293 627.299523361 430.5 629.53125 c 4
 412.11713038 636.19845381 384.060820382 634.260560172 362 634.8671875 c 4
 311.123146524 635.258830296 275.230589855 627.205578058 272 620 c 4
 253.962464979 540.054642646 248.360351562 362.231913345 248.360351562 216.88671875 c 4
 248.360351562 166.325777763 253.423828124 116.134765624 257 86 c 4
EndSplineSet
Fore
SplineSet
257 86 m 0
 260.17578125 46.9319560397 311 40 326 38 c 1
 326 38 321.2 5.67567567568 320 -14 c 1
 259.506728322 -5.3984375 206.804343504 -0.5546875 156.612304688 -0.5546875 c 0
 114.692441212 -0.5546875 74.5764311293 -4.138671875 33 -12 c 1
 33 -12 25.8571428571 22.8571428571 23 49 c 1
 41 48 84.1232986002 58.2396724218 87 86 c 0
 98.0109761297 192.256528514 106.00219813 348.260947607 104.879882812 464.46875 c 0
 104.177203337 537.226232843 95.7361109569 593.718384632 88 608 c 0
 73.969204134 633.902217662 25 642 31 640 c 1
 34 692 l 1
 69.91796875 687.40625 102.870117188 683.858398438 136.5 682.159179688 c 1
 278.306640625 682.954101562 495.950195312 682.123046875 643.5 681.71484375 c 1
 673.54296875 682.963589557 705.204101562 686.290866658 744 692 c 1
 750 641 l 1
 728.487804878 637.492668622 703.198637167 629.064123449 701 595 c 0
 692.537587205 488.790302687 678.850778044 314.654665997 681.0546875 190.212890624 c 0
 682.0546875 132.632858478 691.145166034 93.7208345495 704 69 c 0
 717 44 735 34 749 33 c 1
 749 33 744.1 6.52941176471 747 -12 c 1
 704.919703881 -4.607421875 661.672076485 -0.3720703125 616.391601562 -0.3720703125 c 0
 573.845538199 -0.3720703125 529.335002017 -4.8564453125 482 -15 c 1
 482 -15 474.5 15.8857142857 472 32 c 1
 478 29 527.917378975 48.7394384648 532 86 c 0
 542.696042387 183.618795161 547.90490201 270.79505734 545.640625 362.826171876 c 0
 544.007744901 429.194277341 536.95142664 534.949905854 525 576 c 0
 517.078331665 603.208904906 499.325119538 628.336615621 430.5 631.53125 c 0
 410.999096175 632.436417448 384.062585131 634.371182693 362 634.8671875 c 0
 309.427251408 636.049113185 273.737284919 612.258602098 269 590 c 0
 253.251526308 516.004237542 248.360351562 351.415212331 248.360351562 216.88671875 c 0
 248.360351562 166.325777763 254.541312267 116.246453662 257 86 c 0
EndSplineSet
Position2: "cpsp-1" dx=0 dy=0 dh=50 dv=100
Substitution2: "c2pc-1" pi.pcap
Substitution2: "c2sc-1" pi.smcp
EndChar
StartChar: Sigma
Encoding: 931 931 510
Width: 626
Flags: HW
LayerCount: 2
Back
SplineSet
18 1 m 1
 5 35 l 1
 68 69 132.353515625 138.853515625 104 116 c 0
 159.075617109 190.331218866 215.425620332 264.948253366 271.001953125 340.299804688 c 1
 216.241281239 418.981827966 148.494140624 508 98.9716796875 587.299804688 c 0
 76.7999098253 621.843189719 64 638.599609376 21 649 c 1
 28 690 l 1
 100.521055818 686.355725838 186.588460485 684.969176485 267.955928091 684.969176485 c 0
 409.86328558 684.969176485 537.47511282 689.186564497 554 693 c 1
 565.145145837 683.247997393 569.133414459 677.741599913 569.133414459 669.087387512 c 0
 569.133414459 652.893580795 555.168856119 625.677987617 548 539 c 1
 512 535 l 1
 485 535 507 574 438 595 c 1
 343.406691692 616.721695334 278.723009104 635.153728826 279.205083865 635.076580388 c 0
 282.981331495 635.039865236 286.687383364 631.288268859 289.994140624 624.38671875 c 1
 327.939453124 564.791015624 377.126953124 491.197265624 418.205078124 427.599609376 c 0
 429.498190916 411.704011842 450.646484376 389.599609376 475.703125 377.299804688 c 1
 475.703125 342.299804688 l 1
 449.34765625 329.923828124 429.117637217 311.732890888 430.328125 310.599609376 c 0
 378.222529969 230.143672105 297.84375 131.89453125 245 56 c 1
 268.093992523 54 276 54 296 54 c 3
 318.360351562 54 368.186368881 68.0931844406 426 97 c 0
 494 131 528 160 573 192 c 1
 606 184 l 1
 590 118 579 62 567 0 c 1
 418.446420524 -0.773710049693 287.995461185 2.4830933189 163.612260931 2.4830933189 c 0
 119.627247387 2.4830933189 72.4064380862 2.08995072445 18 1 c 1
EndSplineSet
Fore
SplineSet
18 1 m 1
 5 35 l 1
 47.2014742015 67.3209876543 65.3582533075 91.5003452985 81 112 c 0
 138.015855122 184.853592655 192.425620332 260.948253365 248.001953125 336.299804688 c 1
 192.604641295 416.256030771 126.514032793 506.34079425 73.9716796875 587.299804688 c 0
 53.6338768901 618.496088235 42.2129429004 638.599609376 21 649 c 1
 28 690 l 1
 100.521055818 686.355725838 186.588460485 684.969176485 267.955928091 684.969176485 c 0
 404.762775308 684.969176485 547.069515281 689.186523438 563 693 c 1
 574.145507812 683.248046875 578.133789062 677.741210938 578.133789062 669.086914062 c 0
 578.133789062 652.893554688 564.168945312 587.677734375 557 501 c 1
 521 497 l 1
 504 507 492.088245611 567.440604447 427 595 c 0
 363.933878658 622.166806843 253.675074127 635.081414183 254.205078125 635.076171875 c 0
 257.981327765 635.039458126 261.687381605 631.288005116 264.994140625 624.38671875 c 1
 302.939453125 564.791015624 349.355947266 489.31936275 393.205078125 427.599609375 c 0
 404.498190917 411.704011841 425.646484376 389.599609375 450.703125 377.299804688 c 1
 450.703125 342.299804688 l 1
 422.024309143 329.923828123 402.317608761 311.98623811 401.328125 310.599609375 c 0
 349.222529969 231.143672105 268.84375 131.89453125 216 56 c 1
 252.225870624 54 264.62745098 54 296 54 c 3
 318.360351562 54 368.186368881 68.0931844406 426 97 c 0
 495.802503507 131.901251754 528 167.957894737 573 204 c 1
 606 196 l 1
 590 125.695652174 579 66.0434782609 567 0 c 1
 418.446420524 -0.773710049693 287.995461185 2.4830933189 163.612260931 2.4830933189 c 0
 119.627247387 2.4830933189 72.4064380862 2.08995072445 18 1 c 1
EndSplineSet
Position2: "cpsp-1" dx=0 dy=0 dh=50 dv=100
Substitution2: "c2pc-1" sigma.pcap
Substitution2: "c2sc-1" sigma.smcp
EndChar
StartChar: Upsilon
Encoding: 933 933 1341
Width: 680
Flags: HW
AnchorPoint: "Top" 327 699 basechar 0
AnchorPoint: "Bottom" 339 -15 basechar 0
LayerCount: 2
Fore
SplineSet
412 379 m 0
 407.506032382 343.833543588 408.399978592 307.581948803 408.399978592 269.343447373 c 3
 408.399978592 223.352371625 414.20301076 167.368279663 424 114 c 0
 432.147066033 69.6195390397 461 62 497 52 c 1
 490 -11 l 1
 438.5 -4 390.75 1 342.75 1 c 0
 294.75 1 246.5 -2.33333333333 194 -11 c 1
 176 50 l 1
 229 62 251 64 270 154 c 0
 274.295137664 174.345388937 277.754882812 216.043945312 277.754882812 249 c 3
 277.754882812 294.25390625 276.822717787 357.294939834 275 381 c 0
 272.973129786 407.360131407 202 572 78 572 c 3
 52.9231903792 572 44 569 30 558 c 1
 0 598 l 1
 18 635.352112676 86 700 127 700 c 3
 302 700 311 498 344 371 c 1
 375.407407407 498 384.240740741 700 556 700 c 3
 597 700 664 634.084507042 682 596 c 1
 652 555 l 1
 638 568 627.802877549 572 601 572 c 3
 481.428571429 572 415.756412736 408.394899116 412 379 c 0
EndSplineSet
Position2: "cpsp-1" dx=0 dy=0 dh=50 dv=100
Substitution2: "c2pc-1" upsilon.pcap
Substitution2: "c2sc-1" upsilon.smcp
EndChar
StartChar: Phi
Encoding: 934 934 518
Width: 714
UnlinkRmOvrlpSave: 1
Flags: HW
LayerCount: 2
Fore
SplineSet
336 524 m 3
 256.712871287 524 193 484.44 193 398 c 3
 193 276.821428571 291.573465347 164 388 164 c 3
 469.819936231 164 518 228.736263736 518 301 c 3
 518 414.911780919 451.044411215 524 336 524 c 3
362 590 m 3
 534 590 673 478 673 342 c 3
 673 211 541 104 363 104 c 3
 185 104 41 210 41 342 c 3
 41 474 187 590 362 590 c 3
EndSplineSet
Refer: 506 921 N 0.97 0 0 1 190 0 2
Position2: "cpsp-1" dx=0 dy=0 dh=50 dv=100
Substitution2: "c2pc-1" phi.pcap
Substitution2: "c2sc-1" phi.smcp
EndChar
StartChar: Omega
Encoding: 937 937 516
AltUni2: 002126.ffffffff.0
Width: 745
Flags: HW
LayerCount: 2
Back
SplineSet
322.000976562 0.7548828125 m 1
 222.34765625 0.5126953125 85.193359375 -2.896484375 72.6142578125 -10 c 5
 75.619140625 78.7470703125 73.46875 169.271484375 62 240 c 5
 118 247 l 5
 107 195.067382812 107.063476562 143.731445312 201 142 c 5
 238.626953125 138.30078125 241.75390625 129.38671875 242.76171875 128.21484375 c 1
 254.6953125 203.662109375 43 258.465564477 43 421 c 5
 43 573.154296875 193 706 373 706 c 5
 555.09375 706 702 577.790039062 702 421 c 5
 702 259.569104624 481.723632812 202.778320312 485.56640625 128.11328125 c 5
 498.336914062 130.771484375 521.887695312 143.8671875 560 144 c 4
 622.649414062 146.211914062 626 216 617 239 c 5
 679 235 l 5
 662.3828125 138.807617188 658.813476562 71.103515625 663.811523438 -10 c 5
 649.915039062 -3.697265625 512.920898438 0.025390625 412.990234375 0.6552734375 c 5
 442.98046875 289.03125 524 170.77772706 524 381 c 5
 524 513.882240295 422.386829304 632 299 632 c 5
 247.023691406 632 205 592.903725962 205 503 c 5
 205 284.551186601 288.001953125 295.15234375 322.000976562 0.7548828125 c 5
EndSplineSet
Fore
SplineSet
322.000976562 0.7548828125 m 1
 222.34765625 0.5126953125 85.193359375 -2.896484375 72.6142578125 -10 c 1
 75.619140625 71.6473046875 73.46875 154.929765625 62 220 c 1
 118 227 l 1
 119 184.959309896 107.063476562 143.401646205 201 142 c 1
 238.626953125 138.30078125 239.75390625 142.38671875 240.76171875 141.21484375 c 1
 234.6953125 214.662109375 43 269.465564477 43 421 c 1
 43 573.154296875 193 706 373 706 c 1
 555.09375 706 702 577.790039062 702 421 c 1
 702 250.569104624 503.723632812 214.778320312 489.56640625 140.11328125 c 1
 502.336914062 142.771484375 521.887695312 143.8671875 560 144 c 0
 622.649414062 145.746247944 621 196.105263158 621 219 c 1
 679 215 l 1
 662.3828125 126.660056601 658.813476562 64.4828204719 663.811523438 -10 c 1
 649.915039062 -3.697265625 512.920898438 0.025390625 412.990234375 0.6552734375 c 1
 437 247 524 206.889607934 524 381 c 3
 524 513.882240295 422.386829304 632 299 632 c 3
 247.023691406 632 205 592.903725962 205 503 c 3
 205 284.551186601 288.001953125 295.15234375 322.000976562 0.7548828125 c 1
EndSplineSet
Position2: "cpsp-1" dx=0 dy=0 dh=50 dv=100
Substitution2: "c2pc-1" omega.pcap
Substitution2: "c2sc-1" omega.smcp
EndChar
StartChar: gamma
Encoding: 947 947 524
Width: 451
VWidth: 1047
UnlinkRmOvrlpSave: 1
Flags: HMW
LayerCount: 2
Fore
SplineSet
153 -154 m 1
 168.234656407 -64.3841800645 202.259765624 75.6250712426 202.259765624 194.265625 c 3
 202.259765624 237.557692279 208.992994301 335 169 335 c 3
 137.966679157 335 131.87153952 297.137528533 92.568359375 274.931640625 c 1
 57.0316210739 286.205775409 -4 346.332191881 -4 367 c 3
 -4 372.098632812 8.998046875 418.5 61.2802734375 418.5 c 3
 187.519609958 418.5 271.497070312 342.70305838 271.497070312 116 c 3
 271.497070312 45.9776119403 260.345569575 -112.001464102 256.239257812 -140 c 0
 250.536658332 -178.882687306 234.05672391 -214.568359375 221.71875 -238 c 1
 180.792913023 -264 74.3257686067 -306.25 47 -264 c 1
 50.8764618375 -226.60546875 75.6104861712 -187.774531601 95.169921875 -144.150390625 c 0
 212.313233028 117.118717416 345.816213329 262.311533173 355.516601562 370.040039062 c 0
 355.929148622 374.62161635 360.400349915 410.11285395 360.806640625 430 c 1
 391.823049427 425.431236988 436.739474061 413.247868955 451 392.139648438 c 1
 408.09765625 304.546875 236.837674362 0.2412109375 153 -154 c 1
EndSplineSet
Substitution2: "pcap-1" gamma.pcap
Substitution2: "smcp-1" gamma.smcp
EndChar
StartChar: delta
Encoding: 948 948 520
Width: 487
UnlinkRmOvrlpSave: 1
Flags: HMW
LayerCount: 2
Back
SplineSet
189 218 m 7
 189 137.464516129 232.559322034 47 277 47 c 7
 234.705342308 47 311 33.0880009009 311 176 c 7
 311 383.185520362 -2 504.954751131 -2 648 c 7
 -2 691 28 754 125 754 c 7
 228 754 401 674 447 651 c 5
 445.232876712 605.956521739 372.780821918 586.652173913 318 577 c 5
 278.645756458 603.225490196 170.708487085 684 81 684 c 7
 74.7868852459 684 62 675.115384615 62 662 c 7
 62 534.911694511 433 452.692124105 433 236 c 7
 433 97 333 -9 227 -9 c 7
 100 -9 55 90 55 154 c 5
 55 298 159 378 261 378 c 7
 275.08988764 378 270 377.904761905 299 392 c 5
 296 354 l 5
 286 350 284.054945055 348 271 348 c 7
 174.176318196 348 189 223.899234491 189 218 c 7
EndSplineSet
Fore
SplineSet
189 218 m 3
 189 138.406451613 234.984378813 49 267 49 c 3
 271.123105626 49 311 74.9950496263 311 176 c 3
 311 383.185520362 -2 504.954751131 -2 648 c 3
 -2 691 28 754 125 754 c 3
 228 754 401 674 447 651 c 1
 445.232876712 605.956521739 372.780821918 586.652173913 318 577 c 1
 278.645756458 603.225490196 170.708487085 684 81 684 c 3
 74.7868852459 684 62 675.115384615 62 662 c 3
 62 534.911694511 433 452.692124105 433 236 c 3
 433 97 333 -9 227 -9 c 3
 100 -9 55 90 55 154 c 1
 55 298 159 378 261 378 c 3
 275.08988764 378 270 378.013605442 299 376 c 1
 296 338 l 1
 286 344.666666667 284.054945055 348 271 348 c 3
 174.176318196 348 189 223.899234491 189 218 c 3
EndSplineSet
Substitution2: "pcap-1" delta.pcap
Substitution2: "smcp-1" delta.smcp
EndChar
StartChar: epsilon
Encoding: 949 949 526
Width: 417
VWidth: 1043
UnlinkRmOvrlpSave: 1
Flags: HMW
AnchorPoint: "Bottom" 207 -15 basechar 0
AnchorPoint: "Top" 246 465 basechar 0
LayerCount: 2
Fore
SplineSet
366 398 m 1
 364.272727273 369.835820896 340.090909091 311.850746269 328 287 c 1
 277.373134328 287.4 251.582089552 293 200 293 c 3
 172.965517241 293 144 287 144 259 c 3
 144 242.968780458 167 239 173 236 c 1
 186 192 l 1
 171 191 144 182.498098914 144 156 c 3
 144 117.008196171 192.317757009 114 238 114 c 3
 285.2 114 303 128 354 133 c 1
 363.6 120.490909091 376.4 68.8909090909 378 47 c 1
 341 16 273 -7 198 -7 c 3
 122 -7 54 46 54 116 c 3
 54 207.333333333 152.515789474 253 245 253 c 3
 273 253 289 250.5 317 248 c 1
 317 226.625 312.875 206.675 306 191 c 1
 277 185 261 179 232 179 c 3
 143.007936008 179 78 255.025636813 78 317 c 3
 78 369 144 413 220 413 c 3
 279 413 331 404 366 398 c 1
EndSplineSet
Substitution2: "pcap-1" e.pcap
Substitution2: "smcp-1" e.smcp
EndChar
StartChar: zeta
Encoding: 950 950 522
Width: 419
UnlinkRmOvrlpSave: 1
Flags: HMW
LayerCount: 2
Back
SplineSet
52 132 m 3
 52 442.600961538 251.591666667 786.894230769 536 789 c 1
 537 783.285714286 537 776.142857143 537 769 c 0
 537 720.684210526 514.411764706 670.578947368 473 633 c 1
 455.131498471 608.736842105 425.333333333 612 395 612 c 3
 316.098765432 612 229 660.035087719 229 760 c 3
 229 797 249 826 316 828 c 1
 316 826 317 822 317 817 c 0
 317 786.745762712 312.8 735.13559322 310 712 c 1
 295.715529088 704 297 713 297 716 c 3
 297 705.75221865 335.22708977 697.913804494 277.999996231 647.039129701 c 1
 288.995226914 648.599238016 300.10647599 652.15377656 311 658 c 1
 272 612.084805654 88 304.539733123 88 186 c 3
 88 106.741176471 141.4375 114 178 114 c 3
 214.4 114 232.6 122 269 122 c 3
 363.390243902 122 398 63.8125 398 -11 c 3
 398 -94.4545454545 336.852713178 -164 262 -164 c 3
 224 -164 195 -147 177 -135 c 1
 183.7 -100.757575758 222.225 -25.4242424242 244 -22 c 1
 265.6 -38.24 307.6 -98 352 -98 c 3
 345.266666667 -98 344 -92.2352941176 344 -84 c 3
 344 -47.3736512343 289.026414251 -15 266 -15 c 3
 237 -15 213 -22 178 -22 c 3
 81 -22 52 50.5362318841 52 132 c 3
EndSplineSet
Fore
SplineSet
52 150 m 3
 52 452.091346154 251.591666667 786.951923077 536 789 c 1
 537 783.285714286 537 776.142857143 537 769 c 0
 537 720.684210526 514.411764706 670.578947368 473 633 c 1
 448.131498471 611.736842105 425.333333333 612 395 612 c 3
 316.098765432 612 229 660.035087719 229 760 c 3
 229 797 246.336734694 828 316 828 c 1
 316 826 317 822 317 817 c 0
 317 789.915254237 313.4 743.711864407 311 723 c 1
 302.692307692 723 299 720.3 299 717 c 3
 299 707.765211662 309 698.714285714 335 701 c 1
 342 634 l 1
 243 631 88 311.991706023 88 204 c 3
 88 124.741176471 141.4375 132 178 132 c 3
 207.6 132 222.4 140 252 140 c 3
 358.829268293 140 398 73.9375 398 -11 c 3
 398 -94.4545454545 336.852713178 -164 262 -164 c 3
 224 -164 195 -147 177 -135 c 1
 183.7 -100.757575758 222.225 -25.4242424242 244 -22 c 1
 262.6 -37.3852631579 310.923190379 -94 337 -94 c 3
 342.891666667 -94 344 -89.8823529412 344 -84 c 3
 344 -37.8189515564 310.096273767 3 249 3 c 3
 225.602272727 3 206.238636364 -4 178 -4 c 3
 81 -4 52 68.5362318841 52 150 c 3
EndSplineSet
Substitution2: "pcap-1" z.pcap
Substitution2: "smcp-1" z.smcp
EndChar
StartChar: eta
Encoding: 951 951 528
Width: 490
VWidth: 1047
UnlinkRmOvrlpSave: 1
Flags: HMW
AnchorPoint: "Top" 316.409 465 basechar 0
AnchorPoint: "Bottom" 118.409 -15 basechar 0
LayerCount: 2
Fore
SplineSet
46 408 m 3
 72.747072995 408 227.363636364 413 205 97 c 1
 158.561098846 95 132.438901154 95 86 95 c 1
 93.9042167455 158.153522771 101.313970853 222.190482601 121.741210938 274 c 0
 155.233398438 358.943359375 229.970703125 420 298 420 c 3
 422.14453125 420 430 304.166015625 430 256 c 3
 430 239.19637858 421 -18.0664252387 421 -57 c 3
 421 -99.685546876 429.835164835 -133.22243089 488 -162 c 1
 482.400607639 -197.660464639 479.599392361 -216.339535361 474 -252 c 1
 357.290039062 -252 340 -212.801757812 340 -150 c 3
 340 -40.5260916228 382 108 382 252 c 3
 382 280.825195313 368.083189158 312 344 312 c 3
 289.990741534 312 253 293 237 240 c 0
 222.326688299 191.39465499 222.54869963 158.918964461 210 -4 c 1
 186.097560976 -18.6666666667 93.9024390244 -5.33333333333 70 0 c 1
 74.2526041667 84.6923005757 93 193.722985197 93 273 c 3
 93 292.728276536 90.47265625 317.34375 69.744140625 317.34375 c 3
 56.181640625 317.34375 42.5239794809 311.172641155 34.8720703125 308.671875 c 1
 29.4611004277 319.649192378 11 350.953885348 11 394 c 1
 16.302734375 399.600585938 27.53515625 408 46 408 c 3
EndSplineSet
Substitution2: "pcap-1" h.pcap
Substitution2: "smcp-1" h.smcp
EndChar
StartChar: theta
Encoding: 952 952 524
Width: 488
UnlinkRmOvrlpSave: 1
Flags: HW
AnchorPoint: "Bottom" 232 -15 basechar 0
LayerCount: 2
Back
SplineSet
240 53 m 7
 375.481089273 53 322 454.613517949 322 463 c 7
 322 522.882159374 338.794175264 641 278 641 c 7
 193.034582023 641 186 448.611327645 186 230 c 7
 186 117.922034873 195.224661931 53 240 53 c 7
EndSplineSet
Fore
SplineSet
240 53 m 3
 311.734701388 53 330 277.38832963 330 478 c 3
 330 534.760606699 330.693681552 641 278 641 c 7
 199.034582023 641 186 448.611327645 186 230 c 3
 186 117.922034873 199.224661931 53 240 53 c 3
272 697 m 3
 393 697 454 577 454 403 c 3
 454 143.506835938 340 -11 230 -11 c 3
 118 -11 52 115.298828125 52 286 c 3
 52 478 130 697 272 697 c 3
EndSplineSet
Refer: 1025 58113 N 0.223466 0.00390061 -0.0185432 1.06234 143.267 351.05 2
Position2: "cpsp-1" dx=0 dy=0 dh=50 dv=102
Substitution2: "pcap-1" theta.pcap
Substitution2: "smcp-1" theta.smcp
EndChar
StartChar: iota
Encoding: 953 953 525
Width: 292
VWidth: 1043
Flags: HMW
AnchorPoint: "Top" 160 465 basechar 0
AnchorPoint: "Bottom" 140 -15 basechar 0
LayerCount: 2
Back
SplineSet
170 78 m 7
 170 80.625 169.473684211 81 183 81 c 7
 193.952380952 81 216 133.1171875 206 119 c 5
 254 104 l 5
 230 49.796875 187 -9 127 -9 c 7
 91.3773584906 -9 68 16.649122807 68 128 c 7
 68 214.566257283 87.6 299.366608183 82 393 c 5
 80.150744745 392.451991068 205.084681359 438.632586885 237 413 c 5
 215.842105263 280.999570904 170 118.000281131 170 78 c 7
EndSplineSet
Fore
SplineSet
172 91 m 3
 172 82.25 176.554655871 81 183 81 c 3
 193.952380952 81 204 109 206 119 c 1
 254 104 l 1
 230 49.796875 187 -9 127 -9 c 3
 91.3773584906 -9 68 16.649122807 68 128 c 3
 68 214.566257283 87.6 299.366608183 82 393 c 1
 80.150744745 392.451991068 205.084681359 438.632586885 237 413 c 1
 216.47368421 286.121975615 172 129.448031415 172 91 c 3
EndSplineSet
Substitution2: "pcap-1" i.pcap
Substitution2: "smcp-1" i.smcp
EndChar
StartChar: kappa
Encoding: 954 954 1012
Width: 490
VWidth: 1043
UnlinkRmOvrlpSave: 1
Flags: HMW
LayerCount: 2
Back
SplineSet
255 247 m 5
 240.5546875 213.65234375 335.094279964 135 410 135 c 7
 401.645422894 135 440.425080672 105.783052885 441 101 c 5
 446.76953125 98 450.23046875 96 456 93 c 5
 451 37 433.333984375 -9 380 -9 c 7
 308.075463725 -9 294.142178363 118.714953271 226 198 c 5
 255 247 l 5
32 367 m 5
 60.56 390 99.83 410 151 410 c 7
 188.799760299 410 205 392.077148438 205 366 c 7
 205 274.301856994 187.076923077 223.40625 184 132 c 5
 172.80078125 136 178.19921875 131 167 135 c 5
 166.099878444 228.394039735 264.704268391 334.119205298 376 416 c 5
 408.483203125 407.161182468 422.160574778 341.75 429 317 c 5
 315.048828124 316.98046875 179.025966371 171.192902087 186 103 c 4
 186.99609375 57.078125 196.8 39.7841796875 204 -1 c 5
 149.977648925 -1.34375 84.0748291016 -0.79296875 67 4 c 5
 68 182.9921875 67 147.201568904 67 253 c 7
 67 284.443786622 71.7875976562 328 45 328 c 7
 45 328 52 327 45 342 c 5
 32 367 l 5
EndSplineSet
Fore
SplineSet
255 247 m 1
 240.5546875 213.65234375 333.993421337 135 410 135 c 3
 419.702089542 135 445.332351748 137.577965922 446 138 c 1
 451.76953125 135 455.23046875 133 461 130 c 1
 455.671052632 53.6862745098 441.842799137 -9 380 -9 c 3
 308.075463725 -9 294.142178363 118.714953271 226 198 c 1
 255 247 l 1
14 350 m 1
 46.88 382.093023256 92.09 410 151 410 c 3
 188.799760299 410 205 392.077148438 205 366 c 3
 205 274.301856994 187.076923077 223.40625 184 132 c 1
 172.80078125 136 178.19921875 131 167 135 c 1
 166.099878444 228.394039735 264.704268391 334.119205298 376 416 c 1
 408.483203125 407.161182468 422.160574778 341.75 429 317 c 1
 315.048828124 316.98046875 186 171.5485889 186 103 c 0
 186 57.5196814904 186 40.3920241136 186 0 c 1
 131.977648925 -0.34375 66.0748291016 0.20703125 49 5 c 1
 62.884883322 151.325308855 67.4136833211 158.487187027 67.4136833211 280.990881958 c 3
 67.4136833211 306.947493009 64.9105057062 331 47 331 c 3
 39.4237708913 331 34.2222222222 328 27 325 c 1
 14 350 l 1
EndSplineSet
Substitution2: "pcap-1" k.pcap
Substitution2: "smcp-1" k.smcp
EndChar
StartChar: lambda
Encoding: 955 955 320
Width: 464
UnlinkRmOvrlpSave: 1
Flags: HMW
LayerCount: 2
Fore
SplineSet
223 406 m 1
 289 241 l 1
 136 -16 l 1
 101.205479452 -19.1111111111 26.397260274 13.5555555556 9 40 c 1
 223 406 l 1
-41 624 m 1
 -43.462890625 633.544921875 -45 644.666992188 -45 655 c 0
 -45 715.65625 -15.5144636824 772 21 772 c 3
 57 772 88.9052942703 723.444484694 113 681 c 0
 200.037037037 527.67826087 255 338 382 151 c 0
 403.711914062 119.030273438 414.818181818 153 455 130 c 1
 467.444444444 69.3333333333 469 17.3333333333 469 -26 c 1
 457 -29 449 -34 436 -34 c 3
 392 -34 362.948242188 23.97265625 342 72 c 0
 278.885742188 216.703125 200.6328125 434.6328125 111 589 c 0
 93 620 27 627 -41 624 c 1
EndSplineSet
Substitution2: "pcap-1" lambda.pcap
Substitution2: "smcp-1" lambda.smcp
EndChar
StartChar: mu
Encoding: 956 956 528
Width: 544
Flags: HMW
LayerCount: 2
Back
SplineSet
214 411 m 5
 219 266.722656251 155 163.277343749 155 19 c 7
 155 43.5 180.694444444 57 184 57 c 7
 304.4 57 326.296224589 340.159728945 332 391 c 6
 332 401 l 5
 332 402.375 438.947368421 445 459 412 c 5
 457.96 366.684218462 433 118 433 118 c 4
 436 81 458.007575323 106 452 106 c 7
 494.836363636 106 509 123 514 106 c 5
 531 101 l 5
 531 14 494 -6 466 -6 c 7
 417 -6 376 42 367 104 c 5
 367 104 l 5
 347 54 296 -1 213 -1 c 7
 151.699029126 -1 139.757281553 4.21818181818 131 6 c 5
 112 -7 96 -181 126 -261 c 5
 109.47826087 -279.666666667 38.4347826087 -266.333333333 12 -245 c 5
 26.075 -224 42.4196672517 -204.220587056 45 -162 c 6
 87 386 l 5
 88.6710526316 402.176470588 187.263157895 433.058823529 214 411 c 5
EndSplineSet
Fore
SplineSet
214 411 m 1
 218.7 273.681370579 167 181.623794212 167 115 c 3
 167 71.5405405405 198.547851563 67 206 67 c 3
 298.30703125 67 332 340.77973225 332 391 c 2
 332 401 l 1
 332 402.375 438.947368421 445 459 412 c 1
 457.96 366.684218462 433 118 433 118 c 0
 432 100 442.573365552 98 447 98 c 3
 453.679638626 98 461.096774194 98 470 116 c 1
 531 111 l 1
 531 15.8691588785 494 -6 466 -6 c 3
 417 -6 376 42 367 104 c 1
 367 104 l 1
 347 54 296 -1 213 -1 c 3
 156.932038835 -1 146.009708738 20.6181818182 138 28 c 1
 117.066666667 13.9288389513 93.3333333333 -174.4082397 126 -261 c 1
 109.47826087 -279.666666667 38.4347826087 -266.333333333 12 -245 c 1
 26.075 -224 41.767943845 -204.170637451 45 -162 c 2
 87 386 l 1
 88.6710526316 402.176470588 187.263157895 433.058823529 214 411 c 1
EndSplineSet
Substitution2: "pcap-1" m.pcap
Substitution2: "smcp-1" m.smcp
EndChar
StartChar: nu
Encoding: 957 957 534
Width: 480
VWidth: 1043
Flags: HMW
LayerCount: 2
Fore
SplineSet
110 -12 m 5
 110 -10.2772277228 96.4765625 -44.9544799619 117 104 c 5
 129 200.284620349 108.6 314 75 314 c 5
 61.243902439 314 55.9268292683 309.5 48 306 c 5
 29 313 l 5
 29 395 73 419 102 419 c 5
 140.127272727 419 250 378.505617978 250 207 c 5
 250 155.015789474 245.875 91.7578947368 248 88 c 5
 220 63 344 91.0526315789 344 225 c 7
 344 302.032967033 317 291 281 293 c 5
 278 299.363932292 275 310.272135417 275 323 c 7
 275 366.046559979 336.25 431 352 431 c 7
 369 431 430 391.471679688 430 295 c 7
 430 184 352.42563965 106.359590231 285 62 c 4
 209 12 130 -19 118 -19 c 5
 110 -12 l 5
EndSplineSet
Substitution2: "pcap-1" n.pcap
Substitution2: "smcp-1" n.smcp
EndChar
StartChar: xi
Encoding: 958 958 530
Width: 537
VWidth: 1039
UnlinkRmOvrlpSave: 1
Flags: HMW
LayerCount: 2
Back
SplineSet
262 396 m 5
 249.544958956 365.991852322 235.877696383 337.648949419 222 310 c 5
 170 316 100 220.070087139 100 185 c 7
 100 163.38 119.452631579 124 177 124 c 7
 242.314009662 124 318.68115942 148 385 148 c 7
 468.877862595 148 519 75.918699187 519 5 c 7
 519 -91.5461538462 444.073170732 -158 375 -158 c 7
 333.446808511 -158 293.872340426 -133.245283019 282 -117 c 5
 312.774193548 -76.75 352.096774194 -22.5 388 -19 c 5
 397.313432836 -32.1121022896 420.755417514 -72 440 -72 c 7
 451.38674934 -72 481 -47.9663453251 481 -3 c 7
 481 27.8431372549 431.923076923 20 404 20 c 7
 314.556603774 20 264.54245283 -12 185 -12 c 7
 76 -12 48 89 48 151 c 7
 48 197.191964286 86.0453148479 313.516572605 176 388 c 4
 226.902912621 430.148148148 298.582524272 447 390 447 c 5
 394.869565217 418.02739726 372.956521739 329.178082192 334 306 c 5
 312.617516081 297.384615385 296.854032657 298 266 298 c 7
 100 298 92 383.364982293 92 406 c 7
 92 708 439.2 798.98089172 464 770 c 5
 464 748.929577465 453.411764706 664.647887324 434 634 c 5
 414 629 399.911899006 627 336 627 c 7
 213.962264151 627 140 664.72972973 140 762 c 7
 140 812.35443038 188.444444444 840 249 840 c 5
 247.357142857 804.545454545 249 743.766233766 226 710 c 5
 224 710 l 7
 224 708.083333333 225.077317824 695.648809524 291 687 c 5
 281.316328321 668 271.638736453 668 262 668 c 5
 236 632 164 545.506878008 164 464 c 7
 164 386.500154369 209.230769231 408.050632911 262 396 c 5
EndSplineSet
Fore
SplineSet
262 396 m 1
 249.544958956 365.991852322 235.877696383 337.648949419 222 310 c 1
 170 316 100 220.070087139 100 185 c 3
 100 163.38 119.452631579 124 177 124 c 3
 242.314009662 124 318.68115942 148 385 148 c 3
 468.877862595 148 519 75.918699187 519 5 c 3
 519 -91.5461538462 444.073170732 -158 375 -158 c 3
 333.446808511 -158 293.872340426 -133.245283019 282 -117 c 1
 312.774193548 -76.75 352.096774194 -22.5 388 -19 c 1
 397.313432836 -32.1121022896 420.755417514 -72 440 -72 c 3
 451.38674934 -72 481 -47.9663453251 481 -3 c 3
 481 27.8431372549 431.923076923 20 404 20 c 3
 314.556603774 20 264.54245283 -12 185 -12 c 3
 76 -12 48 89 48 151 c 3
 48 197.191964286 86.0453148479 313.516572605 176 388 c 0
 226.902912621 430.148148148 298.582524272 447 390 447 c 1
 394.869565217 418.02739726 372.956521739 329.178082192 334 306 c 1
 312.617516081 297.384615385 296.854032657 298 266 298 c 3
 100 298 92 383.364982293 92 406 c 3
 92 708 439.2 798.98089172 464 770 c 1
 464 748.929577465 453.411764706 664.647887324 434 634 c 1
 414 629 399.911899006 627 336 627 c 3
 213.962264151 627 140 664.72972973 140 762 c 3
 140 813.35443038 188.444444444 840 249 840 c 1
 247.357142857 807.545454545 249 751.909090909 226 721 c 1
 224.433508532 720.659298725 224 716.524121129 224 710 c 3
 224 708.083333333 225.077317824 695.648809524 291 687 c 1
 281.316328321 668 271.638736453 668 262 668 c 1
 236 632 164 545.506878008 164 464 c 3
 164 386.500154369 209.230769231 408.050632911 262 396 c 1
EndSplineSet
Substitution2: "pcap-1" xi.pcap
Substitution2: "smcp-1" xi.smcp
EndChar
